<?xml version="1.0" standalone="no"?>
<!DOCTYPE svg PUBLIC "-//W3C//DTD SVG 1.1//EN" "http://www.w3.org/Graphics/SVG/1.1/DTD/svg11.dtd" >
<svg xmlns="http://www.w3.org/2000/svg" xmlns:xlink="http://www.w3.org/1999/xlink" version="1.1">
<metadata>
Created by FontForge 20170731 at Mon Mar 21 12:48:30 2022
 By Aleksey,,,
Copyright 2022 Dinamo (Johannes Breyer, Fabian Harb). All rights reserved.
</metadata>
<defs>
<font id="ABCGravity-XCompressed" horiz-adv-x="618" >
  <font-face 
    font-family="ABC Gravity X Compressed"
    font-weight="900"
    font-stretch="ultra-condensed"
    units-per-em="2048"
    panose-1="2 11 10 8 4 2 2 6 2 4"
    ascent="1638"
    descent="-410"
    x-height="1106"
    cap-height="1434"
    bbox="-188 -389 2475 1723"
    underline-thickness="100"
    underline-position="-355"
    unicode-range="U+0020-FF0B"
  />
<missing-glyph horiz-adv-x="614" 
d="M28 1434h558v-1434h-558v1434zM351 190v1054h-88v-1054h88z" />
    <glyph glyph-name="fi" unicode="fi" horiz-adv-x="719" 
d="M342 915h-21v-915h-240v915h-79v191h79v100q0 122 65 183t177 61q54 0 87 -12v-189q-16 6 -35 6q-60 0 -60 -62v-87h370v-1106h-240v914h-103v1zM470 1369q38 38 95 38q58 0 95.5 -38t37.5 -96q0 -57 -37.5 -95t-95.5 -38q-57 0 -95 38t-38 95q0 58 38 96z" />
    <glyph glyph-name="fl" unicode="fl" horiz-adv-x="732" 
d="M81 915h-79v191h79v100q0 122 65 183t177 61q54 0 87 -12v-189q-16 6 -35 6q-60 0 -60 -62v-87h95v-191h-89v-915h-240v915zM458 1434h240v-1434h-240v1434z" />
    <glyph glyph-name="f_f.liga" unicode="ff" horiz-adv-x="776" 
d="M81 915h-79v191h79v100q0 122 65 183t177 61q54 0 87 -12v-189q-16 6 -35 6q-60 0 -60 -62v-87h131v100q0 122 65 183t177 61q54 0 87 -12v-189q-16 6 -35 6q-60 0 -60 -62v-87h95v-191h-89v-915h-240v915h-125v-915h-240v915z" />
    <glyph glyph-name="f_f_i.liga" unicode="ffi" horiz-adv-x="1083" 
d="M81 915h-79v191h79v100q0 122 65 183t177 61q54 0 87 -12v-189q-16 6 -35 6q-60 0 -60 -62v-87h131v100q0 122 65 183t177 61q54 0 87 -12v-189q-16 6 -35 6q-60 0 -60 -62v-87h370v-1106h-240v914h-103v1h-21v-915h-240v915h-125v-915h-240v915zM835 1369q38 38 95 38
q58 0 95.5 -38t37.5 -96q0 -57 -37.5 -95t-95.5 -38q-57 0 -95 38t-38 95q0 58 38 96z" />
    <glyph glyph-name=".notdef" horiz-adv-x="614" 
d="M28 1434h558v-1434h-558v1434zM351 190v1054h-88v-1054h88z" />
    <glyph glyph-name=".null" horiz-adv-x="0" 
 />
    <glyph glyph-name="nonmarkingreturn" horiz-adv-x="682" 
 />
    <glyph glyph-name="space" unicode=" " horiz-adv-x="194" 
 />
    <glyph glyph-name="exclam" unicode="!" horiz-adv-x="322" 
d="M65 26.5q-39 39.5 -39 98.5t39 98.5t97 39.5q59 0 98 -39.5t39 -98.5t-39 -98.5t-98 -39.5q-58 0 -97 39.5zM289 1434l-36 -1134h-185l-35 1134h256z" />
    <glyph glyph-name="quotedbl" unicode="&#x22;" horiz-adv-x="535" 
d="M30 1434h214v-483h-214v483zM290 1434h214v-483h-214v483z" />
    <glyph glyph-name="numbersign" unicode="#" horiz-adv-x="693" 
d="M368 403h-69l-18 -403h-219l17 403h-61v208h70l11 243h-81v207h90l16 373h220l-16 -373h69l16 373h218l-16 -373h60v-207h-69l-11 -243h80v-208h-89l-17 -403h-219zM377 611l11 243h-69l-11 -243h69z" />
    <glyph glyph-name="dollar" unicode="$" horiz-adv-x="622" 
d="M214 -6q-95 24 -145.5 95t-50.5 177v239h252v-239q0 -28 10 -43t29 -15q41 0 41 67v142q0 59 -13 92.5t-43 64.5l-146 150q-69 71 -99 140.5t-30 169.5v105q0 116 51.5 193t143.5 105v119h203v-118q87 -26 136.5 -99t49.5 -187v-167h-250v186q0 56 -37 56
q-21 0 -30.5 -15t-9.5 -48v-100q0 -46 11 -77t40 -62l142 -150q48 -50 76 -93t44 -100.5t16 -138.5v-147q0 -120 -48 -196t-140 -103v-119h-203v116z" />
    <glyph glyph-name="percent" unicode="%" horiz-adv-x="802" 
d="M596 1434h164l-555 -1434h-164zM15 1262q0 87 50 137.5t137 50.5q88 0 137 -50t49 -138v-200q0 -88 -49 -138t-137 -50t-137.5 50t-49.5 138v200zM182 1013.5q7 -9.5 20 -9.5q26 0 26 35v246q0 35 -26 35q-13 0 -20 -9.5t-7 -25.5v-246q0 -16 7 -25.5zM415 372
q0 87 50 137.5t137 50.5q88 0 137 -50t49 -138v-200q0 -88 -49 -138t-137 -50t-137.5 50t-49.5 138v200zM582 123.5q7 -9.5 20 -9.5q26 0 26 35v246q0 35 -26 35q-13 0 -20 -9.5t-7 -25.5v-246q0 -16 7 -25.5z" />
    <glyph glyph-name="ampersand" unicode="&#x26;" horiz-adv-x="739" 
d="M94.5 55q-71.5 72 -71.5 220v280q0 89 32.5 145t93.5 91l-41 77q-31 59 -43.5 105t-12.5 113v74q0 96 36.5 161.5t100.5 97.5t145 32q77 0 137 -30.5t94 -92.5t34 -154v-72q0 -118 -47.5 -195.5t-139.5 -144.5l95 -215q14 109 23 226h213q-41 -300 -111 -487l133 -286
h-250l-29 63q-78 -80 -196 -80q-124 0 -195.5 72zM347 204q36 0 61 31l-140 312v-230q0 -113 79 -113zM297 1024q6 -24 18 -48l16 -32q22 25 32 52t10 65v127q0 56 -40 56q-42 0 -42 -57v-104q0 -35 6 -59z" />
    <glyph glyph-name="quotesingle" unicode="'" horiz-adv-x="284" 
d="M30 1434h224v-503h-224v503z" />
    <glyph glyph-name="parenleft" unicode="(" horiz-adv-x="359" 
d="M57.5 253q-36.5 212 -36.5 428q0 207 38 413t115 432h175q-44 -215 -63.5 -420.5t-19.5 -424.5q0 -222 20 -435.5t63 -456.5h-181q-74 252 -110.5 464z" />
    <glyph glyph-name="parenright" unicode=")" horiz-adv-x="359" 
d="M73 245.5q20 213.5 20 435.5q0 219 -19.5 424.5t-63.5 420.5h175q77 -226 115 -432t38 -413q0 -216 -36.5 -428t-110.5 -464h-181q43 243 63 456.5z" />
    <glyph glyph-name="asterisk" unicode="*" horiz-adv-x="584" 
d="M66 1337l151 -68l-18 165h186l-18 -165l151 68l58 -177l-162 -33l111 -122l-151 -110l-82 144l-82 -144l-150 110l111 122l-162 33z" />
    <glyph glyph-name="plus" unicode="+" horiz-adv-x="519" 
d="M153 551h-163v208h163v198h213v-198h163v-208h-163v-206h-213v206z" />
    <glyph glyph-name="comma" unicode="," horiz-adv-x="283" 
d="M42 205h240l-96 -366h-190z" />
    <glyph glyph-name="hyphen" unicode="-" horiz-adv-x="393" 
d="M30 775h334v-239h-334v239z" />
    <glyph glyph-name="period" unicode="." horiz-adv-x="294" 
d="M47 27q-40 40 -40 101q0 60 40 100t100 40t100 -40t40 -100q0 -61 -40 -101t-100 -40t-100 40z" />
    <glyph glyph-name="slash" unicode="/" horiz-adv-x="470" 
d="M218 1434h241l-207 -1434h-241z" />
    <glyph glyph-name="zero" unicode="0" horiz-adv-x="652" 
d="M108.5 58.5q-73.5 74.5 -73.5 208.5v900q0 83 34.5 147.5t100 100.5t156.5 36q92 0 157.5 -35t99.5 -99t34 -150v-900q0 -133 -74 -208t-217 -75q-144 0 -217.5 74.5zM299 206.5q9 -12.5 27 -12.5q20 0 28 12t8 34v954q0 21 -9.5 33.5t-26.5 12.5q-18 0 -27 -12.5
t-9 -33.5v-954q0 -21 9 -33.5z" />
    <glyph glyph-name="one" unicode="1" horiz-adv-x="441" 
d="M155 1128h-146v220h51q56 0 77.5 20.5t21.5 65.5h242v-1434h-246v1128z" />
    <glyph glyph-name="two" unicode="2" horiz-adv-x="633" 
d="M25 235l243 543q43 92 63.5 158t20.5 147v97q0 24 -9 39t-29 15q-21 0 -31.5 -14.5t-10.5 -40.5v-230h-250v202q0 143 78.5 221t217.5 78q138 0 213 -77.5t75 -231.5v-79q0 -116 -31.5 -211t-98.5 -216l-208 -415h344v-220h-587v235z" />
    <glyph glyph-name="three" unicode="3" horiz-adv-x="630" 
d="M96 57q-75 73 -75 205v186h249v-206q0 -26 9.5 -40t28.5 -14t29 14t10 40v254q0 56 -9 87.5t-32 46t-65 14.5h-27v209h23q44 0 67 12.5t33.5 46.5t10.5 101v180q0 54 -38 54q-37 0 -37 -54v-184h-249v146q0 138 74 217t212 79q137 0 212.5 -73.5t75.5 -215.5v-150
q0 -106 -38.5 -170.5t-128.5 -89.5q92 -22 130.5 -82t38.5 -181v-219q0 -139 -73.5 -212.5t-216.5 -73.5q-139 0 -214 73z" />
    <glyph glyph-name="four" unicode="4" horiz-adv-x="634" 
d="M310 336h-298v229l134 869h399v-885h80v-213h-80v-336h-235v336zM310 549v645h-2l-75 -645h77z" />
    <glyph glyph-name="five" unicode="5" horiz-adv-x="639" 
d="M107 53.5q-75 69.5 -75 197.5v209h253v-219q0 -49 36 -49t36 49v484q0 24 -10 37.5t-29 13.5q-26 0 -40.5 -25t-14.5 -76v-10h-226v769h554v-215h-311v-350q22 51 65 81t103 30q81 0 122.5 -55.5t41.5 -149.5v-516q0 -132 -75 -203.5t-215 -71.5t-215 69.5z" />
    <glyph glyph-name="six" unicode="6" horiz-adv-x="650" 
d="M111 60q-77 76 -77 219v869q0 144 78.5 223.5t221.5 79.5q136 0 209.5 -78.5t73.5 -213.5v-142h-250v177q0 23 -10 36.5t-30 13.5t-30 -13.5t-10 -36.5v-386q26 43 69.5 69t96.5 26q82 0 126.5 -53.5t44.5 -162.5v-413q0 -140 -75 -215t-217 -75q-144 0 -221 76z
M299 205.5q10 -14.5 30 -14.5q40 0 40 55v390q0 30 -9.5 44t-30.5 14q-40 0 -40 -55v-393q0 -26 10 -40.5z" />
    <glyph glyph-name="seven" unicode="7" horiz-adv-x="537" 
d="M146 687q66 305 211 523h-349v224h514v-247q-94 -195 -134 -460.5t-40 -608.5q0 -78 1 -118h-269q0 382 66 687z" />
    <glyph glyph-name="eight" unicode="8" horiz-adv-x="650" 
d="M103.5 62q-75.5 78 -75.5 231v216q0 106 30.5 165t107.5 93q-75 36 -103 97t-28 169v133q0 133 76 209t214 76t214 -76t76 -209v-133q0 -106 -28.5 -168t-102.5 -98q77 -34 107.5 -93t30.5 -165v-216q0 -153 -76 -231t-221 -78q-146 0 -221.5 78zM295.5 207.5
q9.5 -14.5 29.5 -14.5t29.5 14.5t9.5 43.5v342q0 57 -39 57t-39 -57v-342q0 -29 9.5 -43.5zM325 855q39 0 39 57v273q0 56 -39 56t-39 -56v-273q0 -57 39 -57z" />
    <glyph glyph-name="nine" unicode="9" horiz-adv-x="642" 
d="M110 57.5q-73 73.5 -73 209.5v172h246v-203q0 -45 37 -45q36 0 36 45v396q-26 -41 -60.5 -62t-83.5 -21q-88 0 -137.5 57t-49.5 176v369q0 141 75.5 220t214.5 79q142 0 217.5 -77t75.5 -222v-884q0 -83 -34.5 -147t-99.5 -100t-155 -36q-136 0 -209 73.5zM288.5 765
q9.5 -12 26.5 -12t27 12t10 34v400q0 44 -37 44q-18 0 -27 -11.5t-9 -32.5v-398q0 -24 9.5 -36z" />
    <glyph glyph-name="colon" unicode=":" horiz-adv-x="330" 
d="M65 27q-40 40 -40 101q0 60 40 100t100 40t100 -40t40 -100q0 -61 -40 -101t-100 -40t-100 40zM65 824q-40 40 -40 101q0 60 40 100t100 40t100 -40t40 -100q0 -61 -40 -101t-100 -40t-100 40z" />
    <glyph glyph-name="semicolon" unicode=";" horiz-adv-x="326" 
d="M55 205h240l-96 -366h-190zM67 824q-40 40 -40 101q0 60 40 100t100 40t100 -40t40 -100q0 -61 -40 -101t-100 -40t-100 40z" />
    <glyph glyph-name="less" unicode="&#x3c;" horiz-adv-x="533" 
d="M16 450v236l487 153v-200l-284 -68l284 -69v-205z" />
    <glyph glyph-name="equal" unicode="=" horiz-adv-x="542" 
d="M32 630h479v-189h-479v189zM32 877h479v-190h-479v190z" />
    <glyph glyph-name="greater" unicode="&#x3e;" horiz-adv-x="533" 
d="M30 502l284 69l-284 68v200l487 -153v-236l-487 -153v205z" />
    <glyph glyph-name="question" unicode="?" horiz-adv-x="583" 
d="M137 28q-40 40 -40 100t40 99.5t99 39.5t99 -39.5t40 -99.5t-40 -100t-99 -40t-99 40zM15 1166q0 137 74.5 211t207.5 74q129 0 200.5 -73t71.5 -205v-232q0 -119 -48 -195.5t-168 -87.5v-352h-233v525h105q44 0 66 13t30 40t8 76v229q0 51 -38 51t-38 -51v-241h-238v218
z" />
    <glyph glyph-name="at" unicode="@" horiz-adv-x="833" 
d="M222 -117.5q-90 45.5 -139 135.5t-49 220v821q0 123 46.5 214.5t133.5 140.5t205 49t205.5 -49t134 -140.5t46.5 -214.5v-693q0 -97 -45 -151.5t-130 -54.5h-154q-8 51 -10 88q-19 -46 -58.5 -74.5t-91.5 -28.5q-79 0 -119.5 63.5t-40.5 186.5v129q0 93 21 149.5t64 88.5
t116 51l91 24v129q0 39 -29 39q-31 0 -31 -40v-102h-216v56q0 132 67.5 197t185.5 65q111 0 175.5 -58t64.5 -173v-714q68 24 68 133v690q0 162 -84 248.5t-230 86.5q-95 0 -165.5 -39.5t-109 -115t-38.5 -180.5v-815q0 -111 42 -186.5t116 -113t169 -37.5q107 0 179.5 44
t96.5 131h77q-26 -116 -119.5 -180.5t-233.5 -64.5q-121 0 -211 45.5zM391 347q7 -20 27 -20q14 0 22 11t8 32v340l-14 -7q-31 -16 -40.5 -44.5t-9.5 -94.5v-150q0 -47 7 -67z" />
    <glyph glyph-name="A" unicode="A" horiz-adv-x="648" 
d="M126 1434h389l137 -1434h-261l-21 347h-94l-17 -347h-255zM359 564l-38 645h-2l-32 -645h72z" />
    <glyph glyph-name="B" unicode="B" horiz-adv-x="649" 
d="M37 1434h291q144 0 219 -71t75 -210v-129q0 -105 -44 -168t-126 -87q91 -24 136.5 -85.5t45.5 -191.5v-167q0 -166 -79 -245.5t-228 -79.5h-290v1434zM293 204q47 0 65.5 29t18.5 93v232q0 51 -19 76t-65 25h-5v-455h5zM292 859q41 0 60 27t19 84v173q0 46 -18 66.5
t-61 20.5h-4v-371h4z" />
    <glyph glyph-name="C" unicode="C" horiz-adv-x="638" 
d="M106 57q-75 73 -75 203v905q0 86 34.5 150.5t101 100t159.5 35.5q139 0 215.5 -76t76.5 -210v-262h-255v288q0 20 -9.5 32.5t-27.5 12.5t-27.5 -12.5t-9.5 -32.5v-949q0 -20 9.5 -31.5t27.5 -11.5t27.5 11.5t9.5 31.5v332h255v-314q0 -128 -76.5 -202t-218.5 -74t-217 73
z" />
    <glyph glyph-name="D" unicode="D" horiz-adv-x="653" 
d="M37 1434h288q146 0 221.5 -72t75.5 -204v-880q0 -137 -78.5 -207.5t-243.5 -70.5h-263v1434zM301 219q33 0 48 15.5t15 54.5v861q0 35 -15.5 50t-47.5 15h-13v-996h13z" />
    <glyph glyph-name="E" unicode="E" horiz-adv-x="535" 
d="M37 1434h477v-216h-226v-367h191v-216h-191v-419h226v-216h-477v1434z" />
    <glyph glyph-name="F" unicode="F" horiz-adv-x="513" 
d="M37 1434h458v-216h-207v-376h191v-220h-191v-622h-251v1434z" />
    <glyph glyph-name="G" unicode="G" horiz-adv-x="663" 
d="M113 55.5q-82 71.5 -82 209.5v897q0 87 36 152.5t104.5 101t163.5 35.5q92 0 158 -34.5t101 -98t35 -147.5v-218h-258v233q0 23 -10 36.5t-30 13.5t-30 -13.5t-10 -36.5v-919q0 -64 63 -64q22 0 38 9v348h-68v211h308v-714q-45 -31 -121.5 -52t-155.5 -21
q-160 0 -242 71.5z" />
    <glyph glyph-name="H" unicode="H" horiz-adv-x="658" 
d="M37 1434h251v-577h82v577h250v-1434h-250v637h-82v-637h-251v1434z" />
    <glyph glyph-name="I" unicode="I" horiz-adv-x="325" 
d="M37 1434h251v-1434h-251v1434z" />
    <glyph glyph-name="J" unicode="J" horiz-adv-x="619" 
d="M87.5 53.5q-68.5 69.5 -68.5 190.5v515h247v-513q0 -45 34 -45t34 45v1188h250v-1190q0 -125 -71 -192.5t-214 -67.5t-211.5 69.5z" />
    <glyph glyph-name="K" unicode="K" horiz-adv-x="644" 
d="M288 722v-722h-251v1434h251v-608l106 608h254l-143 -636l143 -798h-260z" />
    <glyph glyph-name="L" unicode="L" horiz-adv-x="506" 
d="M37 1434h251v-1210h205v-224h-456v1434z" />
    <glyph glyph-name="M" unicode="M" horiz-adv-x="916" 
d="M37 1434h347l75 -942h2l73 942h344v-1434h-218v1012h-3l-87 -1012h-224l-88 1001h-2v-1001h-219v1434z" />
    <glyph glyph-name="N" unicode="N" horiz-adv-x="749" 
d="M37 1434h313l128 -822h2l-2 822h234v-1434h-292l-148 916h-2l1 -916h-234v1434z" />
    <glyph glyph-name="O" unicode="O" horiz-adv-x="659" 
d="M105.5 60.5q-74.5 76.5 -74.5 221.5v870q0 90 35 157.5t102 104.5t161 37q143 0 221 -79t78 -220v-870q0 -144 -75 -221t-224 -77t-223.5 76.5zM329 199q37 0 37 45v946q0 20 -9.5 33t-27.5 13q-19 0 -28 -12.5t-9 -33.5v-946q0 -45 37 -45z" />
    <glyph glyph-name="P" unicode="P" horiz-adv-x="628" 
d="M37 1434h273q105 0 172.5 -30.5t101 -100t33.5 -184.5v-244q0 -121 -35 -191.5t-101.5 -100t-167.5 -29.5h-25v-554h-251v1434zM289 757q41 0 58.5 26.5t17.5 87.5v261q0 55 -16.5 77t-59.5 22h-1v-474h1z" />
    <glyph glyph-name="Q" unicode="Q" horiz-adv-x="659" 
d="M245 -9q-107 20 -160.5 94.5t-53.5 196.5v870q0 90 35 157.5t102 104.5t161 37q143 0 221 -79t78 -220v-870q0 -107 -41.5 -177.5t-124.5 -100.5l107 -175h-265zM329 199q37 0 37 45v946q0 20 -9.5 33t-27.5 13q-19 0 -28 -12.5t-9 -33.5v-946q0 -45 37 -45z" />
    <glyph glyph-name="R" unicode="R" horiz-adv-x="655" 
d="M37 1434h301q151 0 220.5 -68.5t69.5 -220.5v-127q0 -125 -45 -190.5t-129 -86.5q68 -10 105 -31.5t51.5 -57t14.5 -93.5v-559h-252v561q0 42 -18 58.5t-67 16.5v-636h-251v1434zM297 840q41 0 59.5 29t18.5 86v185q0 48 -18.5 69.5t-60.5 21.5h-8v-391h9z" />
    <glyph glyph-name="S" unicode="S" horiz-adv-x="623" 
d="M95 59.5q-75 76.5 -75 206.5v239h252v-239q0 -28 10 -43t29 -15q41 0 41 67v142q0 59 -13 92.5t-43 64.5l-146 150q-69 71 -99 140.5t-30 169.5v105q0 97 36.5 167.5t104 107.5t159.5 37q84 0 148.5 -34t100 -101.5t35.5 -163.5v-167h-250v186q0 56 -37 56
q-21 0 -30.5 -15t-9.5 -48v-100q0 -46 11 -77t40 -62l142 -150q48 -50 76 -93t44 -100.5t16 -138.5v-147q0 -152 -76.5 -232.5t-221.5 -80.5q-139 0 -214 76.5z" />
    <glyph glyph-name="T" unicode="T" horiz-adv-x="578" 
d="M164 1210h-150v224h551v-224h-151v-1210h-250v1210z" />
    <glyph glyph-name="U" unicode="U" horiz-adv-x="651" 
d="M108 54.5q-75 70.5 -75 195.5v1184h252v-1186q0 -20 10.5 -33t30.5 -13q19 0 29.5 13t10.5 33v1186h252v-1184q0 -125 -75 -195.5t-217 -70.5q-143 0 -218 70.5z" />
    <glyph glyph-name="V" unicode="V" horiz-adv-x="603" 
d="M9 1434h253l42 -1185h2l40 1185h249l-98 -1434h-391z" />
    <glyph glyph-name="W" unicode="W" horiz-adv-x="912" 
d="M11 1434h233l29 -1049h2l54 1049h260l51 -1056h2l32 1056h227l-91 -1434h-307l-49 1029h-2l-44 -1029h-306z" />
    <glyph glyph-name="X" unicode="X" horiz-adv-x="632" 
d="M108 758l-92 676h253l47 -512h2l48 512h250l-91 -676l95 -758h-254l-49 599h-2l-53 -599h-250z" />
    <glyph glyph-name="Y.ss05" unicode="Y" horiz-adv-x="585" 
d="M166 456l-174 978h254l48 -538h2l47 538h251l-176 -977v-457h-252v456z" />
    <glyph glyph-name="Z" unicode="Z" horiz-adv-x="531" 
d="M15 236l256 981h-255v217h498v-242l-254 -975h258v-217h-503v236z" />
    <glyph glyph-name="bracketleft" unicode="[" horiz-adv-x="377" 
d="M44 1526h323v-185h-88v-1365h88v-185h-323v1735z" />
    <glyph glyph-name="backslash" unicode="\" horiz-adv-x="470" 
d="M218 0l-207 1434h241l207 -1434h-241z" />
    <glyph glyph-name="bracketright" unicode="]" horiz-adv-x="377" 
d="M10 -209v185h88v1365h-88v185h323v-1735h-323z" />
    <glyph glyph-name="asciicircum" unicode="^" horiz-adv-x="550" 
d="M158 1434h232l150 -376h-205l-62 189l-63 -189h-200z" />
    <glyph glyph-name="underscore" unicode="_" horiz-adv-x="513" 
d="M14 0h485v-198h-485v198z" />
    <glyph glyph-name="grave" unicode="`" horiz-adv-x="318" 
d="M88 1162l-63 202h234l34 -202h-205z" />
    <glyph glyph-name="a" unicode="a" horiz-adv-x="613" 
d="M16 263v147q0 99 22.5 159t70 94t128.5 54l101 26v142q0 43 -33 43t-33 -45v-111h-240v58q0 147 75 220t207 73q122 0 193 -65.5t71 -192.5v-663q0 -65 21 -202h-232q-8 55 -10 97q-20 -51 -63.5 -82t-99.5 -31q-178 0 -178 279zM275 206.5q8 -22.5 31 -22.5
q15 0 23.5 12.5t8.5 35.5v372l-15 -8q-34 -16 -45 -44.5t-11 -94.5v-176q0 -52 8 -74.5z" />
    <glyph glyph-name="b" unicode="b" 
d="M334 12q-40 28 -59 74v-86h-240v1434h240v-415q22 48 63.5 76t93.5 28q70 0 112.5 -49t42.5 -148v-733q0 -107 -42 -158t-117 -51q-54 0 -94 28zM283 191.5q8 -11.5 25 -11.5q16 0 24.5 12t8.5 30v662q0 18 -8.5 29.5t-24.5 11.5t-24.5 -11.5t-8.5 -29.5v-662
q0 -19 8 -30.5z" />
    <glyph glyph-name="c" unicode="c" horiz-adv-x="598" 
d="M99.5 55.5q-72.5 71.5 -72.5 203.5v590q0 132 74 203t204 71q129 0 201 -67.5t72 -200.5v-180h-240v203q0 42 -33 42q-17 0 -25 -11t-8 -31v-651q0 -19 8 -30t25 -11q33 0 33 41v220h240v-201q0 -129 -74 -195.5t-201 -66.5q-131 0 -203.5 71.5z" />
    <glyph glyph-name="d" unicode="d" 
d="M75 32q-44 48 -44 147v733q0 107 42.5 159t119.5 52q53 0 91.5 -29.5t58.5 -77.5v418h240v-1434h-240v86q-20 -50 -58.5 -76t-92.5 -26q-73 0 -117 48zM285.5 192q8.5 -12 24.5 -12t24.5 12t8.5 30v662q0 18 -8 29.5t-25 11.5q-16 0 -24.5 -11.5t-8.5 -29.5v-662
q0 -18 8.5 -30z" />
    <glyph glyph-name="e" unicode="e" horiz-adv-x="603" 
d="M99.5 54q-72.5 70 -72.5 193v603q0 130 72.5 201.5t200.5 71.5q129 0 202.5 -71t73.5 -202v-352h-308v-274q0 -17 8.5 -28t25.5 -11t25.5 11t8.5 28v212h240v-188q0 -127 -73.5 -195.5t-202.5 -68.5q-128 0 -200.5 70zM336 680v204q0 18 -8.5 28.5t-25.5 10.5
t-25.5 -10.5t-8.5 -28.5v-204h68z" />
    <glyph glyph-name="f" unicode="f" horiz-adv-x="411" 
d="M81 915h-79v191h79v100q0 122 65 183t177 61q54 0 87 -12v-189q-16 6 -35 6q-60 0 -60 -62v-87h95v-191h-89v-915h-240v915z" />
    <glyph glyph-name="g" unicode="g" horiz-adv-x="619" 
d="M104 -247.5q-71 65.5 -71 191.5v59h240v-75q0 -48 36 -48q17 0 26 13t9 35v227q-44 -110 -157 -110q-66 0 -111.5 46t-45.5 143v684q0 104 42.5 154.5t115.5 50.5q61 0 99 -33.5t57 -88.5v105h240v-1161q0 -121 -74 -189.5t-201 -68.5q-134 0 -205 65.5zM283.5 258
q8.5 -12 25.5 -12t26 12.5t9 31.5v587q0 19 -9 31t-26 12t-25.5 -11.5t-8.5 -31.5v-587q0 -20 8.5 -32z" />
    <glyph glyph-name="h" unicode="h" horiz-adv-x="611" 
d="M35 1434h240v-412q24 48 65 74.5t92 26.5q70 0 108 -48.5t38 -138.5v-936h-240v884q0 17 -8.5 25.5t-21.5 8.5q-15 0 -24 -10t-9 -28v-880h-240v1434z" />
    <glyph glyph-name="i" unicode="i" horiz-adv-x="310" 
d="M35 1106h240v-1106h-240v1106zM60 1178q-38 38 -38 95q0 58 38 96t95 38q58 0 95.5 -38t37.5 -96q0 -57 -37.5 -95t-95.5 -38q-57 0 -95 38z" />
    <glyph glyph-name="j" unicode="j" horiz-adv-x="310" 
d="M-39 -292v186q14 -6 34 -6q40 0 40 44v1174h240v-1193q0 -119 -56 -170t-150 -51q-64 0 -108 16zM61 1178q-38 38 -38 95q0 58 38 96t95 38q58 0 95.5 -38t37.5 -96q0 -57 -37.5 -95t-95.5 -38q-57 0 -95 38z" />
    <glyph glyph-name="k" unicode="k" 
d="M275 541v-541h-240v1434h240v-784l92 456h250l-127 -507l129 -599h-252z" />
    <glyph glyph-name="l" unicode="l" horiz-adv-x="310" 
d="M35 1434h240v-1434h-240v1434z" />
    <glyph glyph-name="m" unicode="m" horiz-adv-x="897" 
d="M35 1106h226v-104q22 56 64 88.5t97 32.5q112 0 136 -122q22 58 64.5 90t98.5 32q67 0 104.5 -48t37.5 -134v-941h-235v886q0 17 -8 26t-21 9q-14 0 -23 -9.5t-9 -29.5v-882h-236v886q0 35 -28 35q-14 0 -23 -9.5t-9 -29.5v-882h-236v1106z" />
    <glyph glyph-name="n" unicode="n" horiz-adv-x="611" 
d="M35 1106h231v-103q23 56 66.5 88t99.5 32q70 0 108 -48.5t38 -138.5v-936h-240v884q0 17 -8.5 25.5t-21.5 8.5q-15 0 -24 -10t-9 -28v-880h-240v1106z" />
    <glyph glyph-name="o" unicode="o" horiz-adv-x="610" 
d="M102 56.5q-75 72.5 -75 200.5v592q0 131 74.5 202.5t203.5 71.5q130 0 203.5 -71.5t73.5 -202.5v-592q0 -128 -74 -200.5t-203 -72.5q-128 0 -203 72.5zM280.5 199q8.5 -12 24.5 -12q17 0 25 11.5t8 30.5v649q0 17 -8 29t-25 12q-16 0 -24.5 -11.5t-8.5 -29.5v-649
q0 -18 8.5 -30z" />
    <glyph glyph-name="p" unicode="p" 
d="M334 12q-40 28 -59 74v-386h-240v1406h240v-87q22 48 63.5 76t93.5 28q70 0 112.5 -49t42.5 -148v-733q0 -107 -42 -158t-117 -51q-54 0 -94 28zM283 191.5q8 -11.5 25 -11.5q16 0 24.5 12t8.5 30v662q0 18 -8.5 29.5t-24.5 11.5t-24.5 -11.5t-8.5 -29.5v-662
q0 -19 8 -30.5z" />
    <glyph glyph-name="q" unicode="q" 
d="M75 32q-44 48 -44 147v733q0 107 42.5 159t119.5 52q53 0 91.5 -29.5t58.5 -77.5v90h240v-1406h-240v386q-20 -50 -58.5 -76t-92.5 -26q-73 0 -117 48zM285.5 192q8.5 -12 24.5 -12t24.5 12t8.5 30v662q0 18 -8 29.5t-25 11.5q-16 0 -24.5 -11.5t-8.5 -29.5v-662
q0 -18 8.5 -30z" />
    <glyph glyph-name="r" unicode="r" horiz-adv-x="560" 
d="M35 1106h228v-131q23 69 64 106t96 37q63 0 93.5 -44.5t30.5 -136.5v-411h-221v335q0 28 -23 28q-13 0 -20.5 -9.5t-7.5 -27.5v-852h-240v1106z" />
    <glyph glyph-name="s" unicode="s" horiz-adv-x="588" 
d="M92 52.5q-74 68.5 -74 196.5v146h241v-166q0 -25 8 -37.5t26 -12.5q19 0 28 13t9 46v75q0 38 -10 64t-26.5 43.5t-47.5 42.5l-96 79q-45 37 -72 70t-41 77t-14 105v59q0 128 73 198.5t203 70.5q126 0 198 -67t72 -200v-100h-234v127q0 49 -35 49q-37 0 -37 -53v-57
q0 -39 10.5 -59.5t47.5 -51.5l103 -87q50 -43 80 -78t49 -85.5t19 -122.5v-81q0 -134 -74.5 -203t-203.5 -69q-128 0 -202 68.5z" />
    <glyph glyph-name="t" unicode="t" horiz-adv-x="416" 
d="M135.5 38.5q-55.5 48.5 -55.5 151.5v725h-78v191h80v196l238 67v-263h89v-191h-89v-678q0 -44 49 -44q17 0 40 7v-186q-55 -24 -129 -24q-89 0 -144.5 48.5z" />
    <glyph glyph-name="u" unicode="u" horiz-adv-x="610" 
d="M73 31q-40 47 -40 139v936h239v-880q0 -20 8.5 -29t22.5 -9q13 0 22.5 10.5t9.5 32.5v875h240v-1106h-227v110q-22 -59 -63 -92.5t-96 -33.5q-76 0 -116 47z" />
    <glyph glyph-name="v" unicode="v" horiz-adv-x="586" 
d="M7 1106h243l43 -886h2l46 886h238l-105 -1106h-362z" />
    <glyph glyph-name="w" unicode="w" horiz-adv-x="891" 
d="M9 1106h227l29 -790h2l53 790h250l53 -790h2l30 790h227l-94 -1106h-295l-46 730h-2l-48 -730h-294z" />
    <glyph glyph-name="x" unicode="x" horiz-adv-x="588" 
d="M106 581l-102 525h243l50 -365h2l46 365h239l-101 -525l106 -581h-248l-48 412h-2l-48 -412h-243z" />
    <glyph glyph-name="y.ss05" unicode="y" horiz-adv-x="566" 
d="M163 -18l-165 1124h239l44 -631h2l57 631h232l-218 -1406h-240z" />
    <glyph glyph-name="z" unicode="z" horiz-adv-x="514" 
d="M18 224l249 680h-248v202h474v-228l-246 -675h250v-203h-479v224z" />
    <glyph glyph-name="braceleft" unicode="{" horiz-adv-x="437" 
d="M236 -190q-73 21 -110.5 77t-37.5 158v423q0 51 -20.5 73.5t-71.5 22.5v197q51 0 71.5 25.5t20.5 78.5v404q0 102 37.5 158t110.5 77.5t192 21.5v-193q-54 0 -79.5 -25t-25.5 -75v-380q0 -152 -127 -187q127 -33 127 -189v-410q0 -51 23.5 -67.5t81.5 -16.5v-194
q-119 0 -192 21z" />
    <glyph glyph-name="bar" unicode="|" horiz-adv-x="302" 
d="M44 1434h215v-1721h-215v1721z" />
    <glyph glyph-name="braceright" unicode="}" horiz-adv-x="437" 
d="M90.5 -0.5q23.5 16.5 23.5 67.5v410q0 156 127 189q-127 35 -127 187v380q0 50 -25.5 75t-79.5 25v193q119 0 192 -21.5t110.5 -77.5t37.5 -158v-404q0 -53 20.5 -78.5t71.5 -25.5v-197q-51 0 -71.5 -22.5t-20.5 -73.5v-423q0 -102 -37.5 -158t-110.5 -77t-192 -21v194
q58 0 81.5 16.5z" />
    <glyph glyph-name="uni00A0" unicode="&#xa0;" horiz-adv-x="194" 
 />
    <glyph glyph-name="exclamdown" unicode="&#xa1;" horiz-adv-x="316" 
d="M254 1079.5q39 -39.5 39 -98.5t-39 -98.5t-97 -39.5q-59 0 -98 39.5t-39 98.5t39 98.5t98 39.5q58 0 97 -39.5zM66 806h185l35 -1134h-256z" />
    <glyph glyph-name="cent" unicode="&#xa2;" horiz-adv-x="605" 
d="M207 -3q-85 24 -130.5 91t-45.5 171v590q0 103 46 169.5t130 91.5v118h199v-117q84 -22 130 -86.5t46 -169.5v-180h-240v203q0 42 -33 42q-17 0 -25 -11t-8 -31v-651q0 -19 8 -30t25 -11q33 0 33 41v220h240v-201q0 -101 -46 -164t-130 -86v-118h-199v119z" />
    <glyph glyph-name="sterling" unicode="&#xa3;" horiz-adv-x="683" 
d="M78.5 211q20.5 22 23.5 81l9 251h-89v190h96l12 318q9 189 122 295t322 106q33 0 50 -1v-211q-11 1 -33 1q-192 0 -203 -189l-14 -319h173v-190h-181l-8 -182q-3 -55 -13.5 -94t-32.5 -66h358v-201h-650v189q38 0 58.5 22z" />
    <glyph glyph-name="yen" unicode="&#xa5;" horiz-adv-x="629" 
d="M188 334h-146v311h124l-153 789h251l51 -541h2l50 541h249l-155 -789h124v-311h-145v-334h-252v334z" />
    <glyph glyph-name="brokenbar" unicode="&#xa6;" horiz-adv-x="302" 
d="M44 517h215v-804h-215v804zM44 1434h215v-747h-215v747z" />
    <glyph glyph-name="section" unicode="&#xa7;" horiz-adv-x="595" 
d="M92.5 -123.5q-73.5 68.5 -73.5 197.5v129h240v-150q0 -50 34 -50q19 0 27.5 14t8.5 51v52q0 40 -10 65.5t-26 42t-47 40.5l-90 78q-69 52 -101 109t-32 148v46q0 87 35.5 148.5t102.5 90.5l-1 1q-69 53 -101 110t-32 148v29q0 130 73 202t204 72q126 0 198 -67t72 -200
v-80h-235v109q0 48 -35 48q-36 0 -36 -54v-37q0 -40 10.5 -60.5t47.5 -49.5l98 -89q51 -40 82 -75.5t50 -88.5t19 -132v-51q0 -80 -33.5 -135t-96.5 -83q63 -52 94.5 -112t31.5 -162v-47q0 -136 -74 -206t-203 -70q-128 0 -201.5 68.5zM272 574.5q10 -23.5 37 -48.5
q27 17 27 88v52q0 40 -10.5 65t-31.5 46q-32 -19 -32 -88v-55q0 -36 10 -59.5z" />
    <glyph glyph-name="dieresis" unicode="&#xa8;" horiz-adv-x="519" 
d="M56.5 1185.5q-31.5 31.5 -31.5 78.5q0 49 31.5 80t78.5 31q48 0 79 -31t31 -80q0 -47 -31.5 -78.5t-78.5 -31.5t-78.5 31.5zM306.5 1344q31.5 31 78.5 31q48 0 79 -31t31 -80q0 -47 -31.5 -78.5t-78.5 -31.5t-78.5 31.5t-31.5 78.5q0 49 31.5 80z" />
    <glyph glyph-name="copyright" unicode="&#xa9;" horiz-adv-x="825" 
d="M265.5 284.5q-49.5 48.5 -49.5 134.5v599q0 86 51.5 137.5t144.5 51.5q92 0 142.5 -50t50.5 -139v-173h-169v189q0 12 -6.5 20t-17.5 8t-17 -7.5t-6 -20.5v-625q0 -28 23 -28q12 0 18 8t6 20v218h169v-208q0 -85 -50.5 -134t-144.5 -49q-95 0 -144.5 48.5zM32 1070
q0 112 44.5 201t130.5 140.5t205 51.5t205 -51.5t131 -141t45 -200.5v-706q0 -111 -45 -200.5t-131 -141t-205 -51.5t-204.5 51.5t-130.5 141t-45 200.5v706zM142.5 197.5q36.5 -72.5 106 -113.5t163.5 -41q95 0 164.5 40t106 112.5t36.5 167.5v708q0 96 -36.5 168
t-105.5 112t-164 40t-164.5 -41t-106 -113.5t-36.5 -165.5v-708q0 -93 36.5 -165.5z" />
    <glyph glyph-name="ordfeminine" unicode="&#xaa;" horiz-adv-x="481" 
d="M52.5 705.5q-34.5 50.5 -34.5 147.5v86q0 73 17.5 117t54.5 69t99 40l75 18v81q0 34 -26 34q-29 0 -29 -35v-59h-179v34q0 105 56 157t155 52q93 0 147.5 -46t54.5 -138v-454q0 -46 15 -142h-173q-6 45 -7 73q-17 -41 -49 -63t-75 -22q-67 0 -101.5 50.5zM211.5 821.5
q6.5 -14.5 25.5 -14.5q12 0 19.5 9t7.5 26v235l-15 -5q-27 -10 -35.5 -32t-8.5 -72v-98q0 -34 6.5 -48.5z" />
    <glyph glyph-name="guillemotleft" unicode="&#xab;" horiz-adv-x="665" 
d="M301 557l140 549h204l-119 -549l119 -557h-204zM164 1106h204l-119 -549l119 -557h-204l-139 557z" />
    <glyph glyph-name="uni00AD" unicode="&#xad;" horiz-adv-x="393" 
d="M30 775h334v-239h-334v239z" />
    <glyph glyph-name="registered" unicode="&#xae;" horiz-adv-x="825" 
d="M217 1196h200q100 0 147 -46.5t47 -149.5v-75q0 -85 -29 -129.5t-83 -59.5q64 -11 87 -37.5t23 -82.5v-370h-168v371q0 28 -12 39t-45 11v-421h-167v950zM32 1070q0 112 44.5 201t130.5 140.5t205 51.5t205 -51.5t131 -141t45 -200.5v-706q0 -111 -45 -200.5t-131 -141
t-205 -51.5t-204.5 51.5t-130.5 141t-45 200.5v706zM142.5 197.5q36.5 -72.5 106 -113.5t163.5 -41q95 0 164.5 40t106 112.5t36.5 167.5v708q0 96 -36.5 168t-105.5 112t-164 40t-164.5 -41t-106 -113.5t-36.5 -165.5v-708q0 -93 36.5 -165.5zM390 805q28 0 40 19t12 64v99
q0 38 -11.5 54.5t-41.5 16.5h-5v-253h6z" />
    <glyph glyph-name="macron" unicode="&#xaf;" horiz-adv-x="426" 
d="M25 1327h376v-164h-376v164z" />
    <glyph glyph-name="degree" unicode="&#xb0;" horiz-adv-x="395" 
d="M98.5 1103.5q-44.5 24.5 -70.5 66.5t-26 93t26 93t70.5 66t98.5 24q56 0 100.5 -24t70 -66t25.5 -93t-25.5 -93t-70.5 -66.5t-100 -24.5q-54 0 -98.5 24.5zM149.5 1214q18.5 -20 47.5 -20t48 20t19 49q0 28 -19 48t-48 20t-47.5 -20t-18.5 -48q0 -29 18.5 -49z" />
    <glyph glyph-name="uni00B2" unicode="&#xb2;" horiz-adv-x="390" 
d="M16 921l147 287q27 50 39 81t12 76v31q0 35 -23 35q-22 0 -22 -34v-103h-153v98q0 78 47 122t129 44q83 0 130.5 -43t47.5 -127v-35q0 -61 -22.5 -115t-66.5 -124l-108 -199h199v-129h-356v135z" />
    <glyph glyph-name="uni00B3" unicode="&#xb3;" horiz-adv-x="387" 
d="M60 818.5q-46 41.5 -46 114.5v91h153v-94q0 -30 21 -30q23 0 23 30v117q0 41 -12 57t-46 16h-27v129h26q23 0 35.5 6t18 23t5.5 51v76q0 31 -20 31q-22 0 -22 -31v-82h-153v70q0 78 45 121.5t129 43.5q83 0 129 -41t46 -121v-71q0 -56 -22 -90.5t-71 -47.5
q51 -12 72.5 -44.5t21.5 -97.5v-108q0 -77 -45 -118.5t-131 -41.5q-84 0 -130 41.5z" />
    <glyph glyph-name="acute" unicode="&#xb4;" horiz-adv-x="318" 
d="M59 1364h234l-63 -202h-205z" />
    <glyph glyph-name="paragraph" unicode="&#xb6;" horiz-adv-x="686" 
d="M136.5 888q-58.5 38 -92 104t-33.5 150q0 83 35 150t97 104.5t139 37.5h355v-1434h-155v1282h-58v-1282h-155v847q-74 3 -132.5 41z" />
    <glyph glyph-name="periodcentered" unicode="&#xb7;" horiz-adv-x="316" 
d="M58 558q-40 40 -40 101q0 60 40 100t100 40t100 -40t40 -100q0 -61 -40 -101t-100 -40t-100 40z" />
    <glyph glyph-name="cedilla" unicode="&#xb8;" horiz-adv-x="480" 
d="M87 -290q-60 42 -62 125h161q2 -18 16.5 -28.5t36.5 -10.5q50 0 50 41q0 21 -15.5 32t-39.5 11q-33 0 -55 -14l5 160h127l-2 -58q66 -3 106 -40t40 -98q0 -86 -61 -124t-155 -38q-92 0 -152 42z" />
    <glyph glyph-name="uni00B9" unicode="&#xb9;" horiz-adv-x="263" 
d="M87 1370h-80v134h28q32 0 43.5 10.5t11.5 34.5h148v-764h-151v585z" />
    <glyph glyph-name="ordmasculine" unicode="&#xba;" horiz-adv-x="469" 
d="M81.5 709.5q-56.5 54.5 -56.5 149.5v385q0 97 56 150t153 53q98 0 154 -53t56 -150v-385q0 -96 -56.5 -150t-153.5 -54q-96 0 -152.5 54.5zM214 819.5q7 -9.5 20 -9.5q14 0 21 9t7 24v417q0 13 -7 23t-21 10q-13 0 -20 -9.5t-7 -23.5v-417q0 -14 7 -23.5z" />
    <glyph glyph-name="guillemotright" unicode="&#xbb;" horiz-adv-x="665" 
d="M20 0l119 557l-119 549h204l140 -549l-140 -557h-204zM416 557l-119 549h204l139 -549l-139 -557h-204z" />
    <glyph glyph-name="onequarter" unicode="&#xbc;" horiz-adv-x="735" 
d="M82 1270h-75v124h26q29 0 40 10t11 32h138v-710h-140v544zM467 1434h139l-422 -1434h-146zM561 156h-167v128l72 426h224v-435h37v-119h-37v-156h-129v156zM561 275v318h-2l-41 -318h43z" />
    <glyph glyph-name="onehalf" unicode="&#xbd;" horiz-adv-x="756" 
d="M82 1270h-75v124h26q29 0 40 10t11 32h138v-710h-140v544zM467 1434h139l-422 -1434h-146zM411 126l137 267q25 44 36 74t11 72v29q0 32 -21 32t-21 -31v-96h-142v91q0 73 44 113.5t120 40.5q77 0 121 -40t44 -118v-32q0 -57 -21 -107.5t-62 -115.5l-100 -185h185v-120
h-331v126z" />
    <glyph glyph-name="threequarters" unicode="&#xbe;" horiz-adv-x="841" 
d="M57.5 756.5q-42.5 38.5 -42.5 106.5v85h142v-88q0 -28 20 -28q21 0 21 28v109q0 38 -11.5 53t-42.5 15h-25v120h24q32 0 43.5 14.5t11.5 59.5v71q0 29 -19 29q-20 0 -20 -29v-76h-142v65q0 72 41.5 112.5t119.5 40.5t120.5 -38t42.5 -112v-66q0 -52 -20 -84.5t-66 -44.5
q47 -11 67 -41t20 -91v-100q0 -72 -42 -110.5t-122 -38.5q-78 0 -120.5 38.5zM573 1434h139l-422 -1434h-146zM666 156h-167v128l72 426h224v-435h37v-119h-37v-156h-129v156zM666 275v318h-2l-41 -318h43z" />
    <glyph glyph-name="questiondown" unicode="&#xbf;" horiz-adv-x="582" 
d="M445 1079q40 -40 40 -100t-40 -100t-99 -40t-98.5 40t-39.5 100t39.5 100t98.5 40t99 -40zM13 166q0 119 48 195.5t168 87.5v352h233v-525h-105q-44 0 -66 -13t-30 -40t-8 -76v-229q0 -51 38 -51t38 51v241h238v-218q0 -137 -74.5 -211t-207.5 -74q-129 0 -200.5 73
t-71.5 205v232z" />
    <glyph glyph-name="Agrave" unicode="&#xc0;" horiz-adv-x="648" 
d="M126 1434h389l137 -1434h-261l-21 347h-94l-17 -347h-255zM399 1649l37 -172h-227l-56 172h246zM359 564l-38 645h-2l-32 -645h72z" />
    <glyph glyph-name="Aacute" unicode="&#xc1;" horiz-adv-x="648" 
d="M126 1434h389l137 -1434h-261l-21 347h-94l-17 -347h-255zM239 1649h246l-56 -172h-227zM359 564l-38 645h-2l-32 -645h72z" />
    <glyph glyph-name="Acircumflex" unicode="&#xc2;" horiz-adv-x="648" 
d="M126 1434h389l137 -1434h-261l-21 347h-94l-17 -347h-255zM169 1652q83 -8 150 -8t150 8l75 -175h-184l-41 94l-41 -94h-183zM359 564l-38 645h-2l-32 -645h72z" />
    <glyph glyph-name="Atilde" unicode="&#xc3;" horiz-adv-x="648" 
d="M126 1434h389l137 -1434h-261l-21 347h-94l-17 -347h-255zM120 1601.5q37 45.5 116 45.5q28 0 55 -6t61 -16q43 -13 56 -13q27 0 27 30h125q1 -82 -36.5 -125.5t-102.5 -43.5q-25 0 -49.5 5.5t-63.5 16.5q-4 1 -28 7.5t-38 6.5q-13 0 -20.5 -8.5t-7.5 -22.5h-129
q-2 78 35 123.5zM359 564l-38 645h-2l-32 -645h72z" />
    <glyph glyph-name="Adieresis" unicode="&#xc4;" horiz-adv-x="648" 
d="M126 1434h389l137 -1434h-261l-21 347h-94l-17 -347h-255zM129 1648.5q30 29.5 74 29.5q45 0 74.5 -29.5t29.5 -75.5q0 -44 -29.5 -73.5t-74.5 -29.5q-44 0 -74 29.5t-30 73.5q0 46 30 75.5zM359 564l-38 645h-2l-32 -645h72zM365.5 1648.5q29.5 29.5 73.5 29.5
q45 0 74.5 -29.5t29.5 -75.5q0 -44 -29.5 -73.5t-74.5 -29.5q-44 0 -73.5 29.5t-29.5 73.5q0 46 29.5 75.5z" />
    <glyph glyph-name="Aring" unicode="&#xc5;" horiz-adv-x="648" 
d="M126 1434h389l137 -1434h-261l-21 347h-94l-17 -347h-255zM196 1669.5q49 31.5 123 31.5t123 -31.5t49 -86.5q0 -56 -49 -88t-123 -32t-123 32t-49 88q0 55 49 86.5zM287.5 1550q12.5 -13 31.5 -13t31.5 13t12.5 32t-12.5 32t-31.5 13t-31.5 -13t-12.5 -32t12.5 -32z
M359 564l-38 645h-2l-32 -645h72z" />
    <glyph glyph-name="AE" unicode="&#xc6;" horiz-adv-x="855" 
d="M174 1434h661v-216h-226v-367h191v-216h-191v-419h226v-216h-477v347h-88l-33 -347h-253zM358 564v684h-2l-65 -684h67z" />
    <glyph glyph-name="Ccedilla" unicode="&#xc7;" horiz-adv-x="638" 
d="M152 -290q-60 42 -62 125h161q2 -18 16.5 -28.5t36.5 -10.5q50 0 50 41q0 21 -15.5 32t-39.5 11q-33 0 -55 -14l4 124q-107 19 -162 89t-55 181v905q0 86 34.5 150.5t101 100t159.5 35.5q139 0 215.5 -76t76.5 -210v-262h-255v288q0 20 -9.5 32.5t-27.5 12.5t-27.5 -12.5
t-9.5 -32.5v-949q0 -20 9.5 -31.5t27.5 -11.5t27.5 11.5t9.5 31.5v332h255v-314q0 -115 -62.5 -187.5t-180.5 -85.5l-1 -19q66 -3 106 -40t40 -98q0 -86 -61 -124t-155 -38q-92 0 -152 42z" />
    <glyph glyph-name="Egrave" unicode="&#xc8;" horiz-adv-x="535" 
d="M37 1434h477v-216h-226v-367h191v-216h-191v-419h226v-216h-477v1434zM356 1649l37 -172h-227l-56 172h246z" />
    <glyph glyph-name="Eacute" unicode="&#xc9;" horiz-adv-x="535" 
d="M37 1434h477v-216h-226v-367h191v-216h-191v-419h226v-216h-477v1434zM196 1649h246l-56 -172h-227z" />
    <glyph glyph-name="Ecircumflex" unicode="&#xca;" horiz-adv-x="535" 
d="M37 1434h477v-216h-226v-367h191v-216h-191v-419h226v-216h-477v1434zM126 1652q83 -8 150 -8t150 8l75 -175h-184l-41 94l-41 -94h-183z" />
    <glyph glyph-name="Edieresis" unicode="&#xcb;" horiz-adv-x="535" 
d="M37 1434h477v-216h-226v-367h191v-216h-191v-419h226v-216h-477v1434zM86 1648.5q30 29.5 74 29.5q45 0 74.5 -29.5t29.5 -75.5q0 -44 -29.5 -73.5t-74.5 -29.5q-44 0 -74 29.5t-30 73.5q0 46 30 75.5zM322.5 1648.5q29.5 29.5 73.5 29.5q45 0 74.5 -29.5t29.5 -75.5
q0 -44 -29.5 -73.5t-74.5 -29.5q-44 0 -73.5 29.5t-29.5 73.5q0 46 29.5 75.5z" />
    <glyph glyph-name="Igrave" unicode="&#xcc;" horiz-adv-x="325" 
d="M37 1434h251v-1434h-251v1434zM242 1649l37 -172h-227l-56 172h246z" />
    <glyph glyph-name="Iacute" unicode="&#xcd;" horiz-adv-x="325" 
d="M37 1434h251v-1434h-251v1434zM83 1649h246l-56 -172h-227z" />
    <glyph glyph-name="Icircumflex" unicode="&#xce;" horiz-adv-x="325" 
d="M37 1434h251v-1434h-251v1434zM12 1652q83 -8 150 -8t150 8l75 -175h-184l-41 94l-41 -94h-183z" />
    <glyph glyph-name="Idieresis" unicode="&#xcf;" horiz-adv-x="325" 
d="M37 1434h251v-1434h-251v1434zM-28 1648.5q30 29.5 74 29.5q45 0 74.5 -29.5t29.5 -75.5q0 -44 -29.5 -73.5t-74.5 -29.5q-44 0 -74 29.5t-30 73.5q0 46 30 75.5zM208.5 1648.5q29.5 29.5 73.5 29.5q45 0 74.5 -29.5t29.5 -75.5q0 -44 -29.5 -73.5t-74.5 -29.5
q-44 0 -73.5 29.5t-29.5 73.5q0 46 29.5 75.5z" />
    <glyph glyph-name="Eth" unicode="&#xd0;" horiz-adv-x="667" 
d="M6 830h44v604h288q146 0 221.5 -72t75.5 -204v-880q0 -137 -78.5 -207.5t-243.5 -70.5h-263v625h-44v205zM314 219q33 0 48 15.5t15 54.5v861q0 35 -15.5 50t-47.5 15h-13v-385h48v-205h-48v-406h13z" />
    <glyph glyph-name="Ntilde" unicode="&#xd1;" horiz-adv-x="749" 
d="M37 1434h313l128 -822h2l-2 822h234v-1434h-292l-148 916h-2l1 -916h-234v1434zM175 1601.5q37 45.5 116 45.5q28 0 55 -6t61 -16q43 -13 56 -13q27 0 27 30h125q1 -82 -36.5 -125.5t-102.5 -43.5q-25 0 -49.5 5.5t-63.5 16.5q-4 1 -28 7.5t-38 6.5q-13 0 -20.5 -8.5
t-7.5 -22.5h-129q-2 78 35 123.5z" />
    <glyph glyph-name="Ograve" unicode="&#xd2;" horiz-adv-x="659" 
d="M105.5 60.5q-74.5 76.5 -74.5 221.5v870q0 90 35 157.5t102 104.5t161 37q143 0 221 -79t78 -220v-870q0 -144 -75 -221t-224 -77t-223.5 76.5zM409 1649l37 -172h-227l-56 172h246zM329 199q37 0 37 45v946q0 20 -9.5 33t-27.5 13q-19 0 -28 -12.5t-9 -33.5v-946
q0 -45 37 -45z" />
    <glyph glyph-name="Oacute" unicode="&#xd3;" horiz-adv-x="659" 
d="M105.5 60.5q-74.5 76.5 -74.5 221.5v870q0 90 35 157.5t102 104.5t161 37q143 0 221 -79t78 -220v-870q0 -144 -75 -221t-224 -77t-223.5 76.5zM250 1649h246l-56 -172h-227zM329 199q37 0 37 45v946q0 20 -9.5 33t-27.5 13q-19 0 -28 -12.5t-9 -33.5v-946q0 -45 37 -45z
" />
    <glyph glyph-name="Ocircumflex" unicode="&#xd4;" horiz-adv-x="659" 
d="M105.5 60.5q-74.5 76.5 -74.5 221.5v870q0 90 35 157.5t102 104.5t161 37q143 0 221 -79t78 -220v-870q0 -144 -75 -221t-224 -77t-223.5 76.5zM179 1652q83 -8 150 -8t150 8l75 -175h-184l-41 94l-41 -94h-183zM329 199q37 0 37 45v946q0 20 -9.5 33t-27.5 13
q-19 0 -28 -12.5t-9 -33.5v-946q0 -45 37 -45z" />
    <glyph glyph-name="Otilde" unicode="&#xd5;" horiz-adv-x="659" 
d="M105.5 60.5q-74.5 76.5 -74.5 221.5v870q0 90 35 157.5t102 104.5t161 37q143 0 221 -79t78 -220v-870q0 -144 -75 -221t-224 -77t-223.5 76.5zM131 1601.5q37 45.5 116 45.5q28 0 55 -6t61 -16q43 -13 56 -13q27 0 27 30h125q1 -82 -36.5 -125.5t-102.5 -43.5
q-25 0 -49.5 5.5t-63.5 16.5q-4 1 -28 7.5t-38 6.5q-13 0 -20.5 -8.5t-7.5 -22.5h-129q-2 78 35 123.5zM329 199q37 0 37 45v946q0 20 -9.5 33t-27.5 13q-19 0 -28 -12.5t-9 -33.5v-946q0 -45 37 -45z" />
    <glyph glyph-name="Odieresis" unicode="&#xd6;" horiz-adv-x="659" 
d="M105.5 60.5q-74.5 76.5 -74.5 221.5v870q0 90 35 157.5t102 104.5t161 37q143 0 221 -79t78 -220v-870q0 -144 -75 -221t-224 -77t-223.5 76.5zM139 1648.5q30 29.5 74 29.5q45 0 74.5 -29.5t29.5 -75.5q0 -44 -29.5 -73.5t-74.5 -29.5q-44 0 -74 29.5t-30 73.5
q0 46 30 75.5zM329 199q37 0 37 45v946q0 20 -9.5 33t-27.5 13q-19 0 -28 -12.5t-9 -33.5v-946q0 -45 37 -45zM375.5 1648.5q29.5 29.5 73.5 29.5q45 0 74.5 -29.5t29.5 -75.5q0 -44 -29.5 -73.5t-74.5 -29.5q-44 0 -73.5 29.5t-29.5 73.5q0 46 29.5 75.5z" />
    <glyph glyph-name="multiply" unicode="&#xd7;" horiz-adv-x="601" 
d="M13 496l151 156l-151 157l139 138l149 -154l148 153l139 -137l-151 -156l151 -157l-139 -138l-148 154l-149 -154z" />
    <glyph glyph-name="Oslash" unicode="&#xd8;" horiz-adv-x="659" 
d="M76 97q-45 72 -45 185v870q0 90 35 157.5t102 104.5t161 37q109 0 182 -48l20 59h91l-42 -127q48 -74 48 -183v-870q0 -144 -75 -221t-224 -77q-113 0 -184 45l-19 -56h-91zM329 199q37 0 37 45v449l-74 -222v-227q0 -45 37 -45zM366 967v223q0 20 -9.5 33t-27.5 13
q-19 0 -28 -12.5t-9 -33.5v-445z" />
    <glyph glyph-name="Ugrave" unicode="&#xd9;" horiz-adv-x="651" 
d="M108 54.5q-75 70.5 -75 195.5v1184h252v-1186q0 -20 10.5 -33t30.5 -13q19 0 29.5 13t10.5 33v1186h252v-1184q0 -125 -75 -195.5t-217 -70.5q-143 0 -218 70.5zM405 1649l37 -172h-227l-56 172h246z" />
    <glyph glyph-name="Uacute" unicode="&#xda;" horiz-adv-x="651" 
d="M108 54.5q-75 70.5 -75 195.5v1184h252v-1186q0 -20 10.5 -33t30.5 -13q19 0 29.5 13t10.5 33v1186h252v-1184q0 -125 -75 -195.5t-217 -70.5q-143 0 -218 70.5zM246 1649h246l-56 -172h-227z" />
    <glyph glyph-name="Ucircumflex" unicode="&#xdb;" horiz-adv-x="651" 
d="M108 54.5q-75 70.5 -75 195.5v1184h252v-1186q0 -20 10.5 -33t30.5 -13q19 0 29.5 13t10.5 33v1186h252v-1184q0 -125 -75 -195.5t-217 -70.5q-143 0 -218 70.5zM175 1652q83 -8 150 -8t150 8l75 -175h-184l-41 94l-41 -94h-183z" />
    <glyph glyph-name="Udieresis" unicode="&#xdc;" horiz-adv-x="651" 
d="M108 54.5q-75 70.5 -75 195.5v1184h252v-1186q0 -20 10.5 -33t30.5 -13q19 0 29.5 13t10.5 33v1186h252v-1184q0 -125 -75 -195.5t-217 -70.5q-143 0 -218 70.5zM135 1648.5q30 29.5 74 29.5q45 0 74.5 -29.5t29.5 -75.5q0 -44 -29.5 -73.5t-74.5 -29.5q-44 0 -74 29.5
t-30 73.5q0 46 30 75.5zM371.5 1648.5q29.5 29.5 73.5 29.5q45 0 74.5 -29.5t29.5 -75.5q0 -44 -29.5 -73.5t-74.5 -29.5q-44 0 -73.5 29.5t-29.5 73.5q0 46 29.5 75.5z" />
    <glyph glyph-name="Yacute.ss05" unicode="&#xdd;" horiz-adv-x="585" 
d="M166 456l-174 978h254l48 -538h2l47 538h251l-176 -977v-457h-252v456zM215 1649h246l-56 -172h-227z" />
    <glyph glyph-name="Thorn" unicode="&#xde;" horiz-adv-x="632" 
d="M37 1434h251v-256h22q106 0 173 -34.5t100.5 -114.5t33.5 -216v-144q0 -143 -35 -224.5t-101 -114t-168 -32.5h-25v-298h-251v1434zM289 501q41 0 58.5 32.5t17.5 118.5v184q0 56 -7 85.5t-22.5 41.5t-44.5 12h-3v-474h1z" />
    <glyph glyph-name="germandbls" unicode="&#xdf;" horiz-adv-x="628" 
d="M114 1380q79 71 212 71q123 0 198.5 -71t75.5 -212v-96q0 -121 -38 -185.5t-113 -87.5q78 -19 116.5 -73t38.5 -167v-249q0 -122 -36 -190t-101 -94.5t-164 -26.5v211q31 3 43.5 19.5t12.5 56.5v349q0 69 -56 66v203q30 -2 42.5 14t12.5 52v231q0 23 -10.5 37.5
t-30.5 14.5t-31 -13.5t-11 -35.5v-1204h-240v1172q0 137 79 208z" />
    <glyph glyph-name="agrave" unicode="&#xe0;" horiz-adv-x="613" 
d="M16 263v147q0 99 22.5 159t70 94t128.5 54l101 26v142q0 43 -33 43t-33 -45v-111h-240v58q0 147 75 220t207 73q122 0 193 -65.5t71 -192.5v-663q0 -65 21 -202h-232q-8 55 -10 97q-20 -51 -63.5 -82t-99.5 -31q-178 0 -178 279zM275 206.5q8 -22.5 31 -22.5
q15 0 23.5 12.5t8.5 35.5v372l-15 -8q-34 -16 -45 -44.5t-11 -94.5v-176q0 -52 8 -74.5zM213 1162l-63 202h234l34 -202h-205z" />
    <glyph glyph-name="aacute" unicode="&#xe1;" horiz-adv-x="613" 
d="M16 263v147q0 99 22.5 159t70 94t128.5 54l101 26v142q0 43 -33 43t-33 -45v-111h-240v58q0 147 75 220t207 73q122 0 193 -65.5t71 -192.5v-663q0 -65 21 -202h-232q-8 55 -10 97q-20 -51 -63.5 -82t-99.5 -31q-178 0 -178 279zM275 206.5q8 -22.5 31 -22.5
q15 0 23.5 12.5t8.5 35.5v372l-15 -8q-34 -16 -45 -44.5t-11 -94.5v-176q0 -52 8 -74.5zM234 1364h234l-63 -202h-205z" />
    <glyph glyph-name="acircumflex" unicode="&#xe2;" horiz-adv-x="613" 
d="M16 263v147q0 99 22.5 159t70 94t128.5 54l101 26v142q0 43 -33 43t-33 -45v-111h-240v58q0 147 75 220t207 73q122 0 193 -65.5t71 -192.5v-663q0 -65 21 -202h-232q-8 55 -10 97q-20 -51 -63.5 -82t-99.5 -31q-178 0 -178 279zM275 206.5q8 -22.5 31 -22.5
q15 0 23.5 12.5t8.5 35.5v372l-15 -8q-34 -16 -45 -44.5t-11 -94.5v-176q0 -52 8 -74.5zM322 1358q71 0 141 6l74 -202h-175l-41 101l-41 -101h-174l75 202q71 -6 141 -6z" />
    <glyph glyph-name="atilde" unicode="&#xe3;" horiz-adv-x="613" 
d="M16 263v147q0 99 22.5 159t70 94t128.5 54l101 26v142q0 43 -33 43t-33 -45v-111h-240v58q0 147 75 220t207 73q122 0 193 -65.5t71 -192.5v-663q0 -65 21 -202h-232q-8 55 -10 97q-20 -51 -63.5 -82t-99.5 -31q-178 0 -178 279zM275 206.5q8 -22.5 31 -22.5
q15 0 23.5 12.5t8.5 35.5v372l-15 -8q-34 -16 -45 -44.5t-11 -94.5v-176q0 -52 8 -74.5zM296 1177q-46 13 -62 13q-28 0 -28 -28h-131q-2 77 35 121.5t117 44.5q26 0 50.5 -5t57.5 -15q37 -11 51 -11q27 0 27 27h127q1 -81 -37 -123.5t-103 -42.5q-36 0 -104 19z" />
    <glyph glyph-name="adieresis" unicode="&#xe4;" horiz-adv-x="613" 
d="M16 263v147q0 99 22.5 159t70 94t128.5 54l101 26v142q0 43 -33 43t-33 -45v-111h-240v58q0 147 75 220t207 73q122 0 193 -65.5t71 -192.5v-663q0 -65 21 -202h-232q-8 55 -10 97q-20 -51 -63.5 -82t-99.5 -31q-178 0 -178 279zM275 206.5q8 -22.5 31 -22.5
q15 0 23.5 12.5t8.5 35.5v372l-15 -8q-34 -16 -45 -44.5t-11 -94.5v-176q0 -52 8 -74.5zM102.5 1185.5q-31.5 31.5 -31.5 78.5q0 49 31.5 80t78.5 31q48 0 79 -31t31 -80q0 -47 -31.5 -78.5t-78.5 -31.5t-78.5 31.5zM352.5 1344q31.5 31 78.5 31q48 0 79 -31t31 -80
q0 -47 -31.5 -78.5t-78.5 -31.5t-78.5 31.5t-31.5 78.5q0 49 31.5 80z" />
    <glyph glyph-name="aring" unicode="&#xe5;" horiz-adv-x="613" 
d="M16 263v147q0 99 22.5 159t70 94t128.5 54l101 26v142q0 43 -33 43t-33 -45v-111h-240v58q0 147 75 220t207 73q122 0 193 -65.5t71 -192.5v-663q0 -65 21 -202h-232q-8 55 -10 97q-20 -51 -63.5 -82t-99.5 -31q-178 0 -178 279zM275 206.5q8 -22.5 31 -22.5
q15 0 23.5 12.5t8.5 35.5v372l-15 -8q-34 -16 -45 -44.5t-11 -94.5v-176q0 -52 8 -74.5zM188.5 1184q-48.5 33 -48.5 90q0 56 48.5 88.5t120.5 32.5q73 0 121 -32t48 -89t-48 -90t-121 -33q-72 0 -120.5 33zM277.5 1241.5q12.5 -12.5 31.5 -12.5t31.5 12.5t12.5 31.5
t-12.5 32t-31.5 13t-31.5 -13t-12.5 -32t12.5 -31.5z" />
    <glyph glyph-name="ae" unicode="&#xe6;" horiz-adv-x="914" 
d="M67 53q-52 69 -52 207v131q0 96 23 155.5t71 93t128 51.5l101 23v174q0 43 -34 43q-33 0 -33 -43v-116h-239v73q0 137 74.5 207.5t203.5 70.5q90 0 152 -44q60 44 151 44q128 0 201 -71.5t73 -201.5v-352h-308v-274q0 -17 8.5 -28t25.5 -11t25.5 11t8.5 28v212h240v-188
q0 -126 -72.5 -195t-198.5 -69q-71 0 -124.5 23.5t-84.5 69.5q-30 -44 -76.5 -68.5t-102.5 -24.5q-109 0 -161 69zM274.5 205.5q8.5 -22.5 30.5 -22.5q15 0 24 12.5t9 36.5v343l-16 -5q-35 -12 -45.5 -40.5t-10.5 -94.5v-155q0 -52 8.5 -74.5zM647 680v204q0 18 -8.5 28.5
t-25.5 10.5t-25.5 -10.5t-8.5 -28.5v-204h68z" />
    <glyph glyph-name="ccedilla" unicode="&#xe7;" horiz-adv-x="598" 
d="M135 -290q-60 42 -62 125h161q2 -18 16.5 -28.5t36.5 -10.5q50 0 50 41q0 21 -15.5 32t-39.5 11q-33 0 -55 -14l4 124q-98 18 -151 87t-53 182v590q0 132 74 203t204 71q129 0 201 -67.5t72 -200.5v-180h-240v203q0 42 -33 42q-17 0 -25 -11t-8 -31v-651q0 -19 8 -30
t25 -11q33 0 33 41v220h240v-201q0 -114 -58.5 -179.5t-161.5 -79.5l-1 -19q66 -3 106 -40t40 -98q0 -86 -61 -124t-155 -38q-92 0 -152 42z" />
    <glyph glyph-name="egrave" unicode="&#xe8;" horiz-adv-x="603" 
d="M99.5 54q-72.5 70 -72.5 193v603q0 130 72.5 201.5t200.5 71.5q129 0 202.5 -71t73.5 -202v-352h-308v-274q0 -17 8.5 -28t25.5 -11t25.5 11t8.5 28v212h240v-188q0 -127 -73.5 -195.5t-202.5 -68.5q-128 0 -200.5 70zM336 680v204q0 18 -8.5 28.5t-25.5 10.5
t-25.5 -10.5t-8.5 -28.5v-204h68zM204 1162l-63 202h234l34 -202h-205z" />
    <glyph glyph-name="eacute" unicode="&#xe9;" horiz-adv-x="603" 
d="M99.5 54q-72.5 70 -72.5 193v603q0 130 72.5 201.5t200.5 71.5q129 0 202.5 -71t73.5 -202v-352h-308v-274q0 -17 8.5 -28t25.5 -11t25.5 11t8.5 28v212h240v-188q0 -127 -73.5 -195.5t-202.5 -68.5q-128 0 -200.5 70zM336 680v204q0 18 -8.5 28.5t-25.5 10.5
t-25.5 -10.5t-8.5 -28.5v-204h68zM226 1364h234l-63 -202h-205z" />
    <glyph glyph-name="ecircumflex" unicode="&#xea;" horiz-adv-x="603" 
d="M99.5 54q-72.5 70 -72.5 193v603q0 130 72.5 201.5t200.5 71.5q129 0 202.5 -71t73.5 -202v-352h-308v-274q0 -17 8.5 -28t25.5 -11t25.5 11t8.5 28v212h240v-188q0 -127 -73.5 -195.5t-202.5 -68.5q-128 0 -200.5 70zM336 680v204q0 18 -8.5 28.5t-25.5 10.5
t-25.5 -10.5t-8.5 -28.5v-204h68zM313 1358q71 0 141 6l74 -202h-175l-41 101l-41 -101h-174l75 202q71 -6 141 -6z" />
    <glyph glyph-name="edieresis" unicode="&#xeb;" horiz-adv-x="603" 
d="M99.5 54q-72.5 70 -72.5 193v603q0 130 72.5 201.5t200.5 71.5q129 0 202.5 -71t73.5 -202v-352h-308v-274q0 -17 8.5 -28t25.5 -11t25.5 11t8.5 28v212h240v-188q0 -127 -73.5 -195.5t-202.5 -68.5q-128 0 -200.5 70zM336 680v204q0 18 -8.5 28.5t-25.5 10.5
t-25.5 -10.5t-8.5 -28.5v-204h68zM93.5 1185.5q-31.5 31.5 -31.5 78.5q0 49 31.5 80t78.5 31q48 0 79 -31t31 -80q0 -47 -31.5 -78.5t-78.5 -31.5t-78.5 31.5zM343.5 1344q31.5 31 78.5 31q48 0 79 -31t31 -80q0 -47 -31.5 -78.5t-78.5 -31.5t-78.5 31.5t-31.5 78.5
q0 49 31.5 80z" />
    <glyph glyph-name="igrave" unicode="&#xec;" horiz-adv-x="310" 
d="M35 1106h240v-1106h-240v1106zM59 1162l-63 202h234l34 -202h-205z" />
    <glyph glyph-name="iacute" unicode="&#xed;" horiz-adv-x="310" 
d="M35 1106h240v-1106h-240v1106zM80 1364h234l-63 -202h-205z" />
    <glyph glyph-name="icircumflex" unicode="&#xee;" horiz-adv-x="310" 
d="M35 1106h240v-1106h-240v1106zM168 1358q71 0 141 6l74 -202h-175l-41 101l-41 -101h-174l75 202q71 -6 141 -6z" />
    <glyph glyph-name="idieresis" unicode="&#xef;" horiz-adv-x="310" 
d="M35 1106h240v-1106h-240v1106zM-52.5 1185.5q-31.5 31.5 -31.5 78.5q0 49 31.5 80t78.5 31q48 0 79 -31t31 -80q0 -47 -31.5 -78.5t-78.5 -31.5t-78.5 31.5zM197.5 1344q31.5 31 78.5 31q48 0 79 -31t31 -80q0 -47 -31.5 -78.5t-78.5 -31.5t-78.5 31.5t-31.5 78.5
q0 49 31.5 80z" />
    <glyph glyph-name="eth" unicode="&#xf0;" horiz-adv-x="612" 
d="M103 56.5q-75 72.5 -75 200.5v592q0 128 67 197t183 69q27 0 49 -6l-66 101l-147 -58v120l84 33l-100 152h231l49 -81l143 56v-120l-85 -34l40 -67q39 -58 61.5 -105.5t34 -107.5t11.5 -144v-597q0 -128 -74.5 -200.5t-202.5 -72.5t-203 72.5zM281 199q9 -12 25 -12
t24.5 12t8.5 30v649q0 17 -8.5 29t-24.5 12q-17 0 -25.5 -11.5t-8.5 -29.5v-649q0 -18 9 -30z" />
    <glyph glyph-name="ntilde" unicode="&#xf1;" horiz-adv-x="611" 
d="M35 1106h231v-103q23 56 66.5 88t99.5 32q70 0 108 -48.5t38 -138.5v-936h-240v884q0 17 -8.5 25.5t-21.5 8.5q-15 0 -24 -10t-9 -28v-880h-240v1106zM290 1177q-46 13 -62 13q-28 0 -28 -28h-131q-2 77 35 121.5t117 44.5q26 0 50.5 -5t57.5 -15q37 -11 51 -11
q27 0 27 27h127q1 -81 -37 -123.5t-103 -42.5q-36 0 -104 19z" />
    <glyph glyph-name="ograve" unicode="&#xf2;" horiz-adv-x="610" 
d="M102 56.5q-75 72.5 -75 200.5v592q0 131 74.5 202.5t203.5 71.5q130 0 203.5 -71.5t73.5 -202.5v-592q0 -128 -74 -200.5t-203 -72.5q-128 0 -203 72.5zM280.5 199q8.5 -12 24.5 -12q17 0 25 11.5t8 30.5v649q0 17 -8 29t-25 12q-16 0 -24.5 -11.5t-8.5 -29.5v-649
q0 -18 8.5 -30zM209 1162l-63 202h234l34 -202h-205z" />
    <glyph glyph-name="oacute" unicode="&#xf3;" horiz-adv-x="610" 
d="M102 56.5q-75 72.5 -75 200.5v592q0 131 74.5 202.5t203.5 71.5q130 0 203.5 -71.5t73.5 -202.5v-592q0 -128 -74 -200.5t-203 -72.5q-128 0 -203 72.5zM280.5 199q8.5 -12 24.5 -12q17 0 25 11.5t8 30.5v649q0 17 -8 29t-25 12q-16 0 -24.5 -11.5t-8.5 -29.5v-649
q0 -18 8.5 -30zM230 1364h234l-63 -202h-205z" />
    <glyph glyph-name="ocircumflex" unicode="&#xf4;" horiz-adv-x="610" 
d="M102 56.5q-75 72.5 -75 200.5v592q0 131 74.5 202.5t203.5 71.5q130 0 203.5 -71.5t73.5 -202.5v-592q0 -128 -74 -200.5t-203 -72.5q-128 0 -203 72.5zM280.5 199q8.5 -12 24.5 -12q17 0 25 11.5t8 30.5v649q0 17 -8 29t-25 12q-16 0 -24.5 -11.5t-8.5 -29.5v-649
q0 -18 8.5 -30zM318 1358q71 0 141 6l74 -202h-175l-41 101l-41 -101h-174l75 202q71 -6 141 -6z" />
    <glyph glyph-name="otilde" unicode="&#xf5;" horiz-adv-x="610" 
d="M102 56.5q-75 72.5 -75 200.5v592q0 131 74.5 202.5t203.5 71.5q130 0 203.5 -71.5t73.5 -202.5v-592q0 -128 -74 -200.5t-203 -72.5q-128 0 -203 72.5zM280.5 199q8.5 -12 24.5 -12q17 0 25 11.5t8 30.5v649q0 17 -8 29t-25 12q-16 0 -24.5 -11.5t-8.5 -29.5v-649
q0 -18 8.5 -30zM292 1177q-46 13 -62 13q-28 0 -28 -28h-131q-2 77 35 121.5t117 44.5q26 0 50.5 -5t57.5 -15q37 -11 51 -11q27 0 27 27h127q1 -81 -37 -123.5t-103 -42.5q-36 0 -104 19z" />
    <glyph glyph-name="odieresis" unicode="&#xf6;" horiz-adv-x="610" 
d="M102 56.5q-75 72.5 -75 200.5v592q0 131 74.5 202.5t203.5 71.5q130 0 203.5 -71.5t73.5 -202.5v-592q0 -128 -74 -200.5t-203 -72.5q-128 0 -203 72.5zM280.5 199q8.5 -12 24.5 -12q17 0 25 11.5t8 30.5v649q0 17 -8 29t-25 12q-16 0 -24.5 -11.5t-8.5 -29.5v-649
q0 -18 8.5 -30zM97.5 1185.5q-31.5 31.5 -31.5 78.5q0 49 31.5 80t78.5 31q48 0 79 -31t31 -80q0 -47 -31.5 -78.5t-78.5 -31.5t-78.5 31.5zM347.5 1344q31.5 31 78.5 31q48 0 79 -31t31 -80q0 -47 -31.5 -78.5t-78.5 -31.5t-78.5 31.5t-31.5 78.5q0 49 31.5 80z" />
    <glyph glyph-name="divide" unicode="&#xf7;" horiz-adv-x="519" 
d="M9 749h501v-188h-501v188zM185 512q30 30 75 30q44 0 74 -30t30 -74q0 -45 -30 -75t-74 -30q-45 0 -75 30t-30 75q0 44 30 74zM185 948q30 30 75 30q44 0 74 -30t30 -74q0 -45 -29.5 -75t-74.5 -30t-75 29.5t-30 75.5q0 44 30 74z" />
    <glyph glyph-name="oslash" unicode="&#xf8;" horiz-adv-x="610" 
d="M80 81q-53 70 -53 176v592q0 131 74.5 202.5t203.5 71.5q96 0 160 -39l19 49h88l-41 -107q51 -70 51 -177v-592q0 -128 -74 -200.5t-203 -72.5q-94 0 -159 39l-19 -50h-88zM280.5 199q8.5 -12 24.5 -12q17 0 25 11.5t8 30.5v294l-66 -172v-122q0 -18 8.5 -30zM338 752
v126q0 17 -8 29t-25 12q-16 0 -24.5 -11.5t-8.5 -29.5v-298z" />
    <glyph glyph-name="ugrave" unicode="&#xf9;" horiz-adv-x="610" 
d="M73 31q-40 47 -40 139v936h239v-880q0 -20 8.5 -29t22.5 -9q13 0 22.5 10.5t9.5 32.5v875h240v-1106h-227v110q-22 -59 -63 -92.5t-96 -33.5q-76 0 -116 47zM208 1162l-63 202h234l34 -202h-205z" />
    <glyph glyph-name="uacute" unicode="&#xfa;" horiz-adv-x="610" 
d="M73 31q-40 47 -40 139v936h239v-880q0 -20 8.5 -29t22.5 -9q13 0 22.5 10.5t9.5 32.5v875h240v-1106h-227v110q-22 -59 -63 -92.5t-96 -33.5q-76 0 -116 47zM229 1364h234l-63 -202h-205z" />
    <glyph glyph-name="ucircumflex" unicode="&#xfb;" horiz-adv-x="610" 
d="M73 31q-40 47 -40 139v936h239v-880q0 -20 8.5 -29t22.5 -9q13 0 22.5 10.5t9.5 32.5v875h240v-1106h-227v110q-22 -59 -63 -92.5t-96 -33.5q-76 0 -116 47zM317 1358q71 0 141 6l74 -202h-175l-41 101l-41 -101h-174l75 202q71 -6 141 -6z" />
    <glyph glyph-name="udieresis" unicode="&#xfc;" horiz-adv-x="610" 
d="M73 31q-40 47 -40 139v936h239v-880q0 -20 8.5 -29t22.5 -9q13 0 22.5 10.5t9.5 32.5v875h240v-1106h-227v110q-22 -59 -63 -92.5t-96 -33.5q-76 0 -116 47zM97.5 1185.5q-31.5 31.5 -31.5 78.5q0 49 31.5 80t78.5 31q48 0 79 -31t31 -80q0 -47 -31.5 -78.5t-78.5 -31.5
t-78.5 31.5zM347.5 1344q31.5 31 78.5 31q48 0 79 -31t31 -80q0 -47 -31.5 -78.5t-78.5 -31.5t-78.5 31.5t-31.5 78.5q0 49 31.5 80z" />
    <glyph glyph-name="yacute.ss05" unicode="&#xfd;" horiz-adv-x="566" 
d="M163 -18l-165 1124h239l44 -631h2l57 631h232l-218 -1406h-240zM216 1364h234l-63 -202h-205z" />
    <glyph glyph-name="thorn" unicode="&#xfe;" 
d="M334 12q-40 28 -59 74v-386h-240v1734h240v-415q22 48 63.5 76t93.5 28q70 0 112.5 -49t42.5 -148v-733q0 -107 -42 -158t-117 -51q-54 0 -94 28zM283 191.5q8 -11.5 25 -11.5q16 0 24.5 12t8.5 30v662q0 18 -8.5 29.5t-24.5 11.5t-24.5 -11.5t-8.5 -29.5v-662
q0 -19 8 -30.5z" />
    <glyph glyph-name="ydieresis.ss05" unicode="&#xff;" horiz-adv-x="566" 
d="M163 -18l-165 1124h239l44 -631h2l57 631h232l-218 -1406h-240zM83.5 1185.5q-31.5 31.5 -31.5 78.5q0 49 31.5 80t78.5 31q48 0 79 -31t31 -80q0 -47 -31.5 -78.5t-78.5 -31.5t-78.5 31.5zM333.5 1344q31.5 31 78.5 31q48 0 79 -31t31 -80q0 -47 -31.5 -78.5
t-78.5 -31.5t-78.5 31.5t-31.5 78.5q0 49 31.5 80z" />
    <glyph glyph-name="Amacron" unicode="&#x100;" horiz-adv-x="648" 
d="M126 1434h389l137 -1434h-261l-21 347h-94l-17 -347h-255zM124 1643h391v-159h-391v159zM359 564l-38 645h-2l-32 -645h72z" />
    <glyph glyph-name="amacron" unicode="&#x101;" horiz-adv-x="613" 
d="M16 263v147q0 99 22.5 159t70 94t128.5 54l101 26v142q0 43 -33 43t-33 -45v-111h-240v58q0 147 75 220t207 73q122 0 193 -65.5t71 -192.5v-663q0 -65 21 -202h-232q-8 55 -10 97q-20 -51 -63.5 -82t-99.5 -31q-178 0 -178 279zM275 206.5q8 -22.5 31 -22.5
q15 0 23.5 12.5t8.5 35.5v372l-15 -8q-34 -16 -45 -44.5t-11 -94.5v-176q0 -52 8 -74.5zM121 1327h376v-164h-376v164z" />
    <glyph glyph-name="Abreve" unicode="&#x102;" horiz-adv-x="648" 
d="M126 1434h389l137 -1434h-261l-21 347h-94l-17 -347h-255zM265 1633q2 -23 15.5 -38t38.5 -15q24 0 38 15.5t17 37.5h151q-4 -75 -56.5 -120t-149.5 -45t-149 45t-56 120h151zM359 564l-38 645h-2l-32 -645h72z" />
    <glyph glyph-name="abreve" unicode="&#x103;" horiz-adv-x="613" 
d="M16 263v147q0 99 22.5 159t70 94t128.5 54l101 26v142q0 43 -33 43t-33 -45v-111h-240v58q0 147 75 220t207 73q122 0 193 -65.5t71 -192.5v-663q0 -65 21 -202h-232q-8 55 -10 97q-20 -51 -63.5 -82t-99.5 -31q-178 0 -178 279zM275 206.5q8 -22.5 31 -22.5
q15 0 23.5 12.5t8.5 35.5v372l-15 -8q-34 -16 -45 -44.5t-11 -94.5v-176q0 -52 8 -74.5zM163 1203q-53 50 -54 142h142q2 -31 16.5 -51t42.5 -20q27 0 42 20.5t17 50.5h142q-1 -92 -54 -142t-147 -50t-147 50z" />
    <glyph glyph-name="Aogonek" unicode="&#x104;" horiz-adv-x="648" 
d="M126 1434h389l137 -1434q-46 -17 -69.5 -47.5t-23.5 -62.5q0 -26 16 -41.5t48 -15.5q14 0 29 3v-146q-34 -12 -80 -12q-83 0 -129 41t-46 107q0 56 30 101t82 73h-118l-21 347h-94l-17 -347h-255zM359 564l-38 645h-2l-32 -645h72z" />
    <glyph glyph-name="aogonek" unicode="&#x105;" horiz-adv-x="613" 
d="M16 263v147q0 99 22.5 159t70 94t128.5 54l101 26v142q0 43 -33 43t-33 -45v-111h-240v58q0 147 75 220t207 73q122 0 193 -65.5t71 -192.5v-663q0 -65 21 -202q-46 -17 -69.5 -47.5t-23.5 -62.5q0 -26 16 -41.5t48 -15.5q14 0 29 3v-146q-34 -12 -80 -12q-83 0 -129 41
t-46 107q0 56 30 101t82 73h-89q-8 55 -10 97q-20 -51 -63.5 -82t-99.5 -31q-178 0 -178 279zM275 206.5q8 -22.5 31 -22.5q15 0 23.5 12.5t8.5 35.5v372l-15 -8q-34 -16 -45 -44.5t-11 -94.5v-176q0 -52 8 -74.5z" />
    <glyph glyph-name="Cacute" unicode="&#x106;" horiz-adv-x="638" 
d="M106 57q-75 73 -75 203v905q0 86 34.5 150.5t101 100t159.5 35.5q139 0 215.5 -76t76.5 -210v-262h-255v288q0 20 -9.5 32.5t-27.5 12.5t-27.5 -12.5t-9.5 -32.5v-949q0 -20 9.5 -31.5t27.5 -11.5t27.5 11.5t9.5 31.5v332h255v-314q0 -128 -76.5 -202t-218.5 -74t-217 73
zM242 1649h246l-56 -172h-227z" />
    <glyph glyph-name="cacute" unicode="&#x107;" horiz-adv-x="598" 
d="M99.5 55.5q-72.5 71.5 -72.5 203.5v590q0 132 74 203t204 71q129 0 201 -67.5t72 -200.5v-180h-240v203q0 42 -33 42q-17 0 -25 -11t-8 -31v-651q0 -19 8 -30t25 -11q33 0 33 41v220h240v-201q0 -129 -74 -195.5t-201 -66.5q-131 0 -203.5 71.5zM229 1364h234l-63 -202
h-205z" />
    <glyph glyph-name="Ccircumflex" unicode="&#x108;" horiz-adv-x="638" 
d="M106 57q-75 73 -75 203v905q0 86 34.5 150.5t101 100t159.5 35.5q139 0 215.5 -76t76.5 -210v-262h-255v288q0 20 -9.5 32.5t-27.5 12.5t-27.5 -12.5t-9.5 -32.5v-949q0 -20 9.5 -31.5t27.5 -11.5t27.5 11.5t9.5 31.5v332h255v-314q0 -128 -76.5 -202t-218.5 -74t-217 73
zM171 1652q83 -8 150 -8t150 8l75 -175h-184l-41 94l-41 -94h-183z" />
    <glyph glyph-name="ccircumflex" unicode="&#x109;" horiz-adv-x="598" 
d="M99.5 55.5q-72.5 71.5 -72.5 203.5v590q0 132 74 203t204 71q129 0 201 -67.5t72 -200.5v-180h-240v203q0 42 -33 42q-17 0 -25 -11t-8 -31v-651q0 -19 8 -30t25 -11q33 0 33 41v220h240v-201q0 -129 -74 -195.5t-201 -66.5q-131 0 -203.5 71.5zM316 1358q71 0 141 6
l74 -202h-175l-41 101l-41 -101h-174l75 202q71 -6 141 -6z" />
    <glyph glyph-name="Cdotaccent" unicode="&#x10a;" horiz-adv-x="638" 
d="M106 57q-75 73 -75 203v905q0 86 34.5 150.5t101 100t159.5 35.5q139 0 215.5 -76t76.5 -210v-262h-255v288q0 20 -9.5 32.5t-27.5 12.5t-27.5 -12.5t-9.5 -32.5v-949q0 -20 9.5 -31.5t27.5 -11.5t27.5 11.5t9.5 31.5v332h255v-314q0 -128 -76.5 -202t-218.5 -74t-217 73
zM232.5 1687q36.5 36 90.5 36q56 0 91.5 -36t35.5 -92q0 -54 -36 -90.5t-91 -36.5q-54 0 -90.5 36.5t-36.5 90.5q0 56 36.5 92z" />
    <glyph glyph-name="cdotaccent" unicode="&#x10b;" horiz-adv-x="598" 
d="M99.5 55.5q-72.5 71.5 -72.5 203.5v590q0 132 74 203t204 71q129 0 201 -67.5t72 -200.5v-180h-240v203q0 42 -33 42q-17 0 -25 -11t-8 -31v-651q0 -19 8 -30t25 -11q33 0 33 41v220h240v-201q0 -129 -74 -195.5t-201 -66.5q-131 0 -203.5 71.5zM209 1178q-38 38 -38 95
q0 58 38 96t95 38q58 0 95.5 -38t37.5 -96q0 -57 -37.5 -95t-95.5 -38q-57 0 -95 38z" />
    <glyph glyph-name="Ccaron" unicode="&#x10c;" horiz-adv-x="638" 
d="M106 57q-75 73 -75 203v905q0 86 34.5 150.5t101 100t159.5 35.5q139 0 215.5 -76t76.5 -210v-262h-255v288q0 20 -9.5 32.5t-27.5 12.5t-27.5 -12.5t-9.5 -32.5v-949q0 -20 9.5 -31.5t27.5 -11.5t27.5 11.5t9.5 31.5v332h255v-314q0 -128 -76.5 -202t-218.5 -74t-217 73
zM281 1649l41 -94l41 94h183l-74 -175q-69 8 -150 8t-150 -8l-75 175h184z" />
    <glyph glyph-name="ccaron" unicode="&#x10d;" horiz-adv-x="598" 
d="M99.5 55.5q-72.5 71.5 -72.5 203.5v590q0 132 74 203t204 71q129 0 201 -67.5t72 -200.5v-180h-240v203q0 42 -33 42q-17 0 -25 -11t-8 -31v-651q0 -19 8 -30t25 -11q33 0 33 41v220h240v-201q0 -129 -74 -195.5t-201 -66.5q-131 0 -203.5 71.5zM88 1360h174l41 -101
l41 101h175l-74 -202q-70 6 -141 6q-70 0 -141 -6z" />
    <glyph glyph-name="Dcaron" unicode="&#x10e;" horiz-adv-x="653" 
d="M37 1434h288q146 0 221.5 -72t75.5 -204v-880q0 -137 -78.5 -207.5t-243.5 -70.5h-263v1434zM253 1649l41 -94l41 94h183l-74 -175q-69 8 -150 8t-150 -8l-75 175h184zM301 219q33 0 48 15.5t15 54.5v861q0 35 -15.5 50t-47.5 15h-13v-996h13z" />
    <glyph glyph-name="dcaron" unicode="&#x10f;" horiz-adv-x="639" 
d="M75 32q-44 48 -44 147v733q0 107 42.5 159t119.5 52q53 0 91.5 -29.5t58.5 -77.5v418h240v-1434h-240v86q-20 -50 -58.5 -76t-92.5 -26q-73 0 -117 48zM285.5 192q8.5 -12 24.5 -12t24.5 12t8.5 30v662q0 18 -8 29.5t-25 11.5q-16 0 -24.5 -11.5t-8.5 -29.5v-662
q0 -18 8.5 -30zM640 1434h206l-82 -257h-164z" />
    <glyph glyph-name="Dcroat" unicode="&#x110;" horiz-adv-x="667" 
d="M6 830h44v604h288q146 0 221.5 -72t75.5 -204v-880q0 -137 -78.5 -207.5t-243.5 -70.5h-263v625h-44v205zM314 219q33 0 48 15.5t15 54.5v861q0 35 -15.5 50t-47.5 15h-13v-385h48v-205h-48v-406h13z" />
    <glyph glyph-name="dcroat" unicode="&#x111;" 
d="M218 1317h125v117h240v-117h44v-137h-44v-1180h-240v86q-20 -50 -58.5 -76t-92.5 -26q-73 0 -117 48t-44 147v733q0 107 42.5 159t119.5 52q53 0 91.5 -29.5t58.5 -77.5v164h-125v137zM285.5 192q8.5 -12 24.5 -12t24.5 12t8.5 30v662q0 18 -8 29.5t-25 11.5
q-16 0 -24.5 -11.5t-8.5 -29.5v-662q0 -18 8.5 -30z" />
    <glyph glyph-name="Emacron" unicode="&#x112;" horiz-adv-x="535" 
d="M37 1434h477v-216h-226v-367h191v-216h-191v-419h226v-216h-477v1434zM86 1643h381v-159h-381v159z" />
    <glyph glyph-name="emacron" unicode="&#x113;" horiz-adv-x="603" 
d="M99.5 54q-72.5 70 -72.5 193v603q0 130 72.5 201.5t200.5 71.5q129 0 202.5 -71t73.5 -202v-352h-308v-274q0 -17 8.5 -28t25.5 -11t25.5 11t8.5 28v212h240v-188q0 -127 -73.5 -195.5t-202.5 -68.5q-128 0 -200.5 70zM336 680v204q0 18 -8.5 28.5t-25.5 10.5
t-25.5 -10.5t-8.5 -28.5v-204h68zM113 1327h376v-164h-376v164z" />
    <glyph glyph-name="Ebreve" unicode="&#x114;" horiz-adv-x="535" 
d="M37 1434h477v-216h-226v-367h191v-216h-191v-419h226v-216h-477v1434zM222 1633q2 -23 15.5 -38t38.5 -15q24 0 38 15.5t17 37.5h151q-4 -75 -56.5 -120t-149.5 -45t-149 45t-56 120h151z" />
    <glyph glyph-name="ebreve" unicode="&#x115;" horiz-adv-x="603" 
d="M99.5 54q-72.5 70 -72.5 193v603q0 130 72.5 201.5t200.5 71.5q129 0 202.5 -71t73.5 -202v-352h-308v-274q0 -17 8.5 -28t25.5 -11t25.5 11t8.5 28v212h240v-188q0 -127 -73.5 -195.5t-202.5 -68.5q-128 0 -200.5 70zM336 680v204q0 18 -8.5 28.5t-25.5 10.5
t-25.5 -10.5t-8.5 -28.5v-204h68zM154 1203q-53 50 -54 142h142q2 -31 16.5 -51t42.5 -20q27 0 42 20.5t17 50.5h142q-1 -92 -54 -142t-147 -50t-147 50z" />
    <glyph glyph-name="Edotaccent" unicode="&#x116;" horiz-adv-x="535" 
d="M37 1434h477v-216h-226v-367h191v-216h-191v-419h226v-216h-477v1434zM186.5 1687q36.5 36 90.5 36q56 0 91.5 -36t35.5 -92q0 -54 -36 -90.5t-91 -36.5q-54 0 -90.5 36.5t-36.5 90.5q0 56 36.5 92z" />
    <glyph glyph-name="edotaccent" unicode="&#x117;" horiz-adv-x="603" 
d="M99.5 54q-72.5 70 -72.5 193v603q0 130 72.5 201.5t200.5 71.5q129 0 202.5 -71t73.5 -202v-352h-308v-274q0 -17 8.5 -28t25.5 -11t25.5 11t8.5 28v212h240v-188q0 -127 -73.5 -195.5t-202.5 -68.5q-128 0 -200.5 70zM336 680v204q0 18 -8.5 28.5t-25.5 10.5
t-25.5 -10.5t-8.5 -28.5v-204h68zM206 1178q-38 38 -38 95q0 58 38 96t95 38q58 0 95.5 -38t37.5 -96q0 -57 -37.5 -95t-95.5 -38q-57 0 -95 38z" />
    <glyph glyph-name="Eogonek" unicode="&#x118;" horiz-adv-x="535" 
d="M37 1434h477v-216h-226v-367h191v-216h-191v-419h226v-216q-46 -17 -69.5 -47.5t-23.5 -62.5q0 -26 16 -41.5t48 -15.5q14 0 29 3v-146q-34 -12 -80 -12q-83 0 -129 41t-46 107q0 56 30 101t82 73h-334v1434z" />
    <glyph glyph-name="eogonek" unicode="&#x119;" horiz-adv-x="603" 
d="M337 -319q-83 0 -129 41t-46 107q0 49 22.5 89.5t63.5 68.5q-105 14 -163 82t-58 178v603q0 130 72.5 201.5t200.5 71.5q129 0 202.5 -71t73.5 -202v-352h-308v-274q0 -17 8.5 -28t25.5 -11t25.5 11t8.5 28v212h240v-188q0 -98 -44.5 -162t-126.5 -88
q-40 -18 -60.5 -46.5t-20.5 -58.5q0 -26 16 -41.5t48 -15.5q14 0 29 3v-146q-34 -12 -80 -12zM336 680v204q0 18 -8.5 28.5t-25.5 10.5t-25.5 -10.5t-8.5 -28.5v-204h68z" />
    <glyph glyph-name="Ecaron" unicode="&#x11a;" horiz-adv-x="535" 
d="M37 1434h477v-216h-226v-367h191v-216h-191v-419h226v-216h-477v1434zM236 1649l41 -94l41 94h183l-74 -175q-69 8 -150 8t-150 -8l-75 175h184z" />
    <glyph glyph-name="ecaron" unicode="&#x11b;" horiz-adv-x="603" 
d="M99.5 54q-72.5 70 -72.5 193v603q0 130 72.5 201.5t200.5 71.5q129 0 202.5 -71t73.5 -202v-352h-308v-274q0 -17 8.5 -28t25.5 -11t25.5 11t8.5 28v212h240v-188q0 -127 -73.5 -195.5t-202.5 -68.5q-128 0 -200.5 70zM336 680v204q0 18 -8.5 28.5t-25.5 10.5
t-25.5 -10.5t-8.5 -28.5v-204h68zM85 1360h174l41 -101l41 101h175l-74 -202q-70 6 -141 6q-70 0 -141 -6z" />
    <glyph glyph-name="Gcircumflex" unicode="&#x11c;" horiz-adv-x="663" 
d="M113 55.5q-82 71.5 -82 209.5v897q0 87 36 152.5t104.5 101t163.5 35.5q92 0 158 -34.5t101 -98t35 -147.5v-218h-258v233q0 23 -10 36.5t-30 13.5t-30 -13.5t-10 -36.5v-919q0 -64 63 -64q22 0 38 9v348h-68v211h308v-714q-45 -31 -121.5 -52t-155.5 -21
q-160 0 -242 71.5zM180 1652q83 -8 150 -8t150 8l75 -175h-184l-41 94l-41 -94h-183z" />
    <glyph glyph-name="gcircumflex" unicode="&#x11d;" horiz-adv-x="619" 
d="M104 -247.5q-71 65.5 -71 191.5v59h240v-75q0 -48 36 -48q17 0 26 13t9 35v227q-44 -110 -157 -110q-66 0 -111.5 46t-45.5 143v684q0 104 42.5 154.5t115.5 50.5q61 0 99 -33.5t57 -88.5v105h240v-1161q0 -121 -74 -189.5t-201 -68.5q-134 0 -205 65.5zM283.5 258
q8.5 -12 25.5 -12t26 12.5t9 31.5v587q0 19 -9 31t-26 12t-25.5 -11.5t-8.5 -31.5v-587q0 -20 8.5 -32zM325 1358q71 0 141 6l74 -202h-175l-41 101l-41 -101h-174l75 202q71 -6 141 -6z" />
    <glyph glyph-name="Gbreve" unicode="&#x11e;" horiz-adv-x="663" 
d="M113 55.5q-82 71.5 -82 209.5v897q0 87 36 152.5t104.5 101t163.5 35.5q92 0 158 -34.5t101 -98t35 -147.5v-218h-258v233q0 23 -10 36.5t-30 13.5t-30 -13.5t-10 -36.5v-919q0 -64 63 -64q22 0 38 9v348h-68v211h308v-714q-45 -31 -121.5 -52t-155.5 -21
q-160 0 -242 71.5zM276 1633q2 -23 15.5 -38t38.5 -15q24 0 38 15.5t17 37.5h151q-4 -75 -56.5 -120t-149.5 -45t-149 45t-56 120h151z" />
    <glyph glyph-name="gbreve" unicode="&#x11f;" horiz-adv-x="619" 
d="M104 -247.5q-71 65.5 -71 191.5v59h240v-75q0 -48 36 -48q17 0 26 13t9 35v227q-44 -110 -157 -110q-66 0 -111.5 46t-45.5 143v684q0 104 42.5 154.5t115.5 50.5q61 0 99 -33.5t57 -88.5v105h240v-1161q0 -121 -74 -189.5t-201 -68.5q-134 0 -205 65.5zM283.5 258
q8.5 -12 25.5 -12t26 12.5t9 31.5v587q0 19 -9 31t-26 12t-25.5 -11.5t-8.5 -31.5v-587q0 -20 8.5 -32zM165 1203q-53 50 -54 142h142q2 -31 16.5 -51t42.5 -20q27 0 42 20.5t17 50.5h142q-1 -92 -54 -142t-147 -50t-147 50z" />
    <glyph glyph-name="Gdotaccent" unicode="&#x120;" horiz-adv-x="663" 
d="M113 55.5q-82 71.5 -82 209.5v897q0 87 36 152.5t104.5 101t163.5 35.5q92 0 158 -34.5t101 -98t35 -147.5v-218h-258v233q0 23 -10 36.5t-30 13.5t-30 -13.5t-10 -36.5v-919q0 -64 63 -64q22 0 38 9v348h-68v211h308v-714q-45 -31 -121.5 -52t-155.5 -21
q-160 0 -242 71.5zM240.5 1687q36.5 36 90.5 36q56 0 91.5 -36t35.5 -92q0 -54 -36 -90.5t-91 -36.5q-54 0 -90.5 36.5t-36.5 90.5q0 56 36.5 92z" />
    <glyph glyph-name="gdotaccent" unicode="&#x121;" horiz-adv-x="619" 
d="M104 -247.5q-71 65.5 -71 191.5v59h240v-75q0 -48 36 -48q17 0 26 13t9 35v227q-44 -110 -157 -110q-66 0 -111.5 46t-45.5 143v684q0 104 42.5 154.5t115.5 50.5q61 0 99 -33.5t57 -88.5v105h240v-1161q0 -121 -74 -189.5t-201 -68.5q-134 0 -205 65.5zM283.5 258
q8.5 -12 25.5 -12t26 12.5t9 31.5v587q0 19 -9 31t-26 12t-25.5 -11.5t-8.5 -31.5v-587q0 -20 8.5 -32zM217 1178q-38 38 -38 95q0 58 38 96t95 38q58 0 95.5 -38t37.5 -96q0 -57 -37.5 -95t-95.5 -38q-57 0 -95 38z" />
    <glyph glyph-name="uni0122" unicode="&#x122;" horiz-adv-x="663" 
d="M113 55.5q-82 71.5 -82 209.5v897q0 87 36 152.5t104.5 101t163.5 35.5q92 0 158 -34.5t101 -98t35 -147.5v-218h-258v233q0 23 -10 36.5t-30 13.5t-30 -13.5t-10 -36.5v-919q0 -64 63 -64q22 0 38 9v348h-68v211h308v-714q-45 -31 -121.5 -52t-155.5 -21
q-160 0 -242 71.5zM234 -59h207l-83 -256h-163z" />
    <glyph glyph-name="uni0123" unicode="&#x123;" horiz-adv-x="619" 
d="M104 -247.5q-71 65.5 -71 191.5v59h240v-75q0 -48 36 -48q17 0 26 13t9 35v227q-44 -110 -157 -110q-66 0 -111.5 46t-45.5 143v684q0 104 42.5 154.5t115.5 50.5q61 0 99 -33.5t57 -88.5v105h240v-1161q0 -121 -74 -189.5t-201 -68.5q-134 0 -205 65.5zM291 1418h163
l-39 -256h-207zM283.5 258q8.5 -12 25.5 -12t26 12.5t9 31.5v587q0 19 -9 31t-26 12t-25.5 -11.5t-8.5 -31.5v-587q0 -20 8.5 -32z" />
    <glyph glyph-name="Hcircumflex" unicode="&#x124;" horiz-adv-x="658" 
d="M37 1434h251v-577h82v577h250v-1434h-250v637h-82v-637h-251v1434zM179 1652q83 -8 150 -8t150 8l75 -175h-184l-41 94l-41 -94h-183z" />
    <glyph glyph-name="hcircumflex" unicode="&#x125;" horiz-adv-x="611" 
d="M35 1434h240v-412q24 48 65 74.5t92 26.5q70 0 108 -48.5t38 -138.5v-936h-240v884q0 17 -8.5 25.5t-21.5 8.5q-15 0 -24 -10t-9 -28v-880h-240v1434zM150 1652q83 -8 150 -8t150 8l75 -175h-184l-41 94l-41 -94h-183z" />
    <glyph glyph-name="Hbar" unicode="&#x126;" horiz-adv-x="693" 
d="M2 1219h53v215h251v-215h82v215h250v-215h53v-170h-53v-1049h-250v637h-82v-637h-251v1049h-53v170zM388 857v192h-82v-192h82z" />
    <glyph glyph-name="hbar" unicode="&#x127;" horiz-adv-x="611" 
d="M-22 1317h57v117h240v-117h112v-137h-112v-158q24 48 65 74.5t92 26.5q70 0 108 -48.5t38 -138.5v-936h-240v884q0 17 -8.5 25.5t-21.5 8.5q-15 0 -24 -10t-9 -28v-880h-240v1180h-57v137z" />
    <glyph glyph-name="Itilde" unicode="&#x128;" horiz-adv-x="325" 
d="M37 1434h251v-1434h-251v1434zM-36 1601.5q37 45.5 116 45.5q28 0 55 -6t61 -16q43 -13 56 -13q27 0 27 30h125q1 -82 -36.5 -125.5t-102.5 -43.5q-25 0 -49.5 5.5t-63.5 16.5q-4 1 -28 7.5t-38 6.5q-13 0 -20.5 -8.5t-7.5 -22.5h-129q-2 78 35 123.5z" />
    <glyph glyph-name="itilde" unicode="&#x129;" horiz-adv-x="310" 
d="M35 1106h240v-1106h-240v1106zM142 1177q-46 13 -62 13q-28 0 -28 -28h-131q-2 77 35 121.5t117 44.5q26 0 50.5 -5t57.5 -15q37 -11 51 -11q27 0 27 27h127q1 -81 -37 -123.5t-103 -42.5q-36 0 -104 19z" />
    <glyph glyph-name="Imacron" unicode="&#x12a;" horiz-adv-x="325" 
d="M37 1434h251v-1434h-251v1434zM-33 1643h391v-159h-391v159z" />
    <glyph glyph-name="imacron" unicode="&#x12b;" horiz-adv-x="310" 
d="M35 1106h240v-1106h-240v1106zM-5 1327h320v-164h-320v164z" />
    <glyph glyph-name="Ibreve" unicode="&#x12c;" horiz-adv-x="325" 
d="M37 1434h251v-1434h-251v1434zM109 1633q2 -23 15.5 -38t38.5 -15q24 0 38 15.5t17 37.5h151q-4 -75 -56.5 -120t-149.5 -45t-149 45t-56 120h151z" />
    <glyph glyph-name="ibreve" unicode="&#x12d;" horiz-adv-x="310" 
d="M35 1106h240v-1106h-240v1106zM8 1203q-53 50 -54 142h142q2 -31 16.5 -51t42.5 -20q27 0 42 20.5t17 50.5h142q-1 -92 -54 -142t-147 -50t-147 50z" />
    <glyph glyph-name="Iogonek" unicode="&#x12e;" horiz-adv-x="325" 
d="M37 1434h251v-1434q-46 -17 -69.5 -47.5t-23.5 -62.5q0 -26 16 -41.5t48 -15.5q14 0 29 3v-146q-34 -12 -80 -12q-83 0 -129 41t-46 107q0 56 30 101t82 73h-108v1434z" />
    <glyph glyph-name="iogonek" unicode="&#x12f;" horiz-adv-x="310" 
d="M35 1106h240v-1106q-46 -17 -69.5 -47.5t-23.5 -62.5q0 -26 16 -41.5t48 -15.5q14 0 29 3v-146q-34 -12 -80 -12q-83 0 -129 41t-46 107q0 56 30 101t82 73h-97v1106zM60 1369q38 38 95 38q58 0 95.5 -38t37.5 -96q0 -57 -37.5 -95t-95.5 -38q-57 0 -95 38t-38 95
q0 58 38 96z" />
    <glyph glyph-name="Idotaccent" unicode="&#x130;" horiz-adv-x="325" 
d="M37 1434h251v-1434h-251v1434zM73.5 1687q36.5 36 90.5 36q56 0 91.5 -36t35.5 -92q0 -54 -36 -90.5t-91 -36.5q-54 0 -90.5 36.5t-36.5 90.5q0 56 36.5 92z" />
    <glyph glyph-name="dotlessi" unicode="&#x131;" horiz-adv-x="310" 
d="M35 1106h240v-1106h-240v1106z" />
    <glyph glyph-name="IJ" unicode="&#x132;" horiz-adv-x="944" 
d="M37 1434h251v-1434h-251v1434zM412.5 53.5q-68.5 69.5 -68.5 190.5v515h247v-513q0 -45 34 -45t34 45v1188h250v-1190q0 -125 -71 -192.5t-214 -67.5t-211.5 69.5z" />
    <glyph glyph-name="ij" unicode="&#x133;" horiz-adv-x="622" 
d="M35 1106h240v-1106h-240v1106zM60 1178q-38 38 -38 95q0 58 38 96t95 38q58 0 95.5 -38t37.5 -96q0 -57 -37.5 -95t-95.5 -38q-57 0 -95 38zM273 -292v186q14 -6 34 -6q40 0 40 44v1174h240v-1193q0 -119 -56 -170t-150 -51q-64 0 -108 16zM373 1178q-38 38 -38 95
q0 58 38 96t95 38q58 0 95.5 -38t37.5 -96q0 -57 -37.5 -95t-95.5 -38q-57 0 -95 38z" />
    <glyph glyph-name="Jcircumflex" unicode="&#x134;" horiz-adv-x="619" 
d="M87.5 53.5q-68.5 69.5 -68.5 190.5v515h247v-513q0 -45 34 -45t34 45v1188h250v-1190q0 -125 -71 -192.5t-214 -67.5t-211.5 69.5zM300 1652q83 -8 150 -8t150 8l75 -175h-184l-41 94l-41 -94h-183z" />
    <glyph glyph-name="jcircumflex" unicode="&#x135;" horiz-adv-x="310" 
d="M-39 -292v186q14 -6 34 -6q40 0 40 44v1174h240v-1193q0 -119 -56 -170t-150 -51q-64 0 -108 16zM169 1358q71 0 141 6l74 -202h-175l-41 101l-41 -101h-174l75 202q71 -6 141 -6z" />
    <glyph glyph-name="uni0136" unicode="&#x136;" horiz-adv-x="644" 
d="M288 722v-722h-251v1434h251v-608l106 608h254l-143 -636l143 -798h-260zM228 -59h207l-83 -256h-163z" />
    <glyph glyph-name="uni0137" unicode="&#x137;" 
d="M275 541v-541h-240v1434h240v-784l92 456h250l-127 -507l129 -599h-252zM209 -59h207l-83 -256h-163z" />
    <glyph glyph-name="Lacute" unicode="&#x139;" horiz-adv-x="506" 
d="M37 1434h251v-1210h205v-224h-456v1434zM83 1649h246l-56 -172h-227z" />
    <glyph glyph-name="lacute" unicode="&#x13a;" horiz-adv-x="310" 
d="M35 1434h240v-1434h-240v1434zM76 1649h246l-56 -172h-227z" />
    <glyph glyph-name="uni013B" unicode="&#x13b;" horiz-adv-x="506" 
d="M37 1434h251v-1210h205v-224h-456v1434zM161 -59h207l-83 -256h-163z" />
    <glyph glyph-name="uni013C" unicode="&#x13c;" horiz-adv-x="310" 
d="M35 1434h240v-1434h-240v1434zM39 -59h207l-83 -256h-163z" />
    <glyph glyph-name="Lcaron" unicode="&#x13d;" horiz-adv-x="526" 
d="M37 1434h251v-1210h205v-224h-456v1434zM344 1434h206l-82 -257h-164z" />
    <glyph glyph-name="lcaron" unicode="&#x13e;" horiz-adv-x="331" 
d="M35 1434h240v-1434h-240v1434zM331 1434h206l-82 -257h-164z" />
    <glyph glyph-name="Ldot" unicode="&#x13f;" horiz-adv-x="563" 
d="M37 1434h251v-1210h205v-224h-456v1434zM345.5 809.5q36.5 36.5 91.5 36.5t91 -36.5t36 -91.5t-36 -91.5t-91 -36.5t-91.5 36.5t-36.5 91.5t36.5 91.5z" />
    <glyph glyph-name="ldot" unicode="&#x140;" horiz-adv-x="541" 
d="M35 1434h240v-1434h-240v1434zM328 765q38 38 96 38q57 0 95 -38t38 -96t-38 -96t-95 -38q-58 0 -96 38t-38 96t38 96z" />
    <glyph glyph-name="Lslash" unicode="&#x141;" horiz-adv-x="554" 
d="M12 689l72 45v700h251v-542l82 52v-214l-82 -52v-454h205v-224h-456v520l-72 -45v214z" />
    <glyph glyph-name="lslash" unicode="&#x142;" horiz-adv-x="399" 
d="M11 689l72 46v699h240v-545l71 45v-214l-71 -45v-675h-240v521l-72 -46v214z" />
    <glyph glyph-name="Nacute" unicode="&#x143;" horiz-adv-x="749" 
d="M37 1434h313l128 -822h2l-2 822h234v-1434h-292l-148 916h-2l1 -916h-234v1434zM294 1649h246l-56 -172h-227z" />
    <glyph glyph-name="nacute" unicode="&#x144;" horiz-adv-x="611" 
d="M35 1106h231v-103q23 56 66.5 88t99.5 32q70 0 108 -48.5t38 -138.5v-936h-240v884q0 17 -8.5 25.5t-21.5 8.5q-15 0 -24 -10t-9 -28v-880h-240v1106zM228 1364h234l-63 -202h-205z" />
    <glyph glyph-name="uni0145" unicode="&#x145;" horiz-adv-x="749" 
d="M37 1434h313l128 -822h2l-2 822h234v-1434h-292l-148 916h-2l1 -916h-234v1434zM270 -59h207l-83 -256h-163z" />
    <glyph glyph-name="uni0146" unicode="&#x146;" horiz-adv-x="611" 
d="M35 1106h231v-103q23 56 66.5 88t99.5 32q70 0 108 -48.5t38 -138.5v-936h-240v884q0 17 -8.5 25.5t-21.5 8.5q-15 0 -24 -10t-9 -28v-880h-240v1106zM192 -59h207l-83 -256h-163z" />
    <glyph glyph-name="Ncaron" unicode="&#x147;" horiz-adv-x="749" 
d="M37 1434h313l128 -822h2l-2 822h234v-1434h-292l-148 916h-2l1 -916h-234v1434zM333 1649l41 -94l41 94h183l-74 -175q-69 8 -150 8t-150 -8l-75 175h184z" />
    <glyph glyph-name="ncaron" unicode="&#x148;" horiz-adv-x="611" 
d="M35 1106h231v-103q23 56 66.5 88t99.5 32q70 0 108 -48.5t38 -138.5v-936h-240v884q0 17 -8.5 25.5t-21.5 8.5q-15 0 -24 -10t-9 -28v-880h-240v1106zM88 1360h174l41 -101l41 101h175l-74 -202q-70 6 -141 6q-70 0 -141 -6z" />
    <glyph glyph-name="Eng" unicode="&#x14a;" horiz-adv-x="729" 
d="M361 -217v187q22 -8 45 -8q48 0 48 42v18l-189 947l2 -969h-230v1434h307l120 -649l-2 649h230v-1463q0 -108 -56 -157t-153 -49q-70 0 -122 18z" />
    <glyph glyph-name="eng" unicode="&#x14b;" horiz-adv-x="611" 
d="M317 -230q-29 5 -51 13v179q18 -6 34 -6q38 0 38 34v894q0 17 -8.5 25.5t-21.5 8.5q-15 0 -24 -10t-9 -28v-880h-240v1106h231v-104q22 57 65.5 89t100.5 32q70 0 108 -48.5t38 -138.5v-966q0 -107 -55.5 -156t-150.5 -49q-26 0 -55 5z" />
    <glyph glyph-name="Omacron" unicode="&#x14c;" horiz-adv-x="659" 
d="M105.5 60.5q-74.5 76.5 -74.5 221.5v870q0 90 35 157.5t102 104.5t161 37q143 0 221 -79t78 -220v-870q0 -144 -75 -221t-224 -77t-223.5 76.5zM134 1643h391v-159h-391v159zM329 199q37 0 37 45v946q0 20 -9.5 33t-27.5 13q-19 0 -28 -12.5t-9 -33.5v-946q0 -45 37 -45z
" />
    <glyph glyph-name="omacron" unicode="&#x14d;" horiz-adv-x="610" 
d="M102 56.5q-75 72.5 -75 200.5v592q0 131 74.5 202.5t203.5 71.5q130 0 203.5 -71.5t73.5 -202.5v-592q0 -128 -74 -200.5t-203 -72.5q-128 0 -203 72.5zM280.5 199q8.5 -12 24.5 -12q17 0 25 11.5t8 30.5v649q0 17 -8 29t-25 12q-16 0 -24.5 -11.5t-8.5 -29.5v-649
q0 -18 8.5 -30zM117 1327h376v-164h-376v164z" />
    <glyph glyph-name="Obreve" unicode="&#x14e;" horiz-adv-x="659" 
d="M105.5 60.5q-74.5 76.5 -74.5 221.5v870q0 90 35 157.5t102 104.5t161 37q143 0 221 -79t78 -220v-870q0 -144 -75 -221t-224 -77t-223.5 76.5zM275 1633q2 -23 15.5 -38t38.5 -15q24 0 38 15.5t17 37.5h151q-4 -75 -56.5 -120t-149.5 -45t-149 45t-56 120h151zM329 199
q37 0 37 45v946q0 20 -9.5 33t-27.5 13q-19 0 -28 -12.5t-9 -33.5v-946q0 -45 37 -45z" />
    <glyph glyph-name="obreve" unicode="&#x14f;" horiz-adv-x="610" 
d="M102 56.5q-75 72.5 -75 200.5v592q0 131 74.5 202.5t203.5 71.5q130 0 203.5 -71.5t73.5 -202.5v-592q0 -128 -74 -200.5t-203 -72.5q-128 0 -203 72.5zM280.5 199q8.5 -12 24.5 -12q17 0 25 11.5t8 30.5v649q0 17 -8 29t-25 12q-16 0 -24.5 -11.5t-8.5 -29.5v-649
q0 -18 8.5 -30zM158 1203q-53 50 -54 142h142q2 -31 16.5 -51t42.5 -20q27 0 42 20.5t17 50.5h142q-1 -92 -54 -142t-147 -50t-147 50z" />
    <glyph glyph-name="Ohungarumlaut" unicode="&#x150;" horiz-adv-x="659" 
d="M105.5 60.5q-74.5 76.5 -74.5 221.5v870q0 90 35 157.5t102 104.5t161 37q143 0 221 -79t78 -220v-870q0 -144 -75 -221t-224 -77t-223.5 76.5zM164 1631h192l-50 -155h-172zM329 199q37 0 37 45v946q0 20 -9.5 33t-27.5 13q-19 0 -28 -12.5t-9 -33.5v-946q0 -45 37 -45z
M378 1631h190l-49 -155h-170z" />
    <glyph glyph-name="ohungarumlaut" unicode="&#x151;" horiz-adv-x="610" 
d="M102 56.5q-75 72.5 -75 200.5v592q0 131 74.5 202.5t203.5 71.5q130 0 203.5 -71.5t73.5 -202.5v-592q0 -128 -74 -200.5t-203 -72.5q-128 0 -203 72.5zM280.5 199q8.5 -12 24.5 -12q17 0 25 11.5t8 30.5v649q0 17 -8 29t-25 12q-16 0 -24.5 -11.5t-8.5 -29.5v-649
q0 -18 8.5 -30zM138 1364h188l-57 -202h-165zM361 1364h187l-57 -202h-164z" />
    <glyph glyph-name="OE" unicode="&#x152;" horiz-adv-x="863" 
d="M843 1218h-226v-367h191v-216h-191v-419h226v-216h-515q-146 0 -221.5 72t-75.5 204v880q0 137 78.5 207.5t243.5 70.5h490v-216zM304.5 234q15.5 -15 47.5 -15h13v996h-13q-33 0 -48 -15.5t-15 -54.5v-861q0 -35 15.5 -50z" />
    <glyph glyph-name="oe" unicode="&#x153;" horiz-adv-x="918" 
d="M97.5 51.5q-69.5 67.5 -69.5 189.5v621q0 125 73 193t200 68q98 0 161 -49q60 49 165 49q122 0 193 -70t71 -198v-353h-308v-278q0 -17 8.5 -28t25.5 -11t25.5 11t8.5 28v217h240v-198q0 -124 -71.5 -191.5t-195.5 -67.5q-49 0 -92 13.5t-74 42.5q-65 -56 -166 -56
q-125 0 -194.5 67.5zM281 199q9 -12 25 -12t24.5 12t8.5 30v649q0 17 -8.5 29t-24.5 12q-17 0 -25.5 -11.5t-8.5 -29.5v-649q0 -18 9 -30zM651 685v199q0 18 -8.5 28.5t-25.5 10.5t-25.5 -10.5t-8.5 -28.5v-199h68z" />
    <glyph glyph-name="Racute" unicode="&#x154;" horiz-adv-x="655" 
d="M37 1434h301q151 0 220.5 -68.5t69.5 -220.5v-127q0 -125 -45 -190.5t-129 -86.5q68 -10 105 -31.5t51.5 -57t14.5 -93.5v-559h-252v561q0 42 -18 58.5t-67 16.5v-636h-251v1434zM220 1649h246l-56 -172h-227zM297 840q41 0 59.5 29t18.5 86v185q0 48 -18.5 69.5
t-60.5 21.5h-8v-391h9z" />
    <glyph glyph-name="racute" unicode="&#x155;" horiz-adv-x="560" 
d="M35 1106h228v-131q23 69 64 106t96 37q63 0 93.5 -44.5t30.5 -136.5v-411h-221v335q0 28 -23 28q-13 0 -20.5 -9.5t-7.5 -27.5v-852h-240v1106zM206 1364h234l-63 -202h-205z" />
    <glyph glyph-name="uni0156" unicode="&#x156;" horiz-adv-x="655" 
d="M37 1434h301q151 0 220.5 -68.5t69.5 -220.5v-127q0 -125 -45 -190.5t-129 -86.5q68 -10 105 -31.5t51.5 -57t14.5 -93.5v-559h-252v561q0 42 -18 58.5t-67 16.5v-636h-251v1434zM223 -59h207l-83 -256h-163zM297 840q41 0 59.5 29t18.5 86v185q0 48 -18.5 69.5
t-60.5 21.5h-8v-391h9z" />
    <glyph glyph-name="uni0157" unicode="&#x157;" horiz-adv-x="560" 
d="M35 1106h228v-131q23 69 64 106t96 37q63 0 93.5 -44.5t30.5 -136.5v-411h-221v335q0 28 -23 28q-13 0 -20.5 -9.5t-7.5 -27.5v-852h-240v1106zM47 -59h207l-83 -256h-163z" />
    <glyph glyph-name="Rcaron" unicode="&#x158;" horiz-adv-x="655" 
d="M37 1434h301q151 0 220.5 -68.5t69.5 -220.5v-127q0 -125 -45 -190.5t-129 -86.5q68 -10 105 -31.5t51.5 -57t14.5 -93.5v-559h-252v561q0 42 -18 58.5t-67 16.5v-636h-251v1434zM260 1649l41 -94l41 94h183l-74 -175q-69 8 -150 8t-150 -8l-75 175h184zM297 840
q41 0 59.5 29t18.5 86v185q0 48 -18.5 69.5t-60.5 21.5h-8v-391h9z" />
    <glyph glyph-name="rcaron" unicode="&#x159;" horiz-adv-x="560" 
d="M35 1106h228v-131q23 69 64 106t96 37q63 0 93.5 -44.5t30.5 -136.5v-411h-221v335q0 28 -23 28q-13 0 -20.5 -9.5t-7.5 -27.5v-852h-240v1106zM66 1360h174l41 -101l41 101h175l-74 -202q-70 6 -141 6q-70 0 -141 -6z" />
    <glyph glyph-name="Sacute" unicode="&#x15a;" horiz-adv-x="623" 
d="M95 59.5q-75 76.5 -75 206.5v239h252v-239q0 -28 10 -43t29 -15q41 0 41 67v142q0 59 -13 92.5t-43 64.5l-146 150q-69 71 -99 140.5t-30 169.5v105q0 97 36.5 167.5t104 107.5t159.5 37q84 0 148.5 -34t100 -101.5t35.5 -163.5v-167h-250v186q0 56 -37 56
q-21 0 -30.5 -15t-9.5 -48v-100q0 -46 11 -77t40 -62l142 -150q48 -50 76 -93t44 -100.5t16 -138.5v-147q0 -152 -76.5 -232.5t-221.5 -80.5q-139 0 -214 76.5zM235 1649h246l-56 -172h-227z" />
    <glyph glyph-name="sacute" unicode="&#x15b;" horiz-adv-x="588" 
d="M92 52.5q-74 68.5 -74 196.5v146h241v-166q0 -25 8 -37.5t26 -12.5q19 0 28 13t9 46v75q0 38 -10 64t-26.5 43.5t-47.5 42.5l-96 79q-45 37 -72 70t-41 77t-14 105v59q0 128 73 198.5t203 70.5q126 0 198 -67t72 -200v-100h-234v127q0 49 -35 49q-37 0 -37 -53v-57
q0 -39 10.5 -59.5t47.5 -51.5l103 -87q50 -43 80 -78t49 -85.5t19 -122.5v-81q0 -134 -74.5 -203t-203.5 -69q-128 0 -202 68.5zM226 1364h234l-63 -202h-205z" />
    <glyph glyph-name="Scircumflex" unicode="&#x15c;" horiz-adv-x="623" 
d="M95 59.5q-75 76.5 -75 206.5v239h252v-239q0 -28 10 -43t29 -15q41 0 41 67v142q0 59 -13 92.5t-43 64.5l-146 150q-69 71 -99 140.5t-30 169.5v105q0 97 36.5 167.5t104 107.5t159.5 37q84 0 148.5 -34t100 -101.5t35.5 -163.5v-167h-250v186q0 56 -37 56
q-21 0 -30.5 -15t-9.5 -48v-100q0 -46 11 -77t40 -62l142 -150q48 -50 76 -93t44 -100.5t16 -138.5v-147q0 -152 -76.5 -232.5t-221.5 -80.5q-139 0 -214 76.5zM165 1652q83 -8 150 -8t150 8l75 -175h-184l-41 94l-41 -94h-183z" />
    <glyph glyph-name="scircumflex" unicode="&#x15d;" horiz-adv-x="588" 
d="M92 52.5q-74 68.5 -74 196.5v146h241v-166q0 -25 8 -37.5t26 -12.5q19 0 28 13t9 46v75q0 38 -10 64t-26.5 43.5t-47.5 42.5l-96 79q-45 37 -72 70t-41 77t-14 105v59q0 128 73 198.5t203 70.5q126 0 198 -67t72 -200v-100h-234v127q0 49 -35 49q-37 0 -37 -53v-57
q0 -39 10.5 -59.5t47.5 -51.5l103 -87q50 -43 80 -78t49 -85.5t19 -122.5v-81q0 -134 -74.5 -203t-203.5 -69q-128 0 -202 68.5zM314 1358q71 0 141 6l74 -202h-175l-41 101l-41 -101h-174l75 202q71 -6 141 -6z" />
    <glyph glyph-name="Scedilla" unicode="&#x15e;" horiz-adv-x="623" 
d="M148 -290q-60 42 -62 125h161q2 -18 16.5 -28.5t36.5 -10.5q50 0 50 41q0 21 -15.5 32t-39.5 11q-33 0 -55 -14l4 122q-109 18 -166.5 91.5t-57.5 186.5v239h252v-239q0 -28 10 -43t29 -15q41 0 41 67v142q0 59 -13 92.5t-43 64.5l-146 150q-69 71 -99 140.5t-30 169.5
v105q0 97 36.5 167.5t104 107.5t159.5 37q84 0 148.5 -34t100 -101.5t35.5 -163.5v-167h-250v186q0 56 -37 56q-21 0 -30.5 -15t-9.5 -48v-100q0 -46 11 -77t40 -62l142 -150q48 -50 76 -93t44 -100.5t16 -138.5v-147q0 -135 -60 -213.5t-176 -95.5l-1 -19q66 -3 106 -40
t40 -98q0 -86 -61 -124t-155 -38q-92 0 -152 42z" />
    <glyph glyph-name="scedilla" unicode="&#x15f;" horiz-adv-x="588" 
d="M132 -290q-60 42 -62 125h161q2 -18 16.5 -28.5t36.5 -10.5q50 0 50 41q0 21 -15.5 32t-39.5 11q-33 0 -55 -14l4 123q-99 17 -154.5 83.5t-55.5 176.5v146h241v-166q0 -25 8 -37.5t26 -12.5q19 0 28 13t9 46v75q0 38 -10 64t-26.5 43.5t-47.5 42.5l-96 79q-45 37 -72 70
t-41 77t-14 105v59q0 128 73 198.5t203 70.5q126 0 198 -67t72 -200v-100h-234v127q0 49 -35 49q-37 0 -37 -53v-57q0 -39 10.5 -59.5t47.5 -51.5l103 -87q50 -43 80 -78t49 -85.5t19 -122.5v-81q0 -118 -57.5 -185.5t-159.5 -82.5l-1 -20q66 -3 106 -40t40 -98
q0 -86 -61 -124t-155 -38q-92 0 -152 42z" />
    <glyph glyph-name="Scaron" unicode="&#x160;" horiz-adv-x="623" 
d="M95 59.5q-75 76.5 -75 206.5v239h252v-239q0 -28 10 -43t29 -15q41 0 41 67v142q0 59 -13 92.5t-43 64.5l-146 150q-69 71 -99 140.5t-30 169.5v105q0 97 36.5 167.5t104 107.5t159.5 37q84 0 148.5 -34t100 -101.5t35.5 -163.5v-167h-250v186q0 56 -37 56
q-21 0 -30.5 -15t-9.5 -48v-100q0 -46 11 -77t40 -62l142 -150q48 -50 76 -93t44 -100.5t16 -138.5v-147q0 -152 -76.5 -232.5t-221.5 -80.5q-139 0 -214 76.5zM275 1649l41 -94l41 94h183l-74 -175q-69 8 -150 8t-150 -8l-75 175h184z" />
    <glyph glyph-name="scaron" unicode="&#x161;" horiz-adv-x="588" 
d="M92 52.5q-74 68.5 -74 196.5v146h241v-166q0 -25 8 -37.5t26 -12.5q19 0 28 13t9 46v75q0 38 -10 64t-26.5 43.5t-47.5 42.5l-96 79q-45 37 -72 70t-41 77t-14 105v59q0 128 73 198.5t203 70.5q126 0 198 -67t72 -200v-100h-234v127q0 49 -35 49q-37 0 -37 -53v-57
q0 -39 10.5 -59.5t47.5 -51.5l103 -87q50 -43 80 -78t49 -85.5t19 -122.5v-81q0 -134 -74.5 -203t-203.5 -69q-128 0 -202 68.5zM86 1360h174l41 -101l41 101h175l-74 -202q-70 6 -141 6q-70 0 -141 -6z" />
    <glyph glyph-name="uni0162" unicode="&#x162;" horiz-adv-x="578" 
d="M164 1210h-150v224h551v-224h-151v-1210h-67l-1 -32q66 -3 106 -40t40 -98q0 -86 -61 -124t-155 -38q-92 0 -152 42t-62 125h161q2 -18 16.5 -28.5t36.5 -10.5q50 0 50 41q0 21 -15.5 32t-39.5 11q-33 0 -55 -14l4 134h-56v1210z" />
    <glyph glyph-name="uni0163" unicode="&#x163;" horiz-adv-x="416" 
d="M59 -290q-60 42 -62 125h161q2 -18 16.5 -28.5t36.5 -10.5q50 0 50 41q0 21 -15.5 32t-39.5 11q-33 0 -55 -14l5 157q-76 50 -76 167v725h-78v191h80v196l238 67v-263h89v-191h-89v-678q0 -44 49 -44q17 0 40 7v-186q-55 -24 -127 -24l-1 -22q66 -3 106 -40t40 -98
q0 -86 -61 -124t-155 -38q-92 0 -152 42z" />
    <glyph glyph-name="Tcaron" unicode="&#x164;" horiz-adv-x="578" 
d="M164 1210h-150v224h551v-224h-151v-1210h-250v1210zM249 1649l41 -94l41 94h183l-74 -175q-69 8 -150 8t-150 -8l-75 175h184z" />
    <glyph glyph-name="tcaron" unicode="&#x165;" horiz-adv-x="416" 
d="M135.5 38.5q-55.5 48.5 -55.5 151.5v725h-78v191h80v196l238 67v-263h89v-191h-89v-678q0 -44 49 -44q17 0 40 7v-186q-55 -24 -129 -24q-89 0 -144.5 48.5zM389 1439h207l-83 -256h-163z" />
    <glyph glyph-name="Tbar" unicode="&#x166;" horiz-adv-x="579" 
d="M93 842h71v368h-150v224h551v-224h-151v-368h72v-202h-72v-640h-250v640h-71v202z" />
    <glyph glyph-name="tbar" unicode="&#x167;" horiz-adv-x="429" 
d="M8 714h79v201h-78v191h80v196l238 67v-263h89v-191h-89v-201h88v-183h-88v-294q0 -44 49 -44q17 0 40 7v-186q-55 -24 -129 -24q-89 0 -144.5 48.5t-55.5 151.5v341h-79v183z" />
    <glyph glyph-name="Utilde" unicode="&#x168;" horiz-adv-x="651" 
d="M108 54.5q-75 70.5 -75 195.5v1184h252v-1186q0 -20 10.5 -33t30.5 -13q19 0 29.5 13t10.5 33v1186h252v-1184q0 -125 -75 -195.5t-217 -70.5q-143 0 -218 70.5zM127 1601.5q37 45.5 116 45.5q28 0 55 -6t61 -16q43 -13 56 -13q27 0 27 30h125q1 -82 -36.5 -125.5
t-102.5 -43.5q-25 0 -49.5 5.5t-63.5 16.5q-4 1 -28 7.5t-38 6.5q-13 0 -20.5 -8.5t-7.5 -22.5h-129q-2 78 35 123.5z" />
    <glyph glyph-name="utilde" unicode="&#x169;" horiz-adv-x="610" 
d="M73 31q-40 47 -40 139v936h239v-880q0 -20 8.5 -29t22.5 -9q13 0 22.5 10.5t9.5 32.5v875h240v-1106h-227v110q-22 -59 -63 -92.5t-96 -33.5q-76 0 -116 47zM291 1177q-46 13 -62 13q-28 0 -28 -28h-131q-2 77 35 121.5t117 44.5q26 0 50.5 -5t57.5 -15q37 -11 51 -11
q27 0 27 27h127q1 -81 -37 -123.5t-103 -42.5q-36 0 -104 19z" />
    <glyph glyph-name="Umacron" unicode="&#x16a;" horiz-adv-x="651" 
d="M108 54.5q-75 70.5 -75 195.5v1184h252v-1186q0 -20 10.5 -33t30.5 -13q19 0 29.5 13t10.5 33v1186h252v-1184q0 -125 -75 -195.5t-217 -70.5q-143 0 -218 70.5zM130 1643h391v-159h-391v159z" />
    <glyph glyph-name="umacron" unicode="&#x16b;" horiz-adv-x="610" 
d="M73 31q-40 47 -40 139v936h239v-880q0 -20 8.5 -29t22.5 -9q13 0 22.5 10.5t9.5 32.5v875h240v-1106h-227v110q-22 -59 -63 -92.5t-96 -33.5q-76 0 -116 47zM116 1327h376v-164h-376v164z" />
    <glyph glyph-name="Ubreve" unicode="&#x16c;" horiz-adv-x="651" 
d="M108 54.5q-75 70.5 -75 195.5v1184h252v-1186q0 -20 10.5 -33t30.5 -13q19 0 29.5 13t10.5 33v1186h252v-1184q0 -125 -75 -195.5t-217 -70.5q-143 0 -218 70.5zM272 1633q2 -23 15.5 -38t38.5 -15q24 0 38 15.5t17 37.5h151q-4 -75 -56.5 -120t-149.5 -45t-149 45
t-56 120h151z" />
    <glyph glyph-name="ubreve" unicode="&#x16d;" horiz-adv-x="610" 
d="M73 31q-40 47 -40 139v936h239v-880q0 -20 8.5 -29t22.5 -9q13 0 22.5 10.5t9.5 32.5v875h240v-1106h-227v110q-22 -59 -63 -92.5t-96 -33.5q-76 0 -116 47zM158 1203q-53 50 -54 142h142q2 -31 16.5 -51t42.5 -20q27 0 42 20.5t17 50.5h142q-1 -92 -54 -142t-147 -50
t-147 50z" />
    <glyph glyph-name="Uring" unicode="&#x16e;" horiz-adv-x="651" 
d="M108 54.5q-75 70.5 -75 195.5v1184h252v-1186q0 -20 10.5 -33t30.5 -13q19 0 29.5 13t10.5 33v1186h252v-1184q0 -125 -75 -195.5t-217 -70.5q-143 0 -218 70.5zM203 1669.5q49 31.5 123 31.5t123 -31.5t49 -86.5q0 -56 -49 -88t-123 -32t-123 32t-49 88q0 55 49 86.5z
M294.5 1550q12.5 -13 31.5 -13t31.5 13t12.5 32t-12.5 32t-31.5 13t-31.5 -13t-12.5 -32t12.5 -32z" />
    <glyph glyph-name="uring" unicode="&#x16f;" horiz-adv-x="610" 
d="M73 31q-40 47 -40 139v936h239v-880q0 -20 8.5 -29t22.5 -9q13 0 22.5 10.5t9.5 32.5v875h240v-1106h-227v110q-22 -59 -63 -92.5t-96 -33.5q-76 0 -116 47zM183.5 1184q-48.5 33 -48.5 90q0 56 48.5 88.5t120.5 32.5q73 0 121 -32t48 -89t-48 -90t-121 -33
q-72 0 -120.5 33zM272.5 1241.5q12.5 -12.5 31.5 -12.5t31.5 12.5t12.5 31.5t-12.5 32t-31.5 13t-31.5 -13t-12.5 -32t12.5 -31.5z" />
    <glyph glyph-name="Uhungarumlaut" unicode="&#x170;" horiz-adv-x="651" 
d="M108 54.5q-75 70.5 -75 195.5v1184h252v-1186q0 -20 10.5 -33t30.5 -13q19 0 29.5 13t10.5 33v1186h252v-1184q0 -125 -75 -195.5t-217 -70.5q-143 0 -218 70.5zM160 1631h192l-50 -155h-172zM374 1631h190l-49 -155h-170z" />
    <glyph glyph-name="uhungarumlaut" unicode="&#x171;" horiz-adv-x="610" 
d="M73 31q-40 47 -40 139v936h239v-880q0 -20 8.5 -29t22.5 -9q13 0 22.5 10.5t9.5 32.5v875h240v-1106h-227v110q-22 -59 -63 -92.5t-96 -33.5q-76 0 -116 47zM137 1364h188l-57 -202h-165zM360 1364h187l-57 -202h-164z" />
    <glyph glyph-name="Uogonek" unicode="&#x172;" horiz-adv-x="651" 
d="M366 -322q-83 0 -129 41t-46 107q0 50 23.5 91t65.5 69q-121 11 -184 80.5t-63 183.5v1184h252v-1186q0 -20 10.5 -33t30.5 -13q19 0 29.5 13t10.5 33v1186h252v-1184q0 -95 -43.5 -159.5t-128.5 -90.5q-46 -17 -69.5 -47.5t-23.5 -62.5q0 -26 16 -41.5t48 -15.5
q14 0 29 3v-146q-34 -12 -80 -12z" />
    <glyph glyph-name="uogonek" unicode="&#x173;" horiz-adv-x="610" 
d="M73 31q-40 47 -40 139v936h239v-880q0 -20 8.5 -29t22.5 -9q13 0 22.5 10.5t9.5 32.5v875h240v-1106q-46 -17 -69.5 -47.5t-23.5 -62.5q0 -26 16 -41.5t48 -15.5q14 0 29 3v-146q-34 -12 -80 -12q-83 0 -129 41t-46 107q0 56 30 101t82 73h-84v110q-22 -59 -63 -92.5
t-96 -33.5q-76 0 -116 47z" />
    <glyph glyph-name="Wcircumflex" unicode="&#x174;" horiz-adv-x="912" 
d="M11 1434h233l29 -1049h2l54 1049h260l51 -1056h2l32 1056h227l-91 -1434h-307l-49 1029h-2l-44 -1029h-306zM307 1652q83 -8 150 -8t150 8l75 -175h-184l-41 94l-41 -94h-183z" />
    <glyph glyph-name="wcircumflex" unicode="&#x175;" horiz-adv-x="891" 
d="M9 1106h227l29 -790h2l53 790h250l53 -790h2l30 790h227l-94 -1106h-295l-46 730h-2l-48 -730h-294zM459 1358q71 0 141 6l74 -202h-175l-41 101l-41 -101h-174l75 202q71 -6 141 -6z" />
    <glyph glyph-name="Ycircumflex.ss05" unicode="&#x176;" horiz-adv-x="585" 
d="M166 456l-174 978h254l48 -538h2l47 538h251l-176 -977v-457h-252v456zM145 1652q83 -8 150 -8t150 8l75 -175h-184l-41 94l-41 -94h-183z" />
    <glyph glyph-name="ycircumflex.ss05" unicode="&#x177;" horiz-adv-x="566" 
d="M163 -18l-165 1124h239l44 -631h2l57 631h232l-218 -1406h-240zM303 1358q71 0 141 6l74 -202h-175l-41 101l-41 -101h-174l75 202q71 -6 141 -6z" />
    <glyph glyph-name="Ydieresis.ss05" unicode="&#x178;" horiz-adv-x="585" 
d="M166 456l-174 978h254l48 -538h2l47 538h251l-176 -977v-457h-252v456zM105 1648.5q30 29.5 74 29.5q45 0 74.5 -29.5t29.5 -75.5q0 -44 -29.5 -73.5t-74.5 -29.5q-44 0 -74 29.5t-30 73.5q0 46 30 75.5zM341.5 1648.5q29.5 29.5 73.5 29.5q45 0 74.5 -29.5t29.5 -75.5
q0 -44 -29.5 -73.5t-74.5 -29.5q-44 0 -73.5 29.5t-29.5 73.5q0 46 29.5 75.5z" />
    <glyph glyph-name="Zacute" unicode="&#x179;" horiz-adv-x="531" 
d="M15 236l256 981h-255v217h498v-242l-254 -975h258v-217h-503v236zM185 1649h246l-56 -172h-227z" />
    <glyph glyph-name="zacute" unicode="&#x17a;" horiz-adv-x="514" 
d="M18 224l249 680h-248v202h474v-228l-246 -675h250v-203h-479v224zM185 1364h234l-63 -202h-205z" />
    <glyph glyph-name="Zdotaccent" unicode="&#x17b;" horiz-adv-x="531" 
d="M15 236l256 981h-255v217h498v-242l-254 -975h258v-217h-503v236zM174.5 1687q36.5 36 90.5 36q56 0 91.5 -36t35.5 -92q0 -54 -36 -90.5t-91 -36.5q-54 0 -90.5 36.5t-36.5 90.5q0 56 36.5 92z" />
    <glyph glyph-name="zdotaccent" unicode="&#x17c;" horiz-adv-x="514" 
d="M18 224l249 680h-248v202h474v-228l-246 -675h250v-203h-479v224zM165 1178q-38 38 -38 95q0 58 38 96t95 38q58 0 95.5 -38t37.5 -96q0 -57 -37.5 -95t-95.5 -38q-57 0 -95 38z" />
    <glyph glyph-name="Zcaron" unicode="&#x17d;" horiz-adv-x="531" 
d="M15 236l256 981h-255v217h498v-242l-254 -975h258v-217h-503v236zM224 1649l41 -94l41 94h183l-74 -175q-69 8 -150 8t-150 -8l-75 175h184z" />
    <glyph glyph-name="zcaron" unicode="&#x17e;" horiz-adv-x="514" 
d="M18 224l249 680h-248v202h474v-228l-246 -675h250v-203h-479v224zM45 1360h174l41 -101l41 101h175l-74 -202q-70 6 -141 6q-70 0 -141 -6z" />
    <glyph glyph-name="uni0218" unicode="&#x218;" horiz-adv-x="623" 
d="M95 59.5q-75 76.5 -75 206.5v239h252v-239q0 -28 10 -43t29 -15q41 0 41 67v142q0 59 -13 92.5t-43 64.5l-146 150q-69 71 -99 140.5t-30 169.5v105q0 97 36.5 167.5t104 107.5t159.5 37q84 0 148.5 -34t100 -101.5t35.5 -163.5v-167h-250v186q0 56 -37 56
q-21 0 -30.5 -15t-9.5 -48v-100q0 -46 11 -77t40 -62l142 -150q48 -50 76 -93t44 -100.5t16 -138.5v-147q0 -152 -76.5 -232.5t-221.5 -80.5q-139 0 -214 76.5zM205 -59h207l-83 -256h-163z" />
    <glyph glyph-name="uni0219" unicode="&#x219;" horiz-adv-x="588" 
d="M92 52.5q-74 68.5 -74 196.5v146h241v-166q0 -25 8 -37.5t26 -12.5q19 0 28 13t9 46v75q0 38 -10 64t-26.5 43.5t-47.5 42.5l-96 79q-45 37 -72 70t-41 77t-14 105v59q0 128 73 198.5t203 70.5q126 0 198 -67t72 -200v-100h-234v127q0 49 -35 49q-37 0 -37 -53v-57
q0 -39 10.5 -59.5t47.5 -51.5l103 -87q50 -43 80 -78t49 -85.5t19 -122.5v-81q0 -134 -74.5 -203t-203.5 -69q-128 0 -202 68.5zM189 -59h207l-83 -256h-163z" />
    <glyph glyph-name="uni021A" unicode="&#x21a;" horiz-adv-x="578" 
d="M164 1210h-150v224h551v-224h-151v-1210h-250v1210zM181 -59h207l-83 -256h-163z" />
    <glyph glyph-name="uni021B" unicode="&#x21b;" horiz-adv-x="416" 
d="M135.5 38.5q-55.5 48.5 -55.5 151.5v725h-78v191h80v196l238 67v-263h89v-191h-89v-678q0 -44 49 -44q17 0 40 7v-186q-55 -24 -129 -24q-89 0 -144.5 48.5zM116 -59h207l-83 -256h-163z" />
    <glyph glyph-name="uni0232.ss05" unicode="&#x232;" horiz-adv-x="585" 
d="M166 456l-174 978h254l48 -538h2l47 538h251l-176 -977v-457h-252v456zM100 1643h391v-159h-391v159z" />
    <glyph glyph-name="uni0233.ss05" unicode="&#x233;" horiz-adv-x="566" 
d="M163 -18l-165 1124h239l44 -631h2l57 631h232l-218 -1406h-240zM103 1327h376v-164h-376v164z" />
    <glyph glyph-name="uni0237" unicode="&#x237;" horiz-adv-x="310" 
d="M-39 -292v186q14 -6 34 -6q40 0 40 44v1174h240v-1193q0 -119 -56 -170t-150 -51q-64 0 -108 16z" />
    <glyph glyph-name="circumflex" unicode="&#x2c6;" horiz-adv-x="481" 
d="M241 1358q71 0 141 6l74 -202h-175l-41 101l-41 -101h-174l75 202q71 -6 141 -6z" />
    <glyph glyph-name="caron" unicode="&#x2c7;" horiz-adv-x="481" 
d="M25 1360h174l41 -101l41 101h175l-74 -202q-70 6 -141 6q-70 0 -141 -6z" />
    <glyph glyph-name="breve" unicode="&#x2d8;" horiz-adv-x="452" 
d="M79 1203q-53 50 -54 142h142q2 -31 16.5 -51t42.5 -20q27 0 42 20.5t17 50.5h142q-1 -92 -54 -142t-147 -50t-147 50z" />
    <glyph glyph-name="dotaccent" unicode="&#x2d9;" horiz-adv-x="316" 
d="M63 1178q-38 38 -38 95q0 58 38 96t95 38q58 0 95.5 -38t37.5 -96q0 -57 -37.5 -95t-95.5 -38q-57 0 -95 38z" />
    <glyph glyph-name="ring" unicode="&#x2da;" horiz-adv-x="388" 
d="M73.5 1184q-48.5 33 -48.5 90q0 56 48.5 88.5t120.5 32.5q73 0 121 -32t48 -89t-48 -90t-121 -33q-72 0 -120.5 33zM162.5 1241.5q12.5 -12.5 31.5 -12.5t31.5 12.5t12.5 31.5t-12.5 32t-31.5 13t-31.5 -13t-12.5 -32t12.5 -31.5z" />
    <glyph glyph-name="ogonek" unicode="&#x2db;" horiz-adv-x="305" 
d="M200 -322q-83 0 -129 41t-46 107q0 78 55 132.5t141 70.5l59 -29q-46 -17 -69.5 -47.5t-23.5 -62.5q0 -26 16 -41.5t48 -15.5q14 0 29 3v-146q-34 -12 -80 -12z" />
    <glyph glyph-name="tilde" unicode="&#x2dc;" horiz-adv-x="515" 
d="M246 1177q-46 13 -62 13q-28 0 -28 -28h-131q-2 77 35 121.5t117 44.5q26 0 50.5 -5t57.5 -15q37 -11 51 -11q27 0 27 27h127q1 -81 -37 -123.5t-103 -42.5q-36 0 -104 19z" />
    <glyph glyph-name="hungarumlaut" unicode="&#x2dd;" horiz-adv-x="494" 
d="M59 1364h188l-57 -202h-165zM282 1364h187l-57 -202h-164z" />
    <glyph glyph-name="Wgrave" unicode="&#x1e80;" horiz-adv-x="912" 
d="M11 1434h233l29 -1049h2l54 1049h260l51 -1056h2l32 1056h227l-91 -1434h-307l-49 1029h-2l-44 -1029h-306zM538 1649l37 -172h-227l-56 172h246z" />
    <glyph glyph-name="wgrave" unicode="&#x1e81;" horiz-adv-x="891" 
d="M9 1106h227l29 -790h2l53 790h250l53 -790h2l30 790h227l-94 -1106h-295l-46 730h-2l-48 -730h-294zM350 1162l-63 202h234l34 -202h-205z" />
    <glyph glyph-name="Wacute" unicode="&#x1e82;" horiz-adv-x="912" 
d="M11 1434h233l29 -1049h2l54 1049h260l51 -1056h2l32 1056h227l-91 -1434h-307l-49 1029h-2l-44 -1029h-306zM378 1649h246l-56 -172h-227z" />
    <glyph glyph-name="wacute" unicode="&#x1e83;" horiz-adv-x="891" 
d="M9 1106h227l29 -790h2l53 790h250l53 -790h2l30 790h227l-94 -1106h-295l-46 730h-2l-48 -730h-294zM371 1364h234l-63 -202h-205z" />
    <glyph glyph-name="Wdieresis" unicode="&#x1e84;" horiz-adv-x="912" 
d="M11 1434h233l29 -1049h2l54 1049h260l51 -1056h2l32 1056h227l-91 -1434h-307l-49 1029h-2l-44 -1029h-306zM268 1648.5q30 29.5 74 29.5q45 0 74.5 -29.5t29.5 -75.5q0 -44 -29.5 -73.5t-74.5 -29.5q-44 0 -74 29.5t-30 73.5q0 46 30 75.5zM504.5 1648.5
q29.5 29.5 73.5 29.5q45 0 74.5 -29.5t29.5 -75.5q0 -44 -29.5 -73.5t-74.5 -29.5q-44 0 -73.5 29.5t-29.5 73.5q0 46 29.5 75.5z" />
    <glyph glyph-name="wdieresis" unicode="&#x1e85;" horiz-adv-x="891" 
d="M9 1106h227l29 -790h2l53 790h250l53 -790h2l30 790h227l-94 -1106h-295l-46 730h-2l-48 -730h-294zM238.5 1185.5q-31.5 31.5 -31.5 78.5q0 49 31.5 80t78.5 31q48 0 79 -31t31 -80q0 -47 -31.5 -78.5t-78.5 -31.5t-78.5 31.5zM488.5 1344q31.5 31 78.5 31q48 0 79 -31
t31 -80q0 -47 -31.5 -78.5t-78.5 -31.5t-78.5 31.5t-31.5 78.5q0 49 31.5 80z" />
    <glyph glyph-name="uni1E9E" unicode="&#x1e9e;" horiz-adv-x="661" 
d="M37 1434h586v-243l-111 -348q65 -32 97.5 -102.5t32.5 -198.5v-181q0 -133 -33 -212t-100 -114t-173 -35h-14v206q36 0 49.5 27t13.5 92v280q0 56 -13.5 79t-45.5 26v206l93 314h-131v-1230h-251v1434z" />
    <glyph glyph-name="Ygrave.ss05" unicode="&#x1ef2;" horiz-adv-x="585" 
d="M166 456l-174 978h254l48 -538h2l47 538h251l-176 -977v-457h-252v456zM375 1649l37 -172h-227l-56 172h246z" />
    <glyph glyph-name="ygrave.ss05" unicode="&#x1ef3;" horiz-adv-x="566" 
d="M163 -18l-165 1124h239l44 -631h2l57 631h232l-218 -1406h-240zM194 1162l-63 202h234l34 -202h-205z" />
    <glyph glyph-name="uni2002" unicode="&#x2002;" horiz-adv-x="194" 
 />
    <glyph glyph-name="uni2003" unicode="&#x2003;" horiz-adv-x="194" 
 />
    <glyph glyph-name="uni2009" unicode="&#x2009;" horiz-adv-x="194" 
 />
    <glyph glyph-name="uni200A" unicode="&#x200a;" horiz-adv-x="194" 
 />
    <glyph glyph-name="endash" unicode="&#x2013;" horiz-adv-x="484" 
d="M30 770h424v-230h-424v230z" />
    <glyph glyph-name="emdash" unicode="&#x2014;" horiz-adv-x="789" 
d="M30 763h730v-215h-730v215z" />
    <glyph glyph-name="quoteleft" unicode="&#x2018;" horiz-adv-x="290" 
d="M239 1068h-240l96 366h190z" />
    <glyph glyph-name="quoteright" unicode="&#x2019;" horiz-adv-x="287" 
d="M55 1434h240l-96 -366h-190z" />
    <glyph glyph-name="quotesinglbase" unicode="&#x201a;" horiz-adv-x="283" 
d="M42 205h240l-96 -366h-190z" />
    <glyph glyph-name="quotedblleft" unicode="&#x201c;" horiz-adv-x="558" 
d="M239 1068h-240l96 366h190zM362 1434h190l-46 -366h-240z" />
    <glyph glyph-name="quotedblright" unicode="&#x201d;" horiz-adv-x="555" 
d="M323 1434h240l-96 -366h-190zM55 1434h240l-96 -366h-190z" />
    <glyph glyph-name="quotedblbase" unicode="&#x201e;" horiz-adv-x="551" 
d="M310 205h240l-96 -366h-190zM42 205h240l-96 -366h-190z" />
    <glyph glyph-name="dagger" unicode="&#x2020;" horiz-adv-x="598" 
d="M184 930h-171v194h171v310h232v-310h169v-194h-169v-930h-232v930z" />
    <glyph glyph-name="daggerdbl" unicode="&#x2021;" horiz-adv-x="609" 
d="M190 318h-172v194h172v418h-171v194h171v310h232v-310h169v-194h-169v-418h168v-194h-168v-318h-232v318z" />
    <glyph glyph-name="bullet" unicode="&#x2022;" horiz-adv-x="566" 
d="M168 421.5q-52 30.5 -82.5 83.5t-30.5 116q0 62 30.5 114.5t83 83t114.5 30.5t114.5 -30.5t83 -83t30.5 -114.5q0 -63 -30.5 -116t-82.5 -83.5t-115 -30.5t-115 30.5z" />
    <glyph glyph-name="ellipsis" unicode="&#x2026;" horiz-adv-x="928" 
d="M364 27q-40 40 -40 101q0 60 40 100t100 40t100 -40t40 -100q0 -61 -40 -101t-100 -40t-100 40zM681 27q-40 40 -40 101q0 60 40 100t100 40t100 -40t40 -100q0 -61 -40 -101t-100 -40t-100 40zM47 27q-40 40 -40 101q0 60 40 100t100 40t100 -40t40 -100q0 -61 -40 -101
t-100 -40t-100 40z" />
    <glyph glyph-name="minute" unicode="&#x2032;" horiz-adv-x="301" 
d="M62 1434h249l-106 -429h-198z" />
    <glyph glyph-name="second" unicode="&#x2033;" horiz-adv-x="576" 
d="M62 1434h249l-106 -429h-198zM337 1434h249l-106 -429h-198z" />
    <glyph glyph-name="guilsinglleft" unicode="&#x2039;" horiz-adv-x="398" 
d="M21 557l145 549h213l-124 -549l124 -557h-213z" />
    <glyph glyph-name="guilsinglright" unicode="&#x203a;" horiz-adv-x="398" 
d="M19 0l124 557l-124 549h213l145 -549l-145 -557h-213z" />
    <glyph glyph-name="uni203D" unicode="&#x203d;" horiz-adv-x="584" 
d="M137 28q-40 40 -40 100t40 99.5t99 39.5t98.5 -39.5t39.5 -99.5t-39.5 -100t-98.5 -40t-99 40zM15 1170q0 134 73 207.5t208 73.5q128 0 200.5 -75t72.5 -210v-277q0 -129 -53.5 -215t-206.5 -86h-9l39 -287h-207l-108 601h233l18 -134q31 7 41.5 27t10.5 61v339
q0 50 -37 50t-37 -50v-225h-238v200z" />
    <glyph glyph-name="fraction" unicode="&#x2044;" horiz-adv-x="196" 
d="M241 1434h139l-422 -1434h-146z" />
    <glyph glyph-name="uni2070" unicode="&#x2070;" horiz-adv-x="395" 
d="M63.5 821q-44.5 44 -44.5 124v445q0 75 47 121.5t130 46.5t129.5 -45.5t46.5 -122.5v-445q0 -80 -44.5 -124t-131.5 -44q-88 0 -132.5 44zM196 904q11 0 15.5 8t4.5 26v467q0 11 -5 18.5t-15 7.5t-15.5 -7t-5.5 -19v-467q0 -34 21 -34z" />
    <glyph glyph-name="uni2074" unicode="&#x2074;" horiz-adv-x="379" 
d="M188 953h-179v138l77 458h241v-468h40v-128h-40v-167h-139v167zM188 1081v342h-2l-44 -342h46z" />
    <glyph glyph-name="uni2075" unicode="&#x2075;" horiz-adv-x="390" 
d="M63 818q-46 41 -46 118v95h156v-104q0 -27 21 -27q20 0 20 27v228q0 13 -5.5 20.5t-15.5 7.5q-31 0 -31 -54v-2h-141v422h338v-125h-189v-184q12 32 38 50t61 18q52 0 76.5 -33.5t24.5 -90.5v-244q0 -78 -45.5 -120.5t-130.5 -42.5t-131 41z" />
    <glyph glyph-name="uni2076" unicode="&#x2076;" horiz-adv-x="396" 
d="M65.5 821q-46.5 44 -46.5 128v433q0 83 47.5 129.5t133.5 46.5q83 0 128 -46.5t45 -125.5v-58h-154v78q0 28 -23 28q-11 0 -16.5 -7.5t-5.5 -20.5q1 -37 1 -108q0 -62 -1 -84q14 24 40 38t58 14q50 0 77 -32.5t27 -97.5v-189q0 -83 -45 -126.5t-131 -43.5
q-88 0 -134.5 44zM181 909.5q6 -8.5 18 -8.5q11 0 16 8.5t5 22.5v189q0 17 -5 24.5t-18 7.5q-22 0 -22 -30v-191q0 -14 6 -22.5z" />
    <glyph glyph-name="uni2077" unicode="&#x2077;" horiz-adv-x="318" 
d="M82.5 1140q34.5 158 112.5 278h-189v131h299v-143q-53 -102 -75 -239.5t-22 -319.5v-61h-160q0 196 34.5 354z" />
    <glyph glyph-name="uni2078" unicode="&#x2078;" horiz-adv-x="396" 
d="M14 963v83q0 63 18 96t63 52q-43 20 -59 53.5t-16 92.5v51q0 76 46 121t130 45q83 0 129 -45t46 -121v-51q0 -58 -16.5 -92.5t-58.5 -53.5q45 -19 63 -52t18 -96v-83q0 -93 -46.5 -139.5t-134.5 -46.5q-182 0 -182 186zM196 903q23 0 23 33v156q0 32 -23 32
q-24 0 -24 -32v-156q0 -33 24 -33zM196 1248q23 0 23 32v120q0 33 -23 33q-12 0 -18 -9t-6 -24v-120q0 -32 24 -32z" />
    <glyph glyph-name="uni2079" unicode="&#x2079;" horiz-adv-x="391" 
d="M65.5 820q-44.5 43 -44.5 123v76h151v-93q0 -26 22 -26q19 0 19 26v203q-27 -51 -89 -51q-52 0 -81 31.5t-29 97.5v183q0 79 46 123t131 44q86 0 131 -43t45 -124v-444q0 -76 -46 -122.5t-128 -46.5q-83 0 -127.5 43zM175.5 1200q5.5 -7 15.5 -7t15 7t5 19v189
q0 25 -20 25q-10 0 -15.5 -6.5t-5.5 -18.5v-188q0 -13 5.5 -20z" />
    <glyph glyph-name="uni2080" unicode="&#x2080;" horiz-adv-x="394" 
d="M63 -82q-44 44 -44 124v445q0 74 46.5 120.5t129.5 46.5q84 0 130.5 -45t46.5 -122v-445q0 -80 -44.5 -124t-132.5 -44t-132 44zM195 1q12 0 16.5 8.5t4.5 25.5v467q0 11 -5.5 18.5t-15.5 7.5q-20 0 -20 -26v-467q0 -34 20 -34z" />
    <glyph glyph-name="uni2081" unicode="&#x2081;" horiz-adv-x="262" 
d="M87 467h-81v134h28q32 0 43.5 10.5t11.5 34.5h148v-763h-150v584z" />
    <glyph glyph-name="uni2082" unicode="&#x2082;" horiz-adv-x="390" 
d="M16 18l147 287q27 48 39 80t12 77v31q0 35 -23 35q-22 0 -22 -34v-103h-153v98q0 78 47 121.5t129 43.5q83 0 130.5 -42.5t47.5 -126.5v-35q0 -61 -22.5 -114.5t-66.5 -125.5l-108 -198h199v-129h-356v135z" />
    <glyph glyph-name="uni2083" unicode="&#x2083;" horiz-adv-x="387" 
d="M60 -84.5q-46 41.5 -46 114.5v91h153v-94q0 -31 21 -31q23 0 23 31v117q0 40 -12 56.5t-46 16.5h-27v129h26q23 0 35.5 6t18 23t5.5 50v77q0 31 -20 31q-22 0 -22 -31v-82h-153v70q0 78 45 121t129 43t129.5 -40.5t45.5 -120.5v-71q0 -56 -22 -90.5t-71 -48.5
q51 -12 72.5 -44t21.5 -97v-108q0 -77 -45 -118.5t-131 -41.5q-84 0 -130 41.5z" />
    <glyph glyph-name="uni2084" unicode="&#x2084;" horiz-adv-x="378" 
d="M188 50h-180v138l78 458h240v-468h40v-128h-40v-167h-138v167zM188 178v342h-2l-45 -342h47z" />
    <glyph glyph-name="uni2085" unicode="&#x2085;" horiz-adv-x="390" 
d="M63 -85q-46 41 -46 118v95h156v-104q0 -26 21 -26q20 0 20 26v228q0 28 -21 28q-31 0 -31 -53v-3h-141v422h338v-125h-189v-184q12 32 38 50t61 18q52 0 76.5 -33.5t24.5 -90.5v-244q0 -78 -45.5 -120.5t-130.5 -42.5t-131 41z" />
    <glyph glyph-name="uni2086" unicode="&#x2086;" horiz-adv-x="396" 
d="M65.5 -82q-46.5 44 -46.5 128v433q0 83 47.5 129t133.5 46q83 0 128 -46t45 -126v-58h-154v79q0 28 -23 28q-11 0 -16.5 -7.5t-5.5 -20.5q1 -37 1 -108q0 -63 -1 -85q14 25 40 39t58 14q50 0 77 -32.5t27 -97.5v-189q0 -83 -45 -126.5t-131 -43.5q-88 0 -134.5 44z
M181 6.5q6 -8.5 18 -8.5q11 0 16 8.5t5 22.5v189q0 16 -5.5 24t-17.5 8q-22 0 -22 -30v-191q0 -14 6 -22.5z" />
    <glyph glyph-name="uni2087" unicode="&#x2087;" horiz-adv-x="317" 
d="M82 237q35 158 113 278h-190v131h299v-143q-53 -102 -75 -240.5t-22 -320.5v-59h-160q0 196 35 354z" />
    <glyph glyph-name="uni2088" unicode="&#x2088;" horiz-adv-x="396" 
d="M14 60v83q0 63 18 96t63 52q-43 20 -59 53.5t-16 92.5v51q0 76 46 121t130 45q83 0 129 -45t46 -121v-51q0 -58 -16.5 -92.5t-58.5 -53.5q45 -19 63 -52t18 -96v-83q0 -93 -46.5 -139.5t-134.5 -46.5q-182 0 -182 186zM196 0q23 0 23 33v156q0 32 -23 32q-24 0 -24 -32
v-156q0 -33 24 -33zM196 345q23 0 23 32v120q0 33 -23 33q-12 0 -18 -9t-6 -24v-120q0 -32 24 -32z" />
    <glyph glyph-name="uni2089" unicode="&#x2089;" horiz-adv-x="391" 
d="M65.5 -83q-44.5 43 -44.5 124v75h151v-93q0 -25 22 -25q19 0 19 25v204q-27 -52 -89 -52q-52 0 -81 31.5t-29 97.5v183q0 79 46 123t131 44q86 0 131 -43t45 -124v-444q0 -76 -46 -122.5t-128 -46.5q-83 0 -127.5 43zM175.5 297q5.5 -7 15.5 -7t15 7t5 19v189
q0 25 -20 25q-10 0 -15.5 -6.5t-5.5 -18.5v-188q0 -13 5.5 -20z" />
    <glyph glyph-name="uni20A9" unicode="&#x20a9;" horiz-adv-x="1003" 
d="M15 818h81l-39 616h233l29 -1049h2l54 1049h260l51 -1056h2l32 1056h227l-39 -616h79v-213h-93l-38 -605h-307l-49 1029h-2l-44 -1029h-306l-38 605h-95v213z" />
    <glyph glyph-name="Euro" unicode="&#x20ac;" horiz-adv-x="682" 
d="M152.5 57q-73.5 73 -73.5 203v307h-55v153h55v40h-55v153h55v251q0 132 76 209.5t215 77.5q137 0 211.5 -75.5t74.5 -210.5v-197h-249v223q0 20 -9.5 32.5t-27.5 12.5t-27.5 -12.5t-9.5 -32.5v-278h151v-153h-151v-40h151v-153h-151v-325q0 -20 9 -32t28 -12
q17 0 27 12.5t10 31.5v268h249v-250q0 -128 -75 -202t-215 -74t-213.5 73z" />
    <glyph glyph-name="uni20BF" unicode="&#x20bf;" horiz-adv-x="663" 
d="M325 0h-45v-108h-160v108h-78v1434h78v108h160v-108h45v108h160v-135q142 -63 142 -254v-129q0 -105 -44 -168t-126 -87q91 -24 136.5 -85.5t45.5 -191.5v-167q0 -229 -154 -297v-136h-160v108zM298 204q47 0 65.5 29t18.5 93v232q0 51 -19 76t-65 25h-5v-455h5zM297 859
q41 0 60 27t19 84v173q0 46 -18 66.5t-61 20.5h-4v-371h4z" />
    <glyph glyph-name="uni2116" unicode="&#x2116;" horiz-adv-x="1218" 
d="M37 1434h313l128 -822h2l-2 822h234v-1434h-292l-148 916h-2l1 -916h-234v1434zM830.5 709.5q-56.5 54.5 -56.5 149.5v385q0 97 56 150t153 53q98 0 154 -53t56 -150v-385q0 -96 -56.5 -150t-153.5 -54q-96 0 -152.5 54.5zM963 819.5q7 -9.5 20 -9.5q14 0 21 9t7 24v417
q0 13 -7 23t-21 10q-13 0 -20 -9.5t-7 -23.5v-417q0 -14 7 -23.5z" />
    <glyph glyph-name="uni2117" unicode="&#x2117;" horiz-adv-x="825" 
d="M240 1196h183q70 0 114.5 -22.5t67 -74.5t22.5 -141v-101q0 -94 -23.5 -147t-67.5 -74.5t-112 -21.5h-16v-368h-168v950zM32 1070q0 112 44.5 201t130.5 140.5t205 51.5t205 -51.5t131 -141t45 -200.5v-706q0 -111 -45 -200.5t-131 -141t-205 -51.5t-204.5 51.5
t-130.5 141t-45 200.5v706zM142.5 197.5q36.5 -72.5 106 -113.5t163.5 -41q95 0 164.5 40t106 112.5t36.5 167.5v708q0 96 -36.5 168t-105.5 112t-164 40t-164.5 -41t-106 -113.5t-36.5 -165.5v-708q0 -93 36.5 -165.5zM447.5 772.5q11.5 20.5 11.5 74.5v124q0 51 -10.5 69
t-37.5 18h-3v-306q28 0 39.5 20.5z" />
    <glyph glyph-name="trademark" unicode="&#x2122;" horiz-adv-x="737" 
d="M86 1327h-73v107h265v-107h-73v-549h-119v549zM312 1434h162l32 -431l31 431h161v-656h-99v479l-41 -479h-105l-41 469v-469h-100v656z" />
    <glyph glyph-name="uni2153" unicode="&#x2153;" horiz-adv-x="753" 
d="M82 1270h-75v124h26q29 0 40 10t11 32h138v-710h-140v544zM467 1434h139l-422 -1434h-146zM451.5 30.5q-42.5 38.5 -42.5 106.5v85h142v-88q0 -28 20 -28q21 0 21 28v109q0 38 -11.5 53t-42.5 15h-25v120h24q32 0 43.5 14.5t11.5 59.5v71q0 29 -19 29q-20 0 -20 -29v-76
h-142v65q0 72 41.5 112.5t119.5 40.5t120.5 -38t42.5 -112v-66q0 -52 -20 -84.5t-66 -44.5q47 -11 67 -41t20 -91v-100q0 -72 -42 -110.5t-122 -38.5q-78 0 -120.5 38.5z" />
    <glyph glyph-name="uni2154" unicode="&#x2154;" horiz-adv-x="878" 
d="M17 852l137 267q25 44 36 74t11 72v29q0 32 -21 32t-21 -31v-96h-142v91q0 73 44 113.5t120 40.5q77 0 121 -40t44 -118v-32q0 -57 -21 -107.5t-62 -115.5l-100 -185h185v-120h-331v126zM592 1434h139l-422 -1434h-146zM575.5 30.5q-42.5 38.5 -42.5 106.5v85h142v-88
q0 -28 20 -28q21 0 21 28v109q0 38 -11.5 53t-42.5 15h-25v120h24q32 0 43.5 14.5t11.5 59.5v71q0 29 -19 29q-20 0 -20 -29v-76h-142v65q0 72 41.5 112.5t119.5 40.5t120.5 -38t42.5 -112v-66q0 -52 -20 -84.5t-66 -44.5q47 -11 67 -41t20 -91v-100q0 -72 -42 -110.5
t-122 -38.5q-78 0 -120.5 38.5z" />
    <glyph glyph-name="uni2155" unicode="&#x2155;" horiz-adv-x="768" 
d="M82 1270h-75v124h26q29 0 40 10t11 32h138v-710h-140v544zM467 1434h139l-422 -1434h-146zM466.5 30.5q-42.5 38.5 -42.5 109.5v88h145v-96q0 -25 19 -25t19 25v212q0 12 -5 19t-15 7q-29 0 -29 -50v-2h-131v392h315v-116h-176v-171q12 29 35.5 46t56.5 17q49 0 71.5 -31
t22.5 -84v-227q0 -73 -42.5 -112.5t-121.5 -39.5t-121.5 38.5z" />
    <glyph glyph-name="uni2156" unicode="&#x2156;" horiz-adv-x="892" 
d="M17 852l137 267q25 44 36 74t11 72v29q0 32 -21 32t-21 -31v-96h-142v91q0 73 44 113.5t120 40.5q77 0 121 -40t44 -118v-32q0 -57 -21 -107.5t-62 -115.5l-100 -185h185v-120h-331v126zM592 1434h139l-422 -1434h-146zM590.5 30.5q-42.5 38.5 -42.5 109.5v88h145v-96
q0 -25 19 -25t19 25v212q0 12 -5 19t-15 7q-29 0 -29 -50v-2h-131v392h315v-116h-176v-171q12 29 35.5 46t56.5 17q49 0 71.5 -31t22.5 -84v-227q0 -73 -42.5 -112.5t-121.5 -39.5t-121.5 38.5z" />
    <glyph glyph-name="uni2157" unicode="&#x2157;" horiz-adv-x="873" 
d="M57.5 756.5q-42.5 38.5 -42.5 106.5v85h142v-88q0 -28 20 -28q21 0 21 28v109q0 38 -11.5 53t-42.5 15h-25v120h24q32 0 43.5 14.5t11.5 59.5v71q0 29 -19 29q-20 0 -20 -29v-76h-142v65q0 72 41.5 112.5t119.5 40.5t120.5 -38t42.5 -112v-66q0 -52 -20 -84.5t-66 -44.5
q47 -11 67 -41t20 -91v-100q0 -72 -42 -110.5t-122 -38.5q-78 0 -120.5 38.5zM573 1434h139l-422 -1434h-146zM571.5 30.5q-42.5 38.5 -42.5 109.5v88h145v-96q0 -25 19 -25t19 25v212q0 12 -5 19t-15 7q-29 0 -29 -50v-2h-131v392h315v-116h-176v-171q12 29 35.5 46
t56.5 17q49 0 71.5 -31t22.5 -84v-227q0 -73 -42.5 -112.5t-121.5 -39.5t-121.5 38.5z" />
    <glyph glyph-name="uni2158" unicode="&#x2158;" horiz-adv-x="865" 
d="M176 882h-167v128l72 426h224v-435h37v-119h-37v-156h-129v156zM176 1001v318h-2l-41 -318h43zM564 1434h139l-422 -1434h-146zM563.5 30.5q-42.5 38.5 -42.5 109.5v88h145v-96q0 -25 19 -25t19 25v212q0 12 -5 19t-15 7q-29 0 -29 -50v-2h-131v392h315v-116h-176v-171
q12 29 35.5 46t56.5 17q49 0 71.5 -31t22.5 -84v-227q0 -73 -42.5 -112.5t-121.5 -39.5t-121.5 38.5z" />
    <glyph glyph-name="uni2159" unicode="&#x2159;" horiz-adv-x="760" 
d="M82 1270h-75v124h26q29 0 40 10t11 32h138v-710h-140v544zM467 1434h139l-422 -1434h-146zM456 33q-43 41 -43 119v403q0 77 44 120t124 43q77 0 119 -43t42 -117v-54h-143v73q0 26 -21 26q-10 0 -15.5 -7t-5.5 -19q1 -35 1 -100q0 -58 -1 -79q14 23 37.5 36t53.5 13
q47 0 72 -30t25 -91v-176q0 -77 -42 -117.5t-122 -40.5q-82 0 -125 41zM563.5 115q5.5 -8 16.5 -8q10 0 15 8t5 21v176q0 30 -21 30q-10 0 -15.5 -7.5t-5.5 -20.5v-178q0 -13 5.5 -21z" />
    <glyph glyph-name="uni215A" unicode="&#x215a;" horiz-adv-x="868" 
d="M60.5 756.5q-42.5 38.5 -42.5 109.5v88h145v-96q0 -25 19 -25t19 25v212q0 12 -5 19t-15 7q-29 0 -29 -50v-2h-131v392h315v-116h-176v-171q12 29 35.5 46t56.5 17q49 0 71.5 -31t22.5 -84v-227q0 -73 -42.5 -112.5t-121.5 -39.5t-121.5 38.5zM575 1434h139l-422 -1434
h-146zM564 33q-43 41 -43 119v403q0 77 44 120t124 43q77 0 119 -43t42 -117v-54h-143v73q0 26 -21 26q-10 0 -15.5 -7t-5.5 -19q1 -35 1 -100q0 -58 -1 -79q14 23 37.5 36t53.5 13q47 0 72 -30t25 -91v-176q0 -77 -42 -117.5t-122 -40.5q-82 0 -125 41zM671.5 115
q5.5 -8 16.5 -8q10 0 15 8t5 21v176q0 30 -21 30q-10 0 -15.5 -7.5t-5.5 -20.5v-178q0 -13 5.5 -21z" />
    <glyph glyph-name="oneeighth" unicode="&#x215b;" horiz-adv-x="761" 
d="M82 1270h-75v124h26q29 0 40 10t11 32h138v-710h-140v544zM467 1434h139l-422 -1434h-146zM409 165v77q0 59 16.5 90t58.5 48q-40 18 -55 49.5t-15 86.5v47q0 71 43 113t121 42q77 0 120 -42.5t43 -112.5v-47q0 -54 -15 -86t-55 -50q42 -17 58.5 -48t16.5 -90v-77
q0 -87 -43 -130t-125 -43q-169 0 -169 173zM578 109q21 0 21 31v145q0 30 -21 30q-22 0 -22 -30v-145q0 -31 22 -31zM578 430q21 0 21 30v112q0 30 -21 30q-22 0 -22 -30v-112q0 -30 22 -30z" />
    <glyph glyph-name="threeeighths" unicode="&#x215c;" horiz-adv-x="866" 
d="M57.5 756.5q-42.5 38.5 -42.5 106.5v85h142v-88q0 -28 20 -28q21 0 21 28v109q0 38 -11.5 53t-42.5 15h-25v120h24q32 0 43.5 14.5t11.5 59.5v71q0 29 -19 29q-20 0 -20 -29v-76h-142v65q0 72 41.5 112.5t119.5 40.5t120.5 -38t42.5 -112v-66q0 -52 -20 -84.5t-66 -44.5
q47 -11 67 -41t20 -91v-100q0 -72 -42 -110.5t-122 -38.5q-78 0 -120.5 38.5zM573 1434h139l-422 -1434h-146zM514 165v77q0 59 16.5 90t58.5 48q-40 18 -55 49.5t-15 86.5v47q0 71 43 113t121 42q77 0 120 -42.5t43 -112.5v-47q0 -54 -15 -86t-55 -50q42 -17 58.5 -48
t16.5 -90v-77q0 -87 -43 -130t-125 -43q-169 0 -169 173zM683 109q21 0 21 31v145q0 30 -21 30q-22 0 -22 -30v-145q0 -31 22 -31zM683 430q21 0 21 30v112q0 30 -21 30q-22 0 -22 -30v-112q0 -30 22 -30z" />
    <glyph glyph-name="fiveeighths" unicode="&#x215d;" horiz-adv-x="869" 
d="M60.5 756.5q-42.5 38.5 -42.5 109.5v88h145v-96q0 -25 19 -25t19 25v212q0 12 -5 19t-15 7q-29 0 -29 -50v-2h-131v392h315v-116h-176v-171q12 29 35.5 46t56.5 17q49 0 71.5 -31t22.5 -84v-227q0 -73 -42.5 -112.5t-121.5 -39.5t-121.5 38.5zM575 1434h139l-422 -1434
h-146zM517 165v77q0 59 16.5 90t58.5 48q-40 18 -55 49.5t-15 86.5v47q0 71 43 113t121 42q77 0 120 -42.5t43 -112.5v-47q0 -54 -15 -86t-55 -50q42 -17 58.5 -48t16.5 -90v-77q0 -87 -43 -130t-125 -43q-169 0 -169 173zM686 109q21 0 21 31v145q0 30 -21 30
q-22 0 -22 -30v-145q0 -31 22 -31zM686 430q21 0 21 30v112q0 30 -21 30q-22 0 -22 -30v-112q0 -30 22 -30z" />
    <glyph glyph-name="seveneighths" unicode="&#x215e;" horiz-adv-x="777" 
d="M78 1056q32 147 105 258h-176v122h278v-133q-50 -95 -70.5 -222.5t-20.5 -295.5l1 -59h-149q0 183 32 330zM483 1434h139l-422 -1434h-146zM425 165v77q0 59 16.5 90t58.5 48q-40 18 -55 49.5t-15 86.5v47q0 71 43 113t121 42q77 0 120 -42.5t43 -112.5v-47
q0 -54 -15 -86t-55 -50q42 -17 58.5 -48t16.5 -90v-77q0 -87 -43 -130t-125 -43q-169 0 -169 173zM594 109q21 0 21 31v145q0 30 -21 30q-22 0 -22 -30v-145q0 -31 22 -31zM594 430q21 0 21 30v112q0 30 -21 30q-22 0 -22 -30v-112q0 -30 22 -30z" />
    <glyph glyph-name="arrowleft" unicode="&#x2190;" horiz-adv-x="1022" 
d="M328 366l-311 346l311 343h294l-218 -237h591v-213h-592l219 -239h-294z" />
    <glyph glyph-name="arrowup" unicode="&#x2191;" horiz-adv-x="667" 
d="M222 1093l-209 -179v249l319 289l322 -289v-249l-210 181v-1095h-222v1093z" />
    <glyph glyph-name="arrowright" unicode="&#x2192;" horiz-adv-x="1022" 
d="M619 605h-592v213h591l-218 237h294l311 -343l-311 -346h-294z" />
    <glyph glyph-name="arrowdown" unicode="&#x2193;" horiz-adv-x="667" 
d="M445 341l209 179v-249l-319 -289l-322 289v249l210 -181v1095h222v-1093z" />
    <glyph glyph-name="uni2196" unicode="&#x2196;" horiz-adv-x="846" 
d="M35 606l4 465l461 44l217 -199l-321 -28l436 -398l-144 -158l-437 400l1 -324z" />
    <glyph glyph-name="uni2197" unicode="&#x2197;" horiz-adv-x="846" 
d="M595 732l-437 -400l-144 158l436 398l-321 28l217 199l461 -44l4 -465l-217 -198z" />
    <glyph glyph-name="uni2198" unicode="&#x2198;" horiz-adv-x="847" 
d="M812 841l-4 -465l-461 -43l-217 198l321 28l-436 399l144 157l437 -399l-1 324z" />
    <glyph glyph-name="uni2199" unicode="&#x2199;" horiz-adv-x="847" 
d="M251 716l437 399l144 -157l-436 -399l321 -28l-217 -198l-461 43l-4 465l217 199z" />
    <glyph glyph-name="minus" unicode="&#x2212;" horiz-adv-x="519" 
d="M20 759h479v-207h-479v207z" />
    <glyph glyph-name="angleleft" unicode="&#x2329;" horiz-adv-x="416" 
d="M-12 661l197 865h242l-205 -865l205 -872h-242z" />
    <glyph glyph-name="angleright" unicode="&#x232a;" horiz-adv-x="416" 
d="M-11 -211l205 872l-205 865h242l197 -865l-197 -872h-242z" />
    <glyph glyph-name="uni2460" unicode="&#x2460;" horiz-adv-x="825" 
d="M207.5 22.5q-85.5 51.5 -130.5 141t-45 200.5v706q0 112 44.5 201t130.5 140.5t205 51.5t205 -51.5t131 -141t45 -200.5v-706q0 -111 -45 -200.5t-131 -141t-205 -51.5t-204.5 51.5zM142.5 197.5q36.5 -72.5 106 -113.5t163.5 -41q95 0 164.5 40t106 112.5t36.5 167.5
v708q0 96 -36.5 168t-105.5 112t-164 40t-164.5 -41t-106 -113.5t-36.5 -165.5v-708q0 -93 36.5 -165.5zM263 1083h31q34 0 46.5 11.5t12.5 37.5h162v-831h-164v636h-88v146z" />
    <glyph glyph-name="uni2461" unicode="&#x2461;" horiz-adv-x="825" 
d="M207.5 22.5q-85.5 51.5 -130.5 141t-45 200.5v706q0 112 44.5 201t130.5 140.5t205 51.5t205 -51.5t131 -141t45 -200.5v-706q0 -111 -45 -200.5t-131 -141t-205 -51.5t-204.5 51.5zM142.5 197.5q36.5 -72.5 106 -113.5t163.5 -41q95 0 164.5 40t106 112.5t36.5 167.5
v708q0 96 -36.5 168t-105.5 112t-164 40t-164.5 -41t-106 -113.5t-36.5 -165.5v-708q0 -93 36.5 -165.5zM221 448l160 313q29 51 42 86.5t13 84.5v34q0 17 -6 27t-18 10q-25 0 -25 -36v-113h-166v107q0 85 51.5 132.5t140.5 47.5q90 0 141.5 -47t51.5 -138v-37
q0 -66 -24.5 -126t-72.5 -135l-117 -217h216v-140h-387v147z" />
    <glyph glyph-name="uni2462" unicode="&#x2462;" horiz-adv-x="825" 
d="M207.5 22.5q-85.5 51.5 -130.5 141t-45 200.5v706q0 112 44.5 201t130.5 140.5t205 51.5t205 -51.5t131 -141t45 -200.5v-706q0 -111 -45 -200.5t-131 -141t-205 -51.5t-204.5 51.5zM142.5 197.5q36.5 -72.5 106 -113.5t163.5 -41q95 0 164.5 40t106 112.5t36.5 167.5
v708q0 96 -36.5 168t-105.5 112t-164 40t-164.5 -41t-106 -113.5t-36.5 -165.5v-708q0 -93 36.5 -165.5zM218 561h166v-103q0 -33 23 -33q12 0 18.5 8.5t6.5 24.5v127q0 45 -13.5 62.5t-50.5 17.5h-29v140h28q25 0 39 7t20 25.5t6 54.5v83q0 34 -23 34t-23 -34v-89h-166v76
q0 85 48 132t140 47t141.5 -44t49.5 -131v-78q0 -61 -23.5 -99t-77.5 -52q55 -13 78.5 -48t23.5 -106v-117q0 -84 -49 -129t-143 -45q-92 0 -141 45t-49 124v100z" />
    <glyph glyph-name="uni2463" unicode="&#x2463;" horiz-adv-x="825" 
d="M207.5 22.5q-85.5 51.5 -130.5 141t-45 200.5v706q0 112 44.5 201t130.5 140.5t205 51.5t205 -51.5t131 -141t45 -200.5v-706q0 -111 -45 -200.5t-131 -141t-205 -51.5t-204.5 51.5zM142.5 197.5q36.5 -72.5 106 -113.5t163.5 -41q95 0 164.5 40t106 112.5t36.5 167.5
v708q0 96 -36.5 168t-105.5 112t-164 40t-164.5 -41t-106 -113.5t-36.5 -165.5v-708q0 -93 36.5 -165.5zM219 633l84 499h262v-509h43v-139h-43v-183h-151v183h-195v149zM414 623v372h-2l-48 -372h50z" />
    <glyph glyph-name="uni2464" unicode="&#x2464;" horiz-adv-x="825" 
d="M207.5 22.5q-85.5 51.5 -130.5 141t-45 200.5v706q0 112 44.5 201t130.5 140.5t205 51.5t205 -51.5t131 -141t45 -200.5v-706q0 -111 -45 -200.5t-131 -141t-205 -51.5t-204.5 51.5zM142.5 197.5q36.5 -72.5 106 -113.5t163.5 -41q95 0 164.5 40t106 112.5t36.5 167.5
v708q0 96 -36.5 168t-105.5 112t-164 40t-164.5 -41t-106 -113.5t-36.5 -165.5v-708q0 -93 36.5 -165.5zM224 568h170v-113q0 -29 22 -29q11 0 16.5 8t5.5 21v248q0 14 -6 22.5t-17 8.5q-34 0 -34 -59v-2h-153v459h368v-136h-206v-200q14 34 41.5 54t66.5 20
q57 0 83.5 -36.5t26.5 -98.5v-266q0 -85 -49.5 -131t-142.5 -46t-142.5 45t-49.5 128v103z" />
    <glyph glyph-name="uni2465" unicode="&#x2465;" horiz-adv-x="825" 
d="M207.5 22.5q-85.5 51.5 -130.5 141t-45 200.5v706q0 112 44.5 201t130.5 140.5t205 51.5t205 -51.5t131 -141t45 -200.5v-706q0 -111 -45 -200.5t-131 -141t-205 -51.5t-204.5 51.5zM142.5 197.5q36.5 -72.5 106 -113.5t163.5 -41q95 0 164.5 40t106 112.5t36.5 167.5
v708q0 96 -36.5 168t-105.5 112t-164 40t-164.5 -41t-106 -113.5t-36.5 -165.5v-708q0 -93 36.5 -165.5zM222 950q0 91 52 141t145 50q91 0 139.5 -50.5t48.5 -136.5v-63h-167v85q0 31 -25 31q-12 0 -18 -8.5t-6 -22.5q1 -41 1 -117q0 -68 -1 -92q16 27 43.5 42t62.5 15
q114 0 114 -142v-205q0 -90 -49.5 -137.5t-142.5 -47.5q-96 0 -146.5 48t-50.5 139v471zM398.5 435.5q6.5 -9.5 19.5 -9.5q11 0 17 9.5t6 24.5v206q0 35 -25 35q-12 0 -18 -9t-6 -24v-208q0 -15 6.5 -24.5z" />
    <glyph glyph-name="uni2466" unicode="&#x2466;" horiz-adv-x="825" 
d="M207.5 22.5q-85.5 51.5 -130.5 141t-45 200.5v706q0 112 44.5 201t130.5 140.5t205 51.5t205 -51.5t131 -141t45 -200.5v-706q0 -111 -45 -200.5t-131 -141t-205 -51.5t-204.5 51.5zM142.5 197.5q36.5 -72.5 106 -113.5t163.5 -41q95 0 164.5 40t106 112.5t36.5 167.5
v708q0 96 -36.5 168t-105.5 112t-164 40t-164.5 -41t-106 -113.5t-36.5 -165.5v-708q0 -93 36.5 -165.5zM249 1132h325v-156q-57 -111 -81.5 -260.5t-24.5 -343.5l1 -71h-174q0 214 37.5 386t122.5 302h-206v143z" />
    <glyph glyph-name="uni2467" unicode="&#x2467;" horiz-adv-x="825" 
d="M207.5 22.5q-85.5 51.5 -130.5 141t-45 200.5v706q0 112 44.5 201t130.5 140.5t205 51.5t205 -51.5t131 -141t45 -200.5v-706q0 -111 -45 -200.5t-131 -141t-205 -51.5t-204.5 51.5zM142.5 197.5q36.5 -72.5 106 -113.5t163.5 -41q95 0 164.5 40t106 112.5t36.5 167.5
v708q0 96 -36.5 168t-105.5 112t-164 40t-164.5 -41t-106 -113.5t-36.5 -165.5v-708q0 -93 36.5 -165.5zM216 584q0 69 19.5 105.5t67.5 56.5q-46 21 -64 58t-18 101v55q0 82 50.5 131.5t141.5 49.5q90 0 140.5 -49.5t50.5 -131.5v-55q0 -63 -18 -100.5t-64 -58.5
q49 -20 68.5 -56.5t19.5 -105.5v-90q0 -101 -50 -151.5t-147 -50.5q-197 0 -197 202v90zM413 429q13 0 19 9t6 27v169q0 36 -25 36t-25 -36v-169q0 -36 25 -36zM413 804q25 0 25 35v131q0 35 -25 35q-12 0 -18.5 -9.5t-6.5 -25.5v-131q0 -35 25 -35z" />
    <glyph glyph-name="uni2468" unicode="&#x2468;" horiz-adv-x="825" 
d="M207.5 22.5q-85.5 51.5 -130.5 141t-45 200.5v706q0 112 44.5 201t130.5 140.5t205 51.5t205 -51.5t131 -141t45 -200.5v-706q0 -111 -45 -200.5t-131 -141t-205 -51.5t-204.5 51.5zM142.5 197.5q36.5 -72.5 106 -113.5t163.5 -41q95 0 164.5 40t106 112.5t36.5 167.5
v708q0 96 -36.5 168t-105.5 112t-164 40t-164.5 -41t-106 -113.5t-36.5 -165.5v-708q0 -93 36.5 -165.5zM223 959q0 86 49.5 134t141.5 48q94 0 143 -46.5t49 -135.5v-484q0 -82 -50 -132.5t-139 -50.5q-91 0 -139 46.5t-48 134.5v82h165v-101q0 -28 23 -28q21 0 21 28v221
q-30 -56 -97 -56q-56 0 -87.5 34.5t-31.5 106.5v199zM398 752q6 -8 16 -8q11 0 17 8t6 21v205q0 27 -23 27q-22 0 -22 -27v-204q0 -14 6 -22z" />
    <glyph glyph-name="uni24EA" unicode="&#x24ea;" horiz-adv-x="825" 
d="M207.5 22.5q-85.5 51.5 -130.5 141t-45 200.5v706q0 112 44.5 201t130.5 140.5t205 51.5t205 -51.5t131 -141t45 -200.5v-706q0 -111 -45 -200.5t-131 -141t-205 -51.5t-204.5 51.5zM142.5 197.5q36.5 -72.5 106 -113.5t163.5 -41q95 0 164.5 40t106 112.5t36.5 167.5
v708q0 96 -36.5 168t-105.5 112t-164 40t-164.5 -41t-106 -113.5t-36.5 -165.5v-708q0 -93 36.5 -165.5zM220 959q0 81 50.5 131.5t141.5 50.5t141.5 -49t50.5 -133v-485q0 -86 -48.5 -134t-143.5 -48q-96 0 -144 47.5t-48 134.5v485zM412 430q13 0 17.5 9t4.5 28v508
q0 12 -5.5 20t-16.5 8t-16.5 -7.5t-5.5 -20.5v-508q0 -37 22 -37z" />
    <glyph glyph-name="uni24FF" unicode="&#x24ff;" horiz-adv-x="825" 
d="M617 22.5q86 51.5 131 141t45 200.5v706q0 111 -45 200.5t-131 141t-205 51.5t-205 -51.5t-130.5 -140.5t-44.5 -201v-706q0 -111 45 -200.5t130.5 -141t204.5 -51.5t205 51.5zM225 953q0 80 49.5 129.5t138.5 49.5t138 -48.5t49 -130.5v-474q0 -85 -47.5 -131.5
t-139.5 -46.5q-94 0 -141 46.5t-47 131.5v474zM413 436q12 0 16.5 9t4.5 28v497q0 11 -5.5 19t-15.5 8q-22 0 -22 -27v-497q0 -37 22 -37z" />
    <glyph glyph-name="filledbox" unicode="&#x25a0;" horiz-adv-x="1508" 
d="M37 1434h1434v-1434h-1434v1434z" />
    <glyph glyph-name="uni25A1" unicode="&#x25a1;" horiz-adv-x="1508" 
d="M37 1434h1434v-1434h-1434v1434zM1374 93v1248h-1240v-1248h1240z" />
    <glyph glyph-name="triagup" unicode="&#x25b2;" horiz-adv-x="1558" 
d="M779 1456l770 -1456h-1540z" />
    <glyph glyph-name="uni25B3" unicode="&#x25b3;" horiz-adv-x="1558" 
d="M779 1456l770 -1456h-1540zM1388 96l-609 1151l-609 -1151h1218z" />
    <glyph glyph-name="uni25B6" unicode="&#x25b6;" horiz-adv-x="1344" 
d="M61 1448l1270 -731l-1270 -730v1461z" />
    <glyph glyph-name="uni25B7" unicode="&#x25b7;" horiz-adv-x="1324" 
d="M64 1445l1246 -727l-1246 -728v1455zM1120 718l-958 559v-1118z" />
    <glyph glyph-name="triagdn" unicode="&#x25bc;" horiz-adv-x="1554" 
d="M1547 1434l-770 -1456l-770 1456h1540z" />
    <glyph glyph-name="uni25BD" unicode="&#x25bd;" horiz-adv-x="1554" 
d="M1547 1434l-770 -1456l-770 1456h1540zM777 187l609 1151h-1218z" />
    <glyph glyph-name="uni25C0" unicode="&#x25c0;" horiz-adv-x="1344" 
d="M13 717l1270 731v-1461z" />
    <glyph glyph-name="uni25C1" unicode="&#x25c1;" horiz-adv-x="1324" 
d="M14 718l1246 727v-1455zM1162 159v1118l-958 -559z" />
    <glyph glyph-name="uni25C6" unicode="&#x25c6;" horiz-adv-x="1582" 
d="M17 721l774 770l774 -770l-774 -778z" />
    <glyph glyph-name="uni25C7" unicode="&#x25c7;" horiz-adv-x="1582" 
d="M17 721l774 770l774 -770l-774 -778zM791 78l639 642l-639 636l-639 -636z" />
    <glyph glyph-name="circle" unicode="&#x25cb;" horiz-adv-x="1535" 
d="M391.5 69q-171.5 100 -272 271.5t-100.5 376.5t100.5 376.5t272 271.5t376.5 100t376.5 -100t271.5 -271.5t100 -376.5t-100 -376.5t-271.5 -271.5t-376.5 -100t-376.5 100zM194.5 384q88.5 -152 240.5 -240.5t333 -88.5t332.5 89t240 240.5t88.5 332.5t-88.5 332.5
t-240 240.5t-332.5 89t-333 -88.5t-240.5 -240.5t-88.5 -333t88.5 -333z" />
    <glyph glyph-name="uni25CF" unicode="&#x25cf;" horiz-adv-x="1535" 
d="M1144.5 69q171.5 100 271.5 271.5t100 376.5t-100 376.5t-271.5 271.5t-376.5 100t-376.5 -100t-272 -271.5t-100.5 -376.5t100.5 -376.5t272 -271.5t376.5 -100t376.5 100z" />
    <glyph glyph-name="uni2605" unicode="&#x2605;" horiz-adv-x="1358" 
d="M849 866h502l1 -4l-406 -295l218 -584l-3 -2l-482 382l-482 -382l-3 2l218 584l-406 295l1 4h502l168 603h4zM679 647v-1v1z" />
    <glyph glyph-name="uni2661" unicode="&#x2661;" horiz-adv-x="1493" 
d="M338 368.5q-157 176.5 -239 340.5t-82 327q0 128 47.5 226.5t135 153t202.5 54.5q116 0 208.5 -59t135.5 -160q43 101 135.5 160t208.5 59q115 0 202.5 -54.5t135 -153t47.5 -226.5q0 -161 -81 -324t-239 -340t-411 -405q-249 225 -406 401.5zM230 788.5
q59 -130.5 184 -283t330 -348.5q210 201 335.5 353t184 280t58.5 250q0 134 -65.5 212.5t-180.5 78.5q-118 0 -185 -70t-77 -207h-135q-11 137 -78 207t-185 70q-116 0 -180.5 -77.5t-64.5 -211.5q0 -123 59 -253.5z" />
    <glyph glyph-name="heart" unicode="&#x2665;" horiz-adv-x="1493" 
d="M342 366q-157 178 -241 345.5t-84 330.5q0 126 48 223.5t135 151t198 53.5q138 0 229 -80t119 -215q27 136 119 215.5t229 79.5q112 0 198.5 -53.5t134.5 -151.5t48 -225q0 -161 -81.5 -325.5t-239.5 -343t-410 -404.5q-245 221 -402 399z" />
    <glyph glyph-name="uni2715" unicode="&#x2715;" horiz-adv-x="1463" 
d="M732 571l574 -575l147 146l-575 575l575 575l-147 147l-574 -575l-575 575l-147 -147l722 -721l146 146l-146 147l-722 -722l147 -146z" />
    <glyph glyph-name="uni2736" unicode="&#x2736;" horiz-adv-x="1338" 
d="M805 484l-133 -519h-4l-133 519l-517 -144l-2 3l382 374l-382 374l2 3l517 -144l133 519h4l133 -519l514 144l2 -3l-382 -374l382 -374l-2 -3z" />
    <glyph glyph-name="uni2776" unicode="&#x2776;" horiz-adv-x="825" 
d="M617 22.5q86 51.5 131 141t45 200.5v706q0 111 -45 200.5t-131 141t-205 51.5t-205 -51.5t-130.5 -140.5t-44.5 -201v-706q0 -111 45 -200.5t130.5 -141t204.5 -51.5t205 51.5zM267 1075h30q34 0 46 11.5t12 36.5h158v-813h-160v623h-86v142z" />
    <glyph glyph-name="uni2777" unicode="&#x2777;" horiz-adv-x="825" 
d="M617 22.5q86 51.5 131 141t45 200.5v706q0 111 -45 200.5t-131 141t-205 51.5t-205 -51.5t-130.5 -140.5t-44.5 -201v-706q0 -111 45 -200.5t130.5 -141t204.5 -51.5t205 51.5zM225 454l157 306q29 51 41.5 85t12.5 82v33q0 17 -6 27t-18 10q-24 0 -24 -35v-110h-163v104
q0 83 50.5 129.5t137.5 46.5q88 0 138.5 -45.5t50.5 -135.5v-36q0 -65 -24 -123t-71 -133l-114 -212h211v-137h-379v144z" />
    <glyph glyph-name="uni2778" unicode="&#x2778;" horiz-adv-x="825" 
d="M617 22.5q86 51.5 131 141t45 200.5v706q0 111 -45 200.5t-131 141t-205 51.5t-205 -51.5t-130.5 -140.5t-44.5 -201v-706q0 -111 45 -200.5t130.5 -141t204.5 -51.5t205 51.5zM222 564h163v-101q0 -15 6 -23.5t17 -8.5q24 0 24 32v125q0 43 -13 60.5t-49 17.5h-29v137
h28q25 0 38 6.5t19 24.5t6 54v82q0 33 -22 33q-23 0 -23 -33v-87h-163v74q0 83 47.5 129t137.5 46q89 0 137.5 -43t48.5 -129v-75q0 -60 -23 -96.5t-75 -51.5q54 -13 77 -47t23 -104v-115q0 -82 -48 -126t-140 -44q-90 0 -138.5 44t-48.5 122v97z" />
    <glyph glyph-name="uni2779" unicode="&#x2779;" horiz-adv-x="825" 
d="M617 22.5q86 51.5 131 141t45 200.5v706q0 111 -45 200.5t-131 141t-205 51.5t-205 -51.5t-130.5 -140.5t-44.5 -201v-706q0 -111 45 -200.5t130.5 -141t204.5 -51.5t205 51.5zM223 635l83 488h256v-498h43v-136h-43v-179h-147v179h-192v146zM415 625v364h-3l-47 -364h50
z" />
    <glyph glyph-name="uni277A" unicode="&#x277a;" horiz-adv-x="825" 
d="M617 22.5q86 51.5 131 141t45 200.5v706q0 111 -45 200.5t-131 141t-205 51.5t-205 -51.5t-130.5 -140.5t-44.5 -201v-706q0 -111 45 -200.5t130.5 -141t204.5 -51.5t205 51.5zM229 571h166v-110q0 -28 21 -28q22 0 22 28v243q0 14 -6 22t-17 8q-16 0 -24.5 -14.5
t-8.5 -43.5v-2h-150v449h361v-133h-202v-196q13 34 40.5 53t65.5 19q55 0 81 -35t26 -96v-260q0 -84 -48.5 -129t-139.5 -45q-90 0 -138.5 44t-48.5 125v101z" />
    <glyph glyph-name="uni277B" unicode="&#x277b;" horiz-adv-x="825" 
d="M617 22.5q86 51.5 131 141t45 200.5v706q0 111 -45 200.5t-131 141t-205 51.5t-205 -51.5t-130.5 -140.5t-44.5 -201v-706q0 -111 45 -200.5t130.5 -141t204.5 -51.5t205 51.5zM226 945q0 88 50.5 137.5t141.5 49.5q88 0 136 -49t48 -134v-62h-163v84q0 29 -24 29
q-12 0 -18 -8t-6 -21q1 -40 1 -115q0 -66 -1 -90q15 26 42.5 41t61.5 15q54 0 82.5 -34.5t28.5 -104.5v-201q0 -88 -48.5 -134.5t-139.5 -46.5q-94 0 -143 47t-49 136v461zM398.5 442q6.5 -9 18.5 -9t17.5 9t5.5 24v201q0 35 -24 35q-12 0 -18 -8.5t-6 -23.5v-204
q0 -15 6.5 -24z" />
    <glyph glyph-name="uni277C" unicode="&#x277c;" horiz-adv-x="825" 
d="M617 22.5q86 51.5 131 141t45 200.5v706q0 111 -45 200.5t-131 141t-205 51.5t-205 -51.5t-130.5 -140.5t-44.5 -201v-706q0 -111 45 -200.5t130.5 -141t204.5 -51.5t205 51.5zM253 1123h318v-152q-57 -109 -80 -256t-23 -343v-62h-170q0 209 37 377.5t120 295.5h-202
v140z" />
    <glyph glyph-name="uni277D" unicode="&#x277d;" horiz-adv-x="825" 
d="M617 22.5q86 51.5 131 141t45 200.5v706q0 111 -45 200.5t-131 141t-205 51.5t-205 -51.5t-130.5 -140.5t-44.5 -201v-706q0 -111 45 -200.5t130.5 -141t204.5 -51.5t205 51.5zM219 587q0 67 19 103t67 55q-46 21 -63 57t-17 99v54q0 81 49 129t139 48q88 0 137 -48.5
t49 -128.5v-54q0 -62 -17.5 -98.5t-62.5 -57.5q48 -19 67 -55t19 -103v-88q0 -99 -49 -148.5t-143 -49.5q-194 0 -194 198v88zM413 435q24 0 24 35v166q0 35 -24 35q-13 0 -19.5 -9t-6.5 -26v-166q0 -35 26 -35zM413 802q24 0 24 35v128q0 34 -24 34q-13 0 -19.5 -9
t-6.5 -25v-128q0 -35 26 -35z" />
    <glyph glyph-name="uni277E" unicode="&#x277e;" horiz-adv-x="825" 
d="M617 22.5q86 51.5 131 141t45 200.5v706q0 111 -45 200.5t-131 141t-205 51.5t-205 -51.5t-130.5 -140.5t-44.5 -201v-706q0 -111 45 -200.5t130.5 -141t204.5 -51.5t205 51.5zM226 953q0 85 49 132t139 47q91 0 139.5 -46t48.5 -133v-472q0 -82 -49.5 -131t-136.5 -49
q-88 0 -135.5 45.5t-47.5 131.5v80h161v-98q0 -27 23 -27q21 0 21 27v216q-29 -55 -95 -55q-55 0 -86 34t-31 104v194zM414 744q10 0 16 7t6 20v202q0 26 -22 26t-22 -26v-200q0 -29 22 -29z" />
    <glyph glyph-name="uni2796" unicode="&#x2796;" horiz-adv-x="1482" 
d="M19 825h1444v-204h-1444v204z" />
    <glyph glyph-name="uni2E18" unicode="&#x2e18;" horiz-adv-x="583" 
d="M446 1079q40 -40 40 -100t-40 -100t-99 -40t-98.5 40t-39.5 100t39.5 100t98.5 40t99 -40zM14 218q0 129 53.5 215t206.5 86h9l-39 287h207l108 -601h-233l-18 134q-31 -7 -41.5 -27t-10.5 -61v-339q0 -50 37 -50t37 50v225h238v-200q0 -134 -73 -207.5t-208 -73.5
q-128 0 -200.5 75t-72.5 210v277z" />
    <glyph glyph-name="uni300A" unicode="&#x300a;" horiz-adv-x="715" 
d="M-12 661l197 865h242l-205 -865l205 -872h-242zM287 661l197 865h242l-205 -865l205 -872h-242z" />
    <glyph glyph-name="uni300B" unicode="&#x300b;" horiz-adv-x="715" 
d="M288 -211l205 872l-205 865h242l197 -865l-197 -872h-242zM194 661l-205 865h242l197 -865l-197 -872h-242z" />
    <glyph glyph-name="uni300C" unicode="&#x300c;" horiz-adv-x="371" 
d="M31 1526h337v-191h-121v-370h-216v561z" />
    <glyph glyph-name="uni300D" unicode="&#x300d;" horiz-adv-x="354" 
d="M324 -209h-337v191h121v370h216v-561z" />
    <glyph glyph-name="uni300E" unicode="&#x300e;" horiz-adv-x="475" 
d="M33 1526h431v-273h-134v-334h-297v607zM205 1034v334h131v43h-175v-377h44z" />
    <glyph glyph-name="uni300F" unicode="&#x300f;" horiz-adv-x="461" 
d="M429 -211h-431v273h134v334h297v-607zM301 -96v377h-44v-334h-131v-43h175z" />
    <glyph glyph-name="uni3010" unicode="&#x3010;" horiz-adv-x="451" 
d="M44 1526h434q-119 -197 -172 -410.5t-53 -454.5q0 -495 225 -870h-434v1735z" />
    <glyph glyph-name="uni3011" unicode="&#x3011;" horiz-adv-x="451" 
d="M198 661q0 241 -53 454.5t-172 410.5h434v-1735h-434q225 375 225 870z" />
    <glyph glyph-name="uni3014" unicode="&#x3014;" horiz-adv-x="443" 
d="M36 4v1285l265 280l163 -155l-193 -198v-1136l186 -205l-162 -151z" />
    <glyph glyph-name="uni3015" unicode="&#x3015;" horiz-adv-x="443" 
d="M-14 -125l186 205v1136l-193 198l163 155l265 -280v-1285l-259 -280z" />
    <glyph glyph-name="uniE000" unicode="&#xe000;" horiz-adv-x="682" 
d="M20 192h298l-298 267v249l211 -181v907h222v-905l209 179v-249l-295 -267h295v-192h-642v192z" />
    <glyph glyph-name="uniE001" unicode="&#xe001;" horiz-adv-x="682" 
d="M662 1242h-298l298 -267v-249l-211 181v-907h-222v905l-209 -179v249l295 267h-295v192h642v-192z" />
    <glyph glyph-name="uniF8FF" unicode="&#xf8ff;" horiz-adv-x="2500" 
d="M1524 398q45 102 45 192q0 18 -1 27l-50 -76q-66 -102 -101 -159.5t-52 -105.5l-215 -157q-3 5 -3 11q0 22 21 63t44 63q-44 -22 -77 -22q-25 0 -37 16l170 115q49 89 129 247q-82 -121 -191 -172l-15 -22q-71 -107 -124 -176t-85 -84q-20 -10 -82 -27q-35 -10 -33 -10
q-71 -22 -158.5 -57.5t-152.5 -67.5l-209 -47q-2 15 20 50t45 50q-48 -12 -84 -12q-21 0 -37 4q15 27 42 42t57 21.5t79 11.5q16 1 46 5q79 22 165.5 85t223.5 182l42 36q-126 -27 -237.5 -67.5t-198.5 -82.5t-210 -106l-258 -70q-3 11 14 32t43.5 42.5t48.5 31.5
q-7 -1 -22 -1q-32 0 -56.5 8.5t-29.5 26.5l200 47l170 80q-90 -21 -179 -34t-136 -12l-70 152q106 15 213 69t168 115q-10 27 -10 55q0 64 53 105t143 45q19 31 50 54q-37 105 -37 205q0 87 26 149q41 -32 81 -133t57 -174h-1q8 0 20 -2q35 119 90 194.5t126 106.5
q0 -63 -34 -154q18 8 45 23t39 22q18 9 43.5 23t41.5 22q113 61 197 101t170 66t164 26q111 0 191 -41.5t125 -110.5q50 -3 98.5 13.5t87.5 45.5q-45 15 -74 49.5t-29 68.5q0 27 21.5 44t66.5 17q52 0 77 -17t25 -46q0 -25 -18.5 -55t-50.5 -57q13 -4 33 -4q70 0 124 36.5
t121 115.5l7 -6q-68 -79 -124 -116.5t-128 -37.5q-19 0 -41 5q-40 -31 -89.5 -49t-100.5 -17q42 -72 42 -150q0 -73 -24.5 -134t-60.5 -108t-93 -106q-68 -70 -106.5 -123t-53.5 -121q-20 -88 -54 -153t-66 -102t-69 -71l-17 -16l-201 -149q-3 6 -3 18q0 23 8.5 53.5
t20.5 47.5q-31 -21 -57 -34t-53 -18q5 44 42 73.5t105 63.5l39 21q88 77 133 179zM101 328q52 0 145.5 14.5t189 37.5t154.5 48q24 9 50 47q11 20 22.5 29t32.5 6q12 24 29 36t35 12q19 0 34 -13q6 19 18.5 32t31.5 13q4 0 14 -2q5 17 15 31q-24 -10 -42 -12.5t-41 -2.5
q-42 0 -87 21.5t-66 52.5q-65 -70 -154 -70q-48 0 -70 41q-59 -61 -165 -114.5t-210 -69.5zM100.5 450q5.5 13 14.5 13t15 -13t6 -32q0 -21 -5.5 -34t-15.5 -13q-9 0 -14.5 13.5t-5.5 33.5q0 19 5.5 32zM162 435.5q6 13.5 15 13.5t14.5 -13.5t5.5 -32.5q0 -20 -5.5 -33.5
t-14.5 -13.5q-10 0 -15.5 13.5t-5.5 33.5q0 19 6 32.5zM304 178q129 67 215 108.5t199.5 82.5t241.5 67l20 17q85 73 138.5 116.5t106.5 81.5l9 -6q-88 -62 -250 -199l-62 -54q-136 -119 -226 -185.5t-171 -91.5l35 -103q99 41 170 68.5t133 46.5h2q84 25 113 39
q31 16 73 71.5t131 184.5l24 35q8 11 35 49.5t45 61t29 32.5l7 -6q-31 -27 -106 -139q166 84 261 336q57 148 117 235.5t141 87.5q38 0 50 -21t12 -59q0 -53 -57 -151.5t-162 -249.5l-4 -6q2 -12 2 -38q0 -88 -43.5 -189.5t-128.5 -180.5l86 -65q6 5 49 44t86 116.5
t63 172.5q15 69 55 124.5t107 123.5q58 61 93 105.5t59 104t24 132.5q0 74 -39.5 144t-120 114.5t-196.5 44.5q-77 0 -161.5 -26t-163 -63.5t-200.5 -102.5q-40 -22 -60 -32q-88 -48 -120 -64q-43 -108 -101 -174q26 -28 42 -62l-8 -4q-25 53 -60 77.5t-75 24.5
q-49 0 -96.5 -30.5t-69.5 -71.5q-63 -1 -106 -21t-64 -52q59 -19 107 -28t98 -9q107 0 274 51l2 -9q-89 -26 -155 -38t-121 -12q-51 0 -98.5 9.5t-110.5 28.5q-17 -25 -17 -65q0 -38 19 -64.5t57 -26.5q55 0 89 21t65 53q18 -31 64 -54.5t89 -23.5q26 0 46.5 3.5t49.5 17.5
q14 11 34 11q47 0 116 -60q21 -18 21 -35q0 -35 -77.5 -62t-184 -42t-180.5 -13q-7 -7 -19 -12q-65 -26 -152 -47q-111 -57 -193 -92zM522 714q11 7 30 7q17 0 27.5 -7t10.5 -18q0 -10 -10.5 -17t-27.5 -7q-19 0 -30 6.5t-11 17.5t11 18zM613 1116q0 -93 35 -197
q25 19 54 30t57 12q-16 68 -51.5 161.5t-71.5 130.5q-23 -59 -23 -137zM653 455q10 0 28 2q4 13 4 45q-13 -1 -20.5 -7.5t-18.5 -23.5q-6 -10 -10 -15q6 -1 17 -1zM722.5 486.5q10.5 -6.5 25.5 -11.5q30 19 41 61q-16 13 -32 13q-31 0 -55 -44q10 -12 20.5 -18.5zM857 924
q51 56 92.5 153t46.5 168q-60 -25 -113 -100.5t-87 -187.5q34 -8 61 -33zM817.5 518q8.5 -7 22.5 -10q13 4 18.5 18.5t5.5 33.5q0 13 -1 18q15 -7 36.5 -12t35.5 -5q6 11 9 31t1 38q-11 4 -24 4q-41 0 -58 -56q-10 3 -19 3q-32 0 -43 -38l-1 -5q9 -13 17.5 -20zM857 464
q-17 27 -31 32q-5 -6 -10 -17.5t-6 -22.5q19 2 47 8zM847 725q13 8 32 8t31 -8t12 -20q0 -13 -12 -21t-31 -8q-20 0 -32.5 8t-12.5 21q0 12 13 20zM951 487q-31 35 -55 35q-10 -13 -10 -34q0 -12 2 -18q29 6 63 17zM1044 545q-34 17 -49 17q-7 0 -13 -3q-12 -18 -15 -67
q70 24 77 53zM1360 291q23 55 64.5 122.5t113.5 176.5l33 49q111 162 164.5 252.5t53.5 142.5q0 39 -12 55.5t-42 16.5q-77 0 -135 -86t-115 -232l-13 -33l-9 -22q-12 -32 -73.5 -155t-110.5 -211zM2097 1451q-20 -15 -20 -40q0 -31 29.5 -64t73.5 -45q32 26 51 54.5
t19 53.5q0 26 -23 41t-70 15q-40 0 -60 -15z" />
    <glyph glyph-name="uniFF0A" unicode="&#xff0a;" horiz-adv-x="1496" 
d="M857 521v-521h-218v521l-482 -302l-116 184l502 314l-502 314l116 184l482 -302v521h218v-521l482 302l116 -184l-502 -314l502 -314l-116 -184z" />
    <glyph glyph-name="uniFF0B" unicode="&#xff0b;" horiz-adv-x="1547" 
d="M51 825h609v609h226v-609h610v-204h-610v-621h-226v621h-609v204z" />
    <glyph glyph-name="Adieresis.ss12" horiz-adv-x="648" 
d="M126 1434h389l137 -1434h-261l-21 347h-94l-17 -347h-255zM105 1657h187v-180h-187v180zM359 564l-38 645h-2l-32 -645h72zM351 1657h187v-180h-187v180z" />
    <glyph glyph-name="Cdotaccent.ss12" horiz-adv-x="638" 
d="M106 57q-75 73 -75 203v905q0 86 34.5 150.5t101 100t159.5 35.5q139 0 215.5 -76t76.5 -210v-262h-255v288q0 20 -9.5 32.5t-27.5 12.5t-27.5 -12.5t-9.5 -32.5v-949q0 -20 9.5 -31.5t27.5 -11.5t27.5 11.5t9.5 31.5v332h255v-314q0 -128 -76.5 -202t-218.5 -74t-217 73
zM208 1698h230v-221h-230v221z" />
    <glyph glyph-name="Edieresis.ss12" horiz-adv-x="535" 
d="M37 1434h477v-216h-226v-367h191v-216h-191v-419h226v-216h-477v1434zM62 1657h187v-180h-187v180zM308 1657h187v-180h-187v180z" />
    <glyph glyph-name="Edotaccent.ss12" horiz-adv-x="535" 
d="M37 1434h477v-216h-226v-367h191v-216h-191v-419h226v-216h-477v1434zM162 1698h230v-221h-230v221z" />
    <glyph glyph-name="G.ss06" horiz-adv-x="662" 
d="M84 43q-52 59 -52 173v954q0 83 35.5 146.5t104 99t163.5 35.5q90 0 156 -34.5t100.5 -96.5t34.5 -144v-226h-254v236q0 23 -10.5 36.5t-30.5 13.5t-30.5 -13.5t-10.5 -36.5v-920q0 -31 14 -48.5t38 -17.5q25 0 38 17t13 49v295h-70v208h307v-769h-216v92
q-25 -52 -73 -80t-110 -28q-95 0 -147 59z" />
    <glyph glyph-name="Gbreve.ss06" horiz-adv-x="662" 
d="M84 43q-52 59 -52 173v954q0 83 35.5 146.5t104 99t163.5 35.5q90 0 156 -34.5t100.5 -96.5t34.5 -144v-226h-254v236q0 23 -10.5 36.5t-30.5 13.5t-30.5 -13.5t-10.5 -36.5v-920q0 -31 14 -48.5t38 -17.5q25 0 38 17t13 49v295h-70v208h307v-769h-216v92
q-25 -52 -73 -80t-110 -28q-95 0 -147 59zM274 1633q2 -23 15.5 -38t38.5 -15q24 0 38 15.5t17 37.5h151q-4 -75 -56.5 -120t-149.5 -45t-149 45t-56 120h151z" />
    <glyph glyph-name="Gcircumflex.ss06" horiz-adv-x="662" 
d="M84 43q-52 59 -52 173v954q0 83 35.5 146.5t104 99t163.5 35.5q90 0 156 -34.5t100.5 -96.5t34.5 -144v-226h-254v236q0 23 -10.5 36.5t-30.5 13.5t-30.5 -13.5t-10.5 -36.5v-920q0 -31 14 -48.5t38 -17.5q25 0 38 17t13 49v295h-70v208h307v-769h-216v92
q-25 -52 -73 -80t-110 -28q-95 0 -147 59zM177 1652q83 -8 150 -8t150 8l75 -175h-184l-41 94l-41 -94h-183z" />
    <glyph glyph-name="uni0122.ss06" horiz-adv-x="662" 
d="M84 43q-52 59 -52 173v954q0 83 35.5 146.5t104 99t163.5 35.5q90 0 156 -34.5t100.5 -96.5t34.5 -144v-226h-254v236q0 23 -10.5 36.5t-30.5 13.5t-30.5 -13.5t-10.5 -36.5v-920q0 -31 14 -48.5t38 -17.5q25 0 38 17t13 49v295h-70v208h307v-769h-216v92
q-25 -52 -73 -80t-110 -28q-95 0 -147 59zM231 -59h207l-83 -256h-163z" />
    <glyph glyph-name="uni0122.ss06.ss12" horiz-adv-x="662" 
d="M84 43q-52 59 -52 173v954q0 83 35.5 146.5t104 99t163.5 35.5q90 0 156 -34.5t100.5 -96.5t34.5 -144v-226h-254v236q0 23 -10.5 36.5t-30.5 13.5t-30.5 -13.5t-10.5 -36.5v-920q0 -31 14 -48.5t38 -17.5q25 0 38 17t13 49v295h-70v208h307v-769h-216v92
q-25 -52 -73 -80t-110 -28q-95 0 -147 59zM234 -57h210v-176l-91 -156h-112l96 156h-103v176z" />
    <glyph glyph-name="uni0122.ss12" horiz-adv-x="663" 
d="M113 55.5q-82 71.5 -82 209.5v897q0 87 36 152.5t104.5 101t163.5 35.5q92 0 158 -34.5t101 -98t35 -147.5v-218h-258v233q0 23 -10 36.5t-30 13.5t-30 -13.5t-10 -36.5v-919q0 -64 63 -64q22 0 38 9v348h-68v211h308v-714q-45 -31 -121.5 -52t-155.5 -21
q-160 0 -242 71.5zM237 -57h210v-176l-91 -156h-112l96 156h-103v176z" />
    <glyph glyph-name="Gdotaccent.ss06" horiz-adv-x="662" 
d="M84 43q-52 59 -52 173v954q0 83 35.5 146.5t104 99t163.5 35.5q90 0 156 -34.5t100.5 -96.5t34.5 -144v-226h-254v236q0 23 -10.5 36.5t-30.5 13.5t-30.5 -13.5t-10.5 -36.5v-920q0 -31 14 -48.5t38 -17.5q25 0 38 17t13 49v295h-70v208h307v-769h-216v92
q-25 -52 -73 -80t-110 -28q-95 0 -147 59zM238.5 1687q36.5 36 90.5 36q56 0 91.5 -36t35.5 -92q0 -54 -36 -90.5t-91 -36.5q-54 0 -90.5 36.5t-36.5 90.5q0 56 36.5 92z" />
    <glyph glyph-name="Gdotaccent.ss06.ss12" horiz-adv-x="662" 
d="M84 43q-52 59 -52 173v954q0 83 35.5 146.5t104 99t163.5 35.5q90 0 156 -34.5t100.5 -96.5t34.5 -144v-226h-254v236q0 23 -10.5 36.5t-30.5 13.5t-30.5 -13.5t-10.5 -36.5v-920q0 -31 14 -48.5t38 -17.5q25 0 38 17t13 49v295h-70v208h307v-769h-216v92
q-25 -52 -73 -80t-110 -28q-95 0 -147 59zM214 1698h230v-221h-230v221z" />
    <glyph glyph-name="Gdotaccent.ss12" horiz-adv-x="663" 
d="M113 55.5q-82 71.5 -82 209.5v897q0 87 36 152.5t104.5 101t163.5 35.5q92 0 158 -34.5t101 -98t35 -147.5v-218h-258v233q0 23 -10 36.5t-30 13.5t-30 -13.5t-10 -36.5v-919q0 -64 63 -64q22 0 38 9v348h-68v211h308v-714q-45 -31 -121.5 -52t-155.5 -21
q-160 0 -242 71.5zM216 1698h230v-221h-230v221z" />
    <glyph glyph-name="IJ.ss07" horiz-adv-x="785" 
d="M37 1434h251v-1434h-251v1434zM395.5 -5q-34.5 5 -56.5 13v217q10 -4 29 -7t38 -3q94 0 94 82v1137h250v-1179q0 -130 -71 -197.5t-214 -67.5q-35 0 -69.5 5z" />
    <glyph glyph-name="Idieresis.ss12" horiz-adv-x="325" 
d="M37 1434h251v-1434h-251v1434zM-52 1657h187v-180h-187v180zM194 1657h187v-180h-187v180z" />
    <glyph glyph-name="Idotaccent.ss12" horiz-adv-x="325" 
d="M37 1434h251v-1434h-251v1434zM49 1698h230v-221h-230v221z" />
    <glyph glyph-name="J.ss07" horiz-adv-x="460" 
d="M70.5 -5q-34.5 5 -56.5 13v217q10 -4 29 -7t38 -3q94 0 94 82v1137h250v-1179q0 -130 -71 -197.5t-214 -67.5q-35 0 -69.5 5z" />
    <glyph glyph-name="Jcircumflex.ss07" horiz-adv-x="460" 
d="M70.5 -5q-34.5 5 -56.5 13v217q10 -4 29 -7t38 -3q94 0 94 82v1137h250v-1179q0 -130 -71 -197.5t-214 -67.5q-35 0 -69.5 5zM141 1652q83 -8 150 -8t150 8l75 -175h-184l-41 94l-41 -94h-183z" />
    <glyph glyph-name="uni0136.ss12" horiz-adv-x="644" 
d="M288 722v-722h-251v1434h251v-608l106 608h254l-143 -636l143 -798h-260zM231 -57h210v-176l-91 -156h-112l96 156h-103v176z" />
    <glyph glyph-name="Lcaron.ss12" horiz-adv-x="529" 
d="M37 1434h251v-1210h205v-224h-456v1434zM324 1434h211v-176l-91 -156h-112l96 156h-104v176z" />
    <glyph glyph-name="uni013B.ss12" horiz-adv-x="506" 
d="M37 1434h251v-1210h205v-224h-456v1434zM165 -57h210v-176l-91 -156h-112l96 156h-103v176z" />
    <glyph glyph-name="Ldot.ss12" horiz-adv-x="559" 
d="M37 1434h251v-1210h205v-224h-456v1434zM321 833h226v-231h-226v231z" />
    <glyph glyph-name="M.ss08" horiz-adv-x="928" 
d="M55 1434h337l73 -989h2l72 989h333l32 -1434h-219l-16 1028h-2l-83 -1028h-240l-84 1017l-2 1l-15 -1018h-219z" />
    <glyph glyph-name="uni0145.ss12" horiz-adv-x="749" 
d="M37 1434h313l128 -822h2l-2 822h234v-1434h-292l-148 916h-2l1 -916h-234v1434zM273 -57h210v-176l-91 -156h-112l96 156h-103v176z" />
    <glyph glyph-name="Odieresis.ss12" horiz-adv-x="659" 
d="M105.5 60.5q-74.5 76.5 -74.5 221.5v870q0 90 35 157.5t102 104.5t161 37q143 0 221 -79t78 -220v-870q0 -144 -75 -221t-224 -77t-223.5 76.5zM115 1657h187v-180h-187v180zM329 199q37 0 37 45v946q0 20 -9.5 33t-27.5 13q-19 0 -28 -12.5t-9 -33.5v-946q0 -45 37 -45z
M361 1657h187v-180h-187v180z" />
    <glyph glyph-name="Q.rsd" horiz-adv-x="654" 
d="M244 92q-108 20 -161.5 94t-53.5 197v769q0 90 34.5 157.5t102 104.5t161.5 37q143 0 220.5 -79t77.5 -220v-769q0 -106 -40.5 -176t-120.5 -100l88 -143h-262zM327 300q37 0 37 45v846q0 20 -9.5 32.5t-27.5 12.5q-19 0 -28 -12t-9 -33v-846q0 -45 37 -45z" />
    <glyph glyph-name="R.ss09" horiz-adv-x="651" 
d="M37 1434h301q151 0 220.5 -71t69.5 -228v-118q0 -109 -25.5 -176.5t-75.5 -101.5l120 -739h-252l-85 636h-22v-636h-251v1434zM297 835q42 0 60 30.5t18 100.5v151q0 61 -17 87.5t-62 26.5h-8v-396h9z" />
    <glyph glyph-name="Racute.ss09" horiz-adv-x="651" 
d="M37 1434h301q151 0 220.5 -71t69.5 -228v-118q0 -109 -25.5 -176.5t-75.5 -101.5l120 -739h-252l-85 636h-22v-636h-251v1434zM221 1649h246l-56 -172h-227zM297 835q42 0 60 30.5t18 100.5v151q0 61 -17 87.5t-62 26.5h-8v-396h9z" />
    <glyph glyph-name="Rcaron.ss09" horiz-adv-x="651" 
d="M37 1434h301q151 0 220.5 -71t69.5 -228v-118q0 -109 -25.5 -176.5t-75.5 -101.5l120 -739h-252l-85 636h-22v-636h-251v1434zM260 1649l41 -94l41 94h183l-74 -175q-69 8 -150 8t-150 -8l-75 175h184zM297 835q42 0 60 30.5t18 100.5v151q0 61 -17 87.5t-62 26.5h-8
v-396h9z" />
    <glyph glyph-name="uni0156.ss09" horiz-adv-x="651" 
d="M37 1434h301q151 0 220.5 -71t69.5 -228v-118q0 -109 -25.5 -176.5t-75.5 -101.5l120 -739h-252l-85 636h-22v-636h-251v1434zM230 -59h207l-83 -256h-163zM297 835q42 0 60 30.5t18 100.5v151q0 61 -17 87.5t-62 26.5h-8v-396h9z" />
    <glyph glyph-name="uni0156.ss09.ss12" horiz-adv-x="651" 
d="M37 1434h301q151 0 220.5 -71t69.5 -228v-118q0 -109 -25.5 -176.5t-75.5 -101.5l120 -739h-252l-85 636h-22v-636h-251v1434zM233 -57h210v-176l-91 -156h-112l96 156h-103v176zM297 835q42 0 60 30.5t18 100.5v151q0 61 -17 87.5t-62 26.5h-8v-396h9z" />
    <glyph glyph-name="uni0156.ss12" horiz-adv-x="655" 
d="M37 1434h301q151 0 220.5 -68.5t69.5 -220.5v-127q0 -125 -45 -190.5t-129 -86.5q68 -10 105 -31.5t51.5 -57t14.5 -93.5v-559h-252v561q0 42 -18 58.5t-67 16.5v-636h-251v1434zM226 -57h210v-176l-91 -156h-112l96 156h-103v176zM297 840q41 0 59.5 29t18.5 86v185
q0 48 -18.5 69.5t-60.5 21.5h-8v-391h9z" />
    <glyph glyph-name="uni0218.ss12" horiz-adv-x="623" 
d="M95 59.5q-75 76.5 -75 206.5v239h252v-239q0 -28 10 -43t29 -15q41 0 41 67v142q0 59 -13 92.5t-43 64.5l-146 150q-69 71 -99 140.5t-30 169.5v105q0 97 36.5 167.5t104 107.5t159.5 37q84 0 148.5 -34t100 -101.5t35.5 -163.5v-167h-250v186q0 56 -37 56
q-21 0 -30.5 -15t-9.5 -48v-100q0 -46 11 -77t40 -62l142 -150q48 -50 76 -93t44 -100.5t16 -138.5v-147q0 -152 -76.5 -232.5t-221.5 -80.5q-139 0 -214 76.5zM208 -57h210v-176l-91 -156h-112l96 156h-103v176z" />
    <glyph glyph-name="uni021A.ss12" horiz-adv-x="578" 
d="M164 1210h-150v224h551v-224h-151v-1210h-250v1210zM184 -57h210v-176l-91 -156h-112l96 156h-103v176z" />
    <glyph glyph-name="Udieresis.ss12" horiz-adv-x="651" 
d="M108 54.5q-75 70.5 -75 195.5v1184h252v-1186q0 -20 10.5 -33t30.5 -13q19 0 29.5 13t10.5 33v1186h252v-1184q0 -125 -75 -195.5t-217 -70.5q-143 0 -218 70.5zM111 1657h187v-180h-187v180zM357 1657h187v-180h-187v180z" />
    <glyph glyph-name="Wdieresis.ss12" horiz-adv-x="912" 
d="M11 1434h233l29 -1049h2l54 1049h260l51 -1056h2l32 1056h227l-91 -1434h-307l-49 1029h-2l-44 -1029h-306zM243 1657h187v-180h-187v180zM489 1657h187v-180h-187v180z" />
    <glyph glyph-name="Y" horiz-adv-x="588" 
d="M149.5 535q-18.5 18 -64.5 18l-84 881h251l43 -698h2l42 698h249l-85 -881q-50 0 -66.5 -17.5t-16.5 -59.5v-476h-252v476q0 41 -18.5 59z" />
    <glyph glyph-name="Yacute" horiz-adv-x="588" 
d="M149.5 535q-18.5 18 -64.5 18l-84 881h251l43 -698h2l42 698h249l-85 -881q-50 0 -66.5 -17.5t-16.5 -59.5v-476h-252v476q0 41 -18.5 59zM217 1649h246l-56 -172h-227z" />
    <glyph glyph-name="Ycircumflex" horiz-adv-x="588" 
d="M149.5 535q-18.5 18 -64.5 18l-84 881h251l43 -698h2l42 698h249l-85 -881q-50 0 -66.5 -17.5t-16.5 -59.5v-476h-252v476q0 41 -18.5 59zM147 1652q83 -8 150 -8t150 8l75 -175h-184l-41 94l-41 -94h-183z" />
    <glyph glyph-name="Ydieresis" horiz-adv-x="588" 
d="M149.5 535q-18.5 18 -64.5 18l-84 881h251l43 -698h2l42 698h249l-85 -881q-50 0 -66.5 -17.5t-16.5 -59.5v-476h-252v476q0 41 -18.5 59zM107 1648.5q30 29.5 74 29.5q45 0 74.5 -29.5t29.5 -75.5q0 -44 -29.5 -73.5t-74.5 -29.5q-44 0 -74 29.5t-30 73.5q0 46 30 75.5z
M343.5 1648.5q29.5 29.5 73.5 29.5q45 0 74.5 -29.5t29.5 -75.5q0 -44 -29.5 -73.5t-74.5 -29.5q-44 0 -73.5 29.5t-29.5 73.5q0 46 29.5 75.5z" />
    <glyph glyph-name="Ydieresis.ss05.ss12" horiz-adv-x="585" 
d="M166 456l-174 978h254l48 -538h2l47 538h251l-176 -977v-457h-252v456zM81 1657h187v-180h-187v180zM327 1657h187v-180h-187v180z" />
    <glyph glyph-name="Ydieresis.ss12" horiz-adv-x="588" 
d="M149.5 535q-18.5 18 -64.5 18l-84 881h251l43 -698h2l42 698h249l-85 -881q-50 0 -66.5 -17.5t-16.5 -59.5v-476h-252v476q0 41 -18.5 59zM83 1657h187v-180h-187v180zM329 1657h187v-180h-187v180z" />
    <glyph glyph-name="Ygrave" horiz-adv-x="588" 
d="M149.5 535q-18.5 18 -64.5 18l-84 881h251l43 -698h2l42 698h249l-85 -881q-50 0 -66.5 -17.5t-16.5 -59.5v-476h-252v476q0 41 -18.5 59zM377 1649l37 -172h-227l-56 172h246z" />
    <glyph glyph-name="uni0232" horiz-adv-x="588" 
d="M149.5 535q-18.5 18 -64.5 18l-84 881h251l43 -698h2l42 698h249l-85 -881q-50 0 -66.5 -17.5t-16.5 -59.5v-476h-252v476q0 41 -18.5 59zM102 1643h391v-159h-391v159z" />
    <glyph glyph-name="Zdotaccent.ss12" horiz-adv-x="531" 
d="M15 236l256 981h-255v217h498v-242l-254 -975h258v-217h-503v236zM151 1698h230v-221h-230v221z" />
    <glyph glyph-name="a.rsd" horiz-adv-x="614" 
d="M16 591v147q0 99 22.5 159t70 94t128.5 54l101 26v142q0 43 -33 43t-33 -45v-111h-240v58q0 147 75 220t207 73q122 0 193 -65.5t71 -192.5v-663q0 -65 21 -202h-232q-8 55 -10 97q-20 -51 -63.5 -82t-99.5 -31q-178 0 -178 279zM275 534.5q8 -22.5 31 -22.5
q15 0 23.5 12.5t8.5 35.5v372l-15 -8q-34 -16 -45 -44.5t-11 -94.5v-176q0 -52 8 -74.5z" />
    <glyph glyph-name="a.ss01" 
d="M75 32q-44 48 -44 147v733q0 107 42.5 159t119.5 52q53 0 91.5 -29.5t58.5 -77.5v90h240v-1106h-240v86q-20 -50 -58.5 -76t-92.5 -26q-73 0 -117 48zM285.5 192q8.5 -12 24.5 -12t24.5 12t8.5 30v662q0 18 -8 29.5t-25 11.5q-16 0 -24.5 -11.5t-8.5 -29.5v-662
q0 -18 8.5 -30z" />
    <glyph glyph-name="a.ss01.rsd" 
d="M75 360q-44 48 -44 147v733q0 107 42.5 159t119.5 52q53 0 91.5 -29.5t58.5 -77.5v90h240v-1106h-240v86q-20 -50 -58.5 -76t-92.5 -26q-73 0 -117 48zM285.5 520q8.5 -12 24.5 -12t24.5 12t8.5 30v662q0 18 -8 29.5t-25 11.5q-16 0 -24.5 -11.5t-8.5 -29.5v-662
q0 -18 8.5 -30z" />
    <glyph glyph-name="aacute.ss01" 
d="M75 32q-44 48 -44 147v733q0 107 42.5 159t119.5 52q53 0 91.5 -29.5t58.5 -77.5v90h240v-1106h-240v86q-20 -50 -58.5 -76t-92.5 -26q-73 0 -117 48zM285.5 192q8.5 -12 24.5 -12t24.5 12t8.5 30v662q0 18 -8 29.5t-25 11.5q-16 0 -24.5 -11.5t-8.5 -29.5v-662
q0 -18 8.5 -30zM249 1364h234l-63 -202h-205z" />
    <glyph glyph-name="abreve.ss01" 
d="M75 32q-44 48 -44 147v733q0 107 42.5 159t119.5 52q53 0 91.5 -29.5t58.5 -77.5v90h240v-1106h-240v86q-20 -50 -58.5 -76t-92.5 -26q-73 0 -117 48zM285.5 192q8.5 -12 24.5 -12t24.5 12t8.5 30v662q0 18 -8 29.5t-25 11.5q-16 0 -24.5 -11.5t-8.5 -29.5v-662
q0 -18 8.5 -30zM178 1203q-53 50 -54 142h142q2 -31 16.5 -51t42.5 -20q27 0 42 20.5t17 50.5h142q-1 -92 -54 -142t-147 -50t-147 50z" />
    <glyph glyph-name="acircumflex.ss01" 
d="M75 32q-44 48 -44 147v733q0 107 42.5 159t119.5 52q53 0 91.5 -29.5t58.5 -77.5v90h240v-1106h-240v86q-20 -50 -58.5 -76t-92.5 -26q-73 0 -117 48zM285.5 192q8.5 -12 24.5 -12t24.5 12t8.5 30v662q0 18 -8 29.5t-25 11.5q-16 0 -24.5 -11.5t-8.5 -29.5v-662
q0 -18 8.5 -30zM337 1358q71 0 141 6l74 -202h-175l-41 101l-41 -101h-174l75 202q71 -6 141 -6z" />
    <glyph glyph-name="adieresis.ss01" 
d="M75 32q-44 48 -44 147v733q0 107 42.5 159t119.5 52q53 0 91.5 -29.5t58.5 -77.5v90h240v-1106h-240v86q-20 -50 -58.5 -76t-92.5 -26q-73 0 -117 48zM285.5 192q8.5 -12 24.5 -12t24.5 12t8.5 30v662q0 18 -8 29.5t-25 11.5q-16 0 -24.5 -11.5t-8.5 -29.5v-662
q0 -18 8.5 -30zM117.5 1185.5q-31.5 31.5 -31.5 78.5q0 49 31.5 80t78.5 31q48 0 79 -31t31 -80q0 -47 -31.5 -78.5t-78.5 -31.5t-78.5 31.5zM367.5 1344q31.5 31 78.5 31q48 0 79 -31t31 -80q0 -47 -31.5 -78.5t-78.5 -31.5t-78.5 31.5t-31.5 78.5q0 49 31.5 80z" />
    <glyph glyph-name="adieresis.ss01.ss12" 
d="M75 32q-44 48 -44 147v733q0 107 42.5 159t119.5 52q53 0 91.5 -29.5t58.5 -77.5v90h240v-1106h-240v86q-20 -50 -58.5 -76t-92.5 -26q-73 0 -117 48zM285.5 192q8.5 -12 24.5 -12t24.5 12t8.5 30v662q0 18 -8 29.5t-25 11.5q-16 0 -24.5 -11.5t-8.5 -29.5v-662
q0 -18 8.5 -30zM101 1360h198v-191h-198v191zM351 1360h199v-191h-199v191z" />
    <glyph glyph-name="adieresis.ss12" horiz-adv-x="613" 
d="M16 263v147q0 99 22.5 159t70 94t128.5 54l101 26v142q0 43 -33 43t-33 -45v-111h-240v58q0 147 75 220t207 73q122 0 193 -65.5t71 -192.5v-663q0 -65 21 -202h-232q-8 55 -10 97q-20 -51 -63.5 -82t-99.5 -31q-178 0 -178 279zM275 206.5q8 -22.5 31 -22.5
q15 0 23.5 12.5t8.5 35.5v372l-15 -8q-34 -16 -45 -44.5t-11 -94.5v-176q0 -52 8 -74.5zM86 1360h198v-191h-198v191zM336 1360h199v-191h-199v191z" />
    <glyph glyph-name="agrave.ss01" 
d="M75 32q-44 48 -44 147v733q0 107 42.5 159t119.5 52q53 0 91.5 -29.5t58.5 -77.5v90h240v-1106h-240v86q-20 -50 -58.5 -76t-92.5 -26q-73 0 -117 48zM285.5 192q8.5 -12 24.5 -12t24.5 12t8.5 30v662q0 18 -8 29.5t-25 11.5q-16 0 -24.5 -11.5t-8.5 -29.5v-662
q0 -18 8.5 -30zM228 1162l-63 202h234l34 -202h-205z" />
    <glyph glyph-name="amacron.ss01" 
d="M75 32q-44 48 -44 147v733q0 107 42.5 159t119.5 52q53 0 91.5 -29.5t58.5 -77.5v90h240v-1106h-240v86q-20 -50 -58.5 -76t-92.5 -26q-73 0 -117 48zM285.5 192q8.5 -12 24.5 -12t24.5 12t8.5 30v662q0 18 -8 29.5t-25 11.5q-16 0 -24.5 -11.5t-8.5 -29.5v-662
q0 -18 8.5 -30zM136 1327h376v-164h-376v164z" />
    <glyph glyph-name="aogonek.ss01" 
d="M75 32q-44 48 -44 147v733q0 107 42.5 159t119.5 52q53 0 91.5 -29.5t58.5 -77.5v90h240v-1106h1q-46 -17 -69.5 -47.5t-23.5 -62.5q0 -26 16 -41.5t48 -15.5q14 0 29 3v-146q-34 -12 -80 -12q-83 0 -129 41t-46 107q0 56 30 101t82 73h-98v86q-20 -50 -58.5 -76
t-92.5 -26q-73 0 -117 48zM285.5 192q8.5 -12 24.5 -12t24.5 12t8.5 30v662q0 18 -8 29.5t-25 11.5q-16 0 -24.5 -11.5t-8.5 -29.5v-662q0 -18 8.5 -30z" />
    <glyph glyph-name="aring.ss01" 
d="M75 32q-44 48 -44 147v733q0 107 42.5 159t119.5 52q53 0 91.5 -29.5t58.5 -77.5v90h240v-1106h-240v86q-20 -50 -58.5 -76t-92.5 -26q-73 0 -117 48zM285.5 192q8.5 -12 24.5 -12t24.5 12t8.5 30v662q0 18 -8 29.5t-25 11.5q-16 0 -24.5 -11.5t-8.5 -29.5v-662
q0 -18 8.5 -30zM203.5 1184q-48.5 33 -48.5 90q0 56 48.5 88.5t120.5 32.5q73 0 121 -32t48 -89t-48 -90t-121 -33q-72 0 -120.5 33zM292.5 1241.5q12.5 -12.5 31.5 -12.5t31.5 12.5t12.5 31.5t-12.5 32t-31.5 13t-31.5 -13t-12.5 -32t12.5 -31.5z" />
    <glyph glyph-name="atilde.ss01" 
d="M75 32q-44 48 -44 147v733q0 107 42.5 159t119.5 52q53 0 91.5 -29.5t58.5 -77.5v90h240v-1106h-240v86q-20 -50 -58.5 -76t-92.5 -26q-73 0 -117 48zM285.5 192q8.5 -12 24.5 -12t24.5 12t8.5 30v662q0 18 -8 29.5t-25 11.5q-16 0 -24.5 -11.5t-8.5 -29.5v-662
q0 -18 8.5 -30zM311 1177q-46 13 -62 13q-28 0 -28 -28h-131q-2 77 35 121.5t117 44.5q26 0 50.5 -5t57.5 -15q37 -11 51 -11q27 0 27 27h127q1 -81 -37 -123.5t-103 -42.5q-36 0 -104 19z" />
    <glyph glyph-name="ae.rsd" horiz-adv-x="914" 
d="M67 381q-52 69 -52 207v131q0 96 23 155.5t71 93t128 51.5l101 23v174q0 43 -34 43q-33 0 -33 -43v-116h-239v73q0 137 74.5 207.5t203.5 70.5q90 0 152 -44q60 44 151 44q128 0 201 -71.5t73 -201.5v-352h-308v-274q0 -17 8.5 -28t25.5 -11t25.5 11t8.5 28v212h240v-188
q0 -126 -72.5 -195t-198.5 -69q-71 0 -124.5 23.5t-84.5 69.5q-30 -44 -76.5 -68.5t-102.5 -24.5q-109 0 -161 69zM274.5 533.5q8.5 -22.5 30.5 -22.5q15 0 24 12.5t9 36.5v343l-16 -5q-35 -12 -45.5 -40.5t-10.5 -94.5v-155q0 -52 8.5 -74.5zM647 1008v204q0 18 -8.5 28.5
t-25.5 10.5t-25.5 -10.5t-8.5 -28.5v-204h68z" />
    <glyph glyph-name="c.rsd" horiz-adv-x="599" 
d="M99.5 383.5q-72.5 71.5 -72.5 203.5v590q0 132 74 203t204 71q129 0 201 -67.5t72 -200.5v-180h-240v203q0 42 -33 42q-17 0 -25 -11t-8 -31v-651q0 -19 8 -30t25 -11q33 0 33 41v220h240v-201q0 -129 -74 -195.5t-201 -66.5q-131 0 -203.5 71.5z" />
    <glyph glyph-name="cdotaccent.ss12" horiz-adv-x="598" 
d="M99.5 55.5q-72.5 71.5 -72.5 203.5v590q0 132 74 203t204 71q129 0 201 -67.5t72 -200.5v-180h-240v203q0 42 -33 42q-17 0 -25 -11t-8 -31v-651q0 -19 8 -30t25 -11q33 0 33 41v220h240v-201q0 -129 -74 -195.5t-201 -66.5q-131 0 -203.5 71.5zM184 1389h240v-231h-240
v231z" />
    <glyph glyph-name="dcaron.ss12" horiz-adv-x="735" 
d="M75 32q-44 48 -44 147v733q0 107 42.5 159t119.5 52q53 0 91.5 -29.5t58.5 -77.5v418h240v-1434h-240v86q-20 -50 -58.5 -76t-92.5 -26q-73 0 -117 48zM285.5 192q8.5 -12 24.5 -12t24.5 12t8.5 30v662q0 18 -8 29.5t-25 11.5q-16 0 -24.5 -11.5t-8.5 -29.5v-662
q0 -18 8.5 -30zM620 1434h211v-176l-91 -156h-112l96 156h-104v176z" />
    <glyph glyph-name="e.rsd" horiz-adv-x="603" 
d="M99.5 382q-72.5 70 -72.5 193v603q0 130 72.5 201.5t200.5 71.5q129 0 202.5 -71t73.5 -202v-352h-308v-274q0 -17 8.5 -28t25.5 -11t25.5 11t8.5 28v212h240v-188q0 -127 -73.5 -195.5t-202.5 -68.5q-128 0 -200.5 70zM336 1008v204q0 18 -8.5 28.5t-25.5 10.5
t-25.5 -10.5t-8.5 -28.5v-204h68z" />
    <glyph glyph-name="edieresis.ss12" horiz-adv-x="603" 
d="M99.5 54q-72.5 70 -72.5 193v603q0 130 72.5 201.5t200.5 71.5q129 0 202.5 -71t73.5 -202v-352h-308v-274q0 -17 8.5 -28t25.5 -11t25.5 11t8.5 28v212h240v-188q0 -127 -73.5 -195.5t-202.5 -68.5q-128 0 -200.5 70zM336 680v204q0 18 -8.5 28.5t-25.5 10.5
t-25.5 -10.5t-8.5 -28.5v-204h68zM77 1360h198v-191h-198v191zM327 1360h199v-191h-199v191z" />
    <glyph glyph-name="edotaccent.ss12" horiz-adv-x="603" 
d="M99.5 54q-72.5 70 -72.5 193v603q0 130 72.5 201.5t200.5 71.5q129 0 202.5 -71t73.5 -202v-352h-308v-274q0 -17 8.5 -28t25.5 -11t25.5 11t8.5 28v212h240v-188q0 -127 -73.5 -195.5t-202.5 -68.5q-128 0 -200.5 70zM336 680v204q0 18 -8.5 28.5t-25.5 10.5
t-25.5 -10.5t-8.5 -28.5v-204h68zM181 1389h240v-231h-240v231z" />
    <glyph glyph-name="g.rsd" horiz-adv-x="619" 
d="M104.5 49.5q-71.5 65.5 -71.5 191.5v90h240v-106q0 -48 36 -48q17 0 26 13t9 35v258q-44 -110 -157 -110q-66 0 -111 46t-45 143v684q0 104 42 154.5t115 50.5q61 0 99 -33.5t57 -88.5v105h240v-1192q0 -121 -73.5 -189.5t-200.5 -68.5q-134 0 -205.5 65.5zM284 586.5
q9 -12.5 26 -12.5t25.5 12t8.5 32v587q0 20 -8.5 31.5t-25.5 11.5t-26 -12t-9 -31v-587q0 -19 9 -31.5z" />
    <glyph glyph-name="g.ss17" 
d="M103.5 -120q-71.5 62 -71.5 181v40h240v-42q0 -48 36 -48q17 0 26 13t9 35v194q-44 -110 -157 -110q-66 0 -111 46t-45 143v586q0 104 42 154.5t115 50.5q61 0 99 -33.5t57 -88.5v105h240v-1045q0 -113 -73.5 -178t-200.5 -65q-134 0 -205.5 62zM283 356.5
q9 -12.5 26 -12.5t25.5 12t8.5 32v489q0 20 -8.5 31.5t-25.5 11.5t-26 -12t-9 -31v-489q0 -19 9 -31.5z" />
    <glyph glyph-name="gbreve.ss17" 
d="M103.5 -120q-71.5 62 -71.5 181v40h240v-42q0 -48 36 -48q17 0 26 13t9 35v194q-44 -110 -157 -110q-66 0 -111 46t-45 143v586q0 104 42 154.5t115 50.5q61 0 99 -33.5t57 -88.5v105h240v-1045q0 -113 -73.5 -178t-200.5 -65q-134 0 -205.5 62zM283 356.5
q9 -12.5 26 -12.5t25.5 12t8.5 32v489q0 20 -8.5 31.5t-25.5 11.5t-26 -12t-9 -31v-489q0 -19 9 -31.5zM165 1203q-53 50 -54 142h142q2 -31 16.5 -51t42.5 -20q27 0 42 20.5t17 50.5h142q-1 -92 -54 -142t-147 -50t-147 50z" />
    <glyph glyph-name="gcircumflex.ss17" 
d="M103.5 -120q-71.5 62 -71.5 181v40h240v-42q0 -48 36 -48q17 0 26 13t9 35v194q-44 -110 -157 -110q-66 0 -111 46t-45 143v586q0 104 42 154.5t115 50.5q61 0 99 -33.5t57 -88.5v105h240v-1045q0 -113 -73.5 -178t-200.5 -65q-134 0 -205.5 62zM283 356.5
q9 -12.5 26 -12.5t25.5 12t8.5 32v489q0 20 -8.5 31.5t-25.5 11.5t-26 -12t-9 -31v-489q0 -19 9 -31.5zM324 1358q71 0 141 6l74 -202h-175l-41 101l-41 -101h-174l75 202q71 -6 141 -6z" />
    <glyph glyph-name="uni0123.ss12" horiz-adv-x="619" 
d="M104 -247.5q-71 65.5 -71 191.5v59h240v-75q0 -48 36 -48q17 0 26 13t9 35v227q-44 -110 -157 -110q-66 0 -111.5 46t-45.5 143v684q0 104 42.5 154.5t115.5 50.5q61 0 99 -33.5t57 -88.5v105h240v-1161q0 -121 -74 -189.5t-201 -68.5q-134 0 -205 65.5zM207 1338l91 155
h112l-96 -155h104v-176h-211v176zM283.5 258q8.5 -12 25.5 -12t26 12.5t9 31.5v587q0 19 -9 31t-26 12t-25.5 -11.5t-8.5 -31.5v-587q0 -20 8.5 -32z" />
    <glyph glyph-name="uni0123.ss12.ss17" 
d="M103.5 -120q-71.5 62 -71.5 181v40h240v-42q0 -48 36 -48q17 0 26 13t9 35v194q-44 -110 -157 -110q-66 0 -111 46t-45 143v586q0 104 42 154.5t115 50.5q61 0 99 -33.5t57 -88.5v105h240v-1045q0 -113 -73.5 -178t-200.5 -65q-134 0 -205.5 62zM206 1338l91 155h112
l-96 -155h104v-176h-211v176zM283 356.5q9 -12.5 26 -12.5t25.5 12t8.5 32v489q0 20 -8.5 31.5t-25.5 11.5t-26 -12t-9 -31v-489q0 -19 9 -31.5z" />
    <glyph glyph-name="uni0123.ss17" 
d="M103.5 -120q-71.5 62 -71.5 181v40h240v-42q0 -48 36 -48q17 0 26 13t9 35v194q-44 -110 -157 -110q-66 0 -111 46t-45 143v586q0 104 42 154.5t115 50.5q61 0 99 -33.5t57 -88.5v105h240v-1045q0 -113 -73.5 -178t-200.5 -65q-134 0 -205.5 62zM290 1418h163l-39 -256
h-207zM283 356.5q9 -12.5 26 -12.5t25.5 12t8.5 32v489q0 20 -8.5 31.5t-25.5 11.5t-26 -12t-9 -31v-489q0 -19 9 -31.5z" />
    <glyph glyph-name="gdotaccent.ss12" horiz-adv-x="619" 
d="M104 -247.5q-71 65.5 -71 191.5v59h240v-75q0 -48 36 -48q17 0 26 13t9 35v227q-44 -110 -157 -110q-66 0 -111.5 46t-45.5 143v684q0 104 42.5 154.5t115.5 50.5q61 0 99 -33.5t57 -88.5v105h240v-1161q0 -121 -74 -189.5t-201 -68.5q-134 0 -205 65.5zM283.5 258
q8.5 -12 25.5 -12t26 12.5t9 31.5v587q0 19 -9 31t-26 12t-25.5 -11.5t-8.5 -31.5v-587q0 -20 8.5 -32zM192 1389h240v-231h-240v231z" />
    <glyph glyph-name="gdotaccent.ss12.ss17" 
d="M103.5 -120q-71.5 62 -71.5 181v40h240v-42q0 -48 36 -48q17 0 26 13t9 35v194q-44 -110 -157 -110q-66 0 -111 46t-45 143v586q0 104 42 154.5t115 50.5q61 0 99 -33.5t57 -88.5v105h240v-1045q0 -113 -73.5 -178t-200.5 -65q-134 0 -205.5 62zM283 356.5
q9 -12.5 26 -12.5t25.5 12t8.5 32v489q0 20 -8.5 31.5t-25.5 11.5t-26 -12t-9 -31v-489q0 -19 9 -31.5zM191 1389h240v-231h-240v231z" />
    <glyph glyph-name="gdotaccent.ss17" 
d="M103.5 -120q-71.5 62 -71.5 181v40h240v-42q0 -48 36 -48q17 0 26 13t9 35v194q-44 -110 -157 -110q-66 0 -111 46t-45 143v586q0 104 42 154.5t115 50.5q61 0 99 -33.5t57 -88.5v105h240v-1045q0 -113 -73.5 -178t-200.5 -65q-134 0 -205.5 62zM283 356.5
q9 -12.5 26 -12.5t25.5 12t8.5 32v489q0 20 -8.5 31.5t-25.5 11.5t-26 -12t-9 -31v-489q0 -19 9 -31.5zM216 1178q-38 38 -38 95q0 58 38 96t95 38q58 0 95.5 -38t37.5 -96q0 -57 -37.5 -95t-95.5 -38q-57 0 -95 38z" />
    <glyph glyph-name="i.ss12" horiz-adv-x="310" 
d="M35 1106h240v-1106h-240v1106zM35 1389h240v-231h-240v231z" />
    <glyph glyph-name="idieresis.ss12" horiz-adv-x="310" 
d="M35 1106h240v-1106h-240v1106zM-69 1360h198v-191h-198v191zM181 1360h199v-191h-199v191z" />
    <glyph glyph-name="i.loclTRK" horiz-adv-x="310" 
d="M35 1106h240v-1106h-240v1106zM60 1178q-38 38 -38 95q0 58 38 96t95 38q58 0 95.5 -38t37.5 -96q0 -57 -37.5 -95t-95.5 -38q-57 0 -95 38z" />
    <glyph glyph-name="i.loclTRK.ss12" horiz-adv-x="310" 
d="M35 1106h240v-1106h-240v1106zM35 1389h240v-231h-240v231z" />
    <glyph glyph-name="ij.rsd" horiz-adv-x="664" 
d="M35 1106h240v-1106h-240v1106zM60 1178q-38 38 -38 95q0 58 38 96t95 38q58 0 95.5 -38t37.5 -96q0 -57 -37.5 -95t-95.5 -38q-57 0 -95 38zM318 6v186q14 -6 35 -6q40 0 40 43v920h240v-938q0 -119 -56 -170.5t-149 -51.5q-67 0 -110 17zM418 1221q-38 38 -38 95
q0 58 38 96t95 38q58 0 95.5 -38t37.5 -96q0 -57 -37.5 -95t-95.5 -38q-57 0 -95 38z" />
    <glyph glyph-name="ij.ss02" horiz-adv-x="622" 
d="M35 1106h240v-1106h-240v1106zM60 1178q-38 38 -38 95q0 58 38 96t95 38q58 0 95.5 -38t37.5 -96q0 -57 -37.5 -95t-95.5 -38q-57 0 -95 38zM347 -50v1156h240v-1123q0 -170 -58 -283h-211q29 114 29 250zM372 1178q-38 38 -38 95q0 58 38 96t95 38q58 0 95.5 -38
t37.5 -96q0 -57 -37.5 -95t-95.5 -38q-57 0 -95 38z" />
    <glyph glyph-name="ij.ss02.rsd" horiz-adv-x="613" 
d="M35 1106h240v-1106h-240v1106zM60 1178q-38 38 -38 95q0 58 38 96t95 38q58 0 95.5 -38t37.5 -96q0 -57 -37.5 -95t-95.5 -38q-57 0 -95 38zM342 250v899h240v-866q0 -170 -58 -283h-211q29 114 29 250zM367 1221q-38 38 -38 95q0 58 38 96t95 38q58 0 95.5 -38t37.5 -96
q0 -57 -37.5 -95t-95.5 -38q-57 0 -95 38z" />
    <glyph glyph-name="ij.ss02.ss12" horiz-adv-x="622" 
d="M35 1106h240v-1106h-240v1106zM35 1389h240v-231h-240v231zM347 -50v1156h240v-1123q0 -170 -58 -283h-211q29 114 29 250zM347 1389h240v-231h-240v231z" />
    <glyph glyph-name="ij.ss02.ss12.rsd" horiz-adv-x="614" 
d="M35 1106h240v-1106h-240v1106zM35 1389h240v-231h-240v231zM343 250v899h240v-866q0 -170 -58 -283h-211q29 114 29 250zM343 1432h240v-231h-240v231z" />
    <glyph glyph-name="ij.ss02.ss12.ss17" horiz-adv-x="620" 
d="M35 1106h240v-1106h-240v1106zM35 1389h240v-231h-240v231zM347 85v1021h240v-988q0 -170 -58 -283h-211q29 114 29 250zM347 1389h240v-231h-240v231z" />
    <glyph glyph-name="ij.ss02.ss17" horiz-adv-x="620" 
d="M35 1106h240v-1106h-240v1106zM60 1178q-38 38 -38 95q0 58 38 96t95 38q58 0 95.5 -38t37.5 -96q0 -57 -37.5 -95t-95.5 -38q-57 0 -95 38zM347 85v1021h240v-988q0 -170 -58 -283h-211q29 114 29 250zM372 1178q-38 38 -38 95q0 58 38 96t95 38q58 0 95.5 -38t37.5 -96
q0 -57 -37.5 -95t-95.5 -38q-57 0 -95 38z" />
    <glyph glyph-name="ij.ss12" horiz-adv-x="622" 
d="M35 1106h240v-1106h-240v1106zM35 1389h240v-231h-240v231zM273 -292v186q14 -6 34 -6q40 0 40 44v1174h240v-1193q0 -119 -56 -170t-150 -51q-64 0 -108 16zM348 1389h240v-231h-240v231z" />
    <glyph glyph-name="ij.ss12.rsd" horiz-adv-x="664" 
d="M35 1106h240v-1106h-240v1106zM35 1389h240v-231h-240v231zM318 6v186q14 -6 35 -6q40 0 40 43v920h240v-938q0 -119 -56 -170.5t-149 -51.5q-67 0 -110 17zM393 1432h240v-231h-240v231z" />
    <glyph glyph-name="ij.ss12.ss17" horiz-adv-x="659" 
d="M35 1106h240v-1106h-240v1106zM35 1389h240v-231h-240v231zM309 -155v184q18 -6 35 -6q39 0 39 44v1039h241v-1056q0 -119 -56 -170.5t-149 -51.5q-67 0 -110 17zM384 1389h240v-231h-240v231z" />
    <glyph glyph-name="ij.ss17" horiz-adv-x="659" 
d="M35 1106h240v-1106h-240v1106zM60 1178q-38 38 -38 95q0 58 38 96t95 38q58 0 95.5 -38t37.5 -96q0 -57 -37.5 -95t-95.5 -38q-57 0 -95 38zM309 -155v184q18 -6 35 -6q39 0 39 44v1039h241v-1056q0 -119 -56 -170.5t-149 -51.5q-67 0 -110 17zM409 1178q-38 38 -38 95
q0 58 38 96t95 38q58 0 95.5 -38t37.5 -96q0 -57 -37.5 -95t-95.5 -38q-57 0 -95 38z" />
    <glyph glyph-name="iogonek.ss12" horiz-adv-x="310" 
d="M35 1106h240v-1106q-46 -17 -69.5 -47.5t-23.5 -62.5q0 -26 16 -41.5t48 -15.5q14 0 29 3v-146q-34 -12 -80 -12q-83 0 -129 41t-46 107q0 56 30 101t82 73h-97v1106zM35 1389h240v-231h-240v231z" />
    <glyph glyph-name="j.rsd" horiz-adv-x="324" 
d="M-22 6v186q14 -6 35 -6q40 0 40 43v920h240v-938q0 -119 -56 -170.5t-149 -51.5q-67 0 -110 17zM78 1221q-38 38 -38 95q0 58 38 96t95 38q58 0 95.5 -38t37.5 -96q0 -57 -37.5 -95t-95.5 -38q-57 0 -95 38z" />
    <glyph glyph-name="j.ss02" horiz-adv-x="310" 
d="M35 -50v1156h240v-1123q0 -170 -58 -283h-211q29 114 29 250zM60 1178q-38 38 -38 95q0 58 38 96t95 38q58 0 95.5 -38t37.5 -96q0 -57 -37.5 -95t-95.5 -38q-57 0 -95 38z" />
    <glyph glyph-name="j.ss02.rsd" horiz-adv-x="302" 
d="M31 250v899h240v-866q0 -170 -58 -283h-211q29 114 29 250zM56 1221q-38 38 -38 95q0 58 38 96t95 38q58 0 95.5 -38t37.5 -96q0 -57 -37.5 -95t-95.5 -38q-57 0 -95 38z" />
    <glyph glyph-name="j.ss02.ss12" horiz-adv-x="310" 
d="M35 -50v1156h240v-1123q0 -170 -58 -283h-211q29 114 29 250zM35 1389h240v-231h-240v231z" />
    <glyph glyph-name="j.ss02.ss12.rsd" horiz-adv-x="302" 
d="M31 250v899h240v-866q0 -170 -58 -283h-211q29 114 29 250zM31 1432h240v-231h-240v231z" />
    <glyph glyph-name="j.ss02.ss12.ss17" horiz-adv-x="308" 
d="M35 85v1021h240v-988q0 -170 -58 -283h-211q29 114 29 250zM35 1389h240v-231h-240v231z" />
    <glyph glyph-name="j.ss02.ss17" horiz-adv-x="308" 
d="M35 85v1021h240v-988q0 -170 -58 -283h-211q29 114 29 250zM60 1178q-38 38 -38 95q0 58 38 96t95 38q58 0 95.5 -38t37.5 -96q0 -57 -37.5 -95t-95.5 -38q-57 0 -95 38z" />
    <glyph glyph-name="j.ss12" horiz-adv-x="310" 
d="M-39 -292v186q14 -6 34 -6q40 0 40 44v1174h240v-1193q0 -119 -56 -170t-150 -51q-64 0 -108 16zM36 1389h240v-231h-240v231z" />
    <glyph glyph-name="j.ss12.rsd" horiz-adv-x="324" 
d="M-22 6v186q14 -6 35 -6q40 0 40 43v920h240v-938q0 -119 -56 -170.5t-149 -51.5q-67 0 -110 17zM53 1432h240v-231h-240v231z" />
    <glyph glyph-name="j.ss12.ss17" horiz-adv-x="350" 
d="M0 -155v184q18 -6 35 -6q39 0 39 44v1039h241v-1056q0 -119 -56 -170.5t-149 -51.5q-67 0 -110 17zM75 1389h240v-231h-240v231z" />
    <glyph glyph-name="j.ss17" horiz-adv-x="350" 
d="M0 -155v184q18 -6 35 -6q39 0 39 44v1039h241v-1056q0 -119 -56 -170.5t-149 -51.5q-67 0 -110 17zM100 1178q-38 38 -38 95q0 58 38 96t95 38q58 0 95.5 -38t37.5 -96q0 -57 -37.5 -95t-95.5 -38q-57 0 -95 38z" />
    <glyph glyph-name="uni0237.rsd" horiz-adv-x="324" 
d="M-22 6v186q14 -6 35 -6q40 0 40 43v920h240v-938q0 -119 -56 -170.5t-149 -51.5q-67 0 -110 17z" />
    <glyph glyph-name="uni0237.ss02" horiz-adv-x="310" 
d="M35 -50v1156h240v-1123q0 -170 -58 -283h-211q29 114 29 250z" />
    <glyph glyph-name="uni0237.ss02.rsd" horiz-adv-x="302" 
d="M31 250v899h240v-866q0 -170 -58 -283h-211q29 114 29 250z" />
    <glyph glyph-name="uni0237.ss02.ss17" horiz-adv-x="308" 
d="M35 85v1021h240v-988q0 -170 -58 -283h-211q29 114 29 250z" />
    <glyph glyph-name="uni0237.ss17" horiz-adv-x="350" 
d="M0 -155v184q18 -6 35 -6q39 0 39 44v1039h241v-1056q0 -119 -56 -170.5t-149 -51.5q-67 0 -110 17z" />
    <glyph glyph-name="jcircumflex.rsd" horiz-adv-x="324" 
d="M-22 6v186q14 -6 35 -6q40 0 40 43v920h240v-938q0 -119 -56 -170.5t-149 -51.5q-67 0 -110 17zM186 1401q71 0 141 6l74 -202h-175l-41 101l-41 -101h-174l75 202q71 -6 141 -6z" />
    <glyph glyph-name="jcircumflex.ss02" horiz-adv-x="310" 
d="M35 -50v1156h240v-1123q0 -170 -58 -283h-211q29 114 29 250zM168 1358q71 0 141 6l74 -202h-175l-41 101l-41 -101h-174l75 202q71 -6 141 -6z" />
    <glyph glyph-name="jcircumflex.ss02.ss17" horiz-adv-x="308" 
d="M35 85v1021h240v-988q0 -170 -58 -283h-211q29 114 29 250zM168 1358q71 0 141 6l74 -202h-175l-41 101l-41 -101h-174l75 202q71 -6 141 -6z" />
    <glyph glyph-name="jcircumflex.ss17" horiz-adv-x="350" 
d="M0 -155v184q18 -6 35 -6q39 0 39 44v1039h241v-1056q0 -119 -56 -170.5t-149 -51.5q-67 0 -110 17zM208 1358q71 0 141 6l74 -202h-175l-41 101l-41 -101h-174l75 202q71 -6 141 -6z" />
    <glyph glyph-name="uni0137.ss12" 
d="M275 541v-541h-240v1434h240v-784l92 456h250l-127 -507l129 -599h-252zM213 -57h210v-176l-91 -156h-112l96 156h-103v176z" />
    <glyph glyph-name="l.ss02" horiz-adv-x="317" 
d="M44 139q-9 75 -9 173v1122h240v-1149q0 -87 7.5 -150t24.5 -135h-232q-22 64 -31 139z" />
    <glyph glyph-name="lacute.ss02" horiz-adv-x="317" 
d="M44 139q-9 75 -9 173v1122h240v-1149q0 -87 7.5 -150t24.5 -135h-232q-22 64 -31 139zM76 1649h246l-56 -172h-227z" />
    <glyph glyph-name="lcaron.ss02" horiz-adv-x="315" 
d="M44 139q-9 75 -9 173v1122h240v-1149q0 -87 7.5 -150t24.5 -135h-232q-22 64 -31 139zM331 1434h206l-82 -257h-164z" />
    <glyph glyph-name="lcaron.ss02.ss12" horiz-adv-x="408" 
d="M44 139q-9 75 -9 173v1122h240v-1149q0 -87 7.5 -150t24.5 -135h-232q-22 64 -31 139zM311 1434h211v-176l-91 -156h-112l95 156h-103v176z" />
    <glyph glyph-name="lcaron.ss12" horiz-adv-x="427" 
d="M35 1434h240v-1434h-240v1434zM311 1434h211v-176l-91 -156h-112l95 156h-103v176z" />
    <glyph glyph-name="uni013C.ss02" horiz-adv-x="317" 
d="M44 139q-9 75 -9 173v1122h240v-1149q0 -87 7.5 -150t24.5 -135h-232q-22 64 -31 139zM77 -59h207l-83 -256h-163z" />
    <glyph glyph-name="uni013C.ss02.ss12" horiz-adv-x="317" 
d="M44 139q-9 75 -9 173v1122h240v-1149q0 -87 7.5 -150t24.5 -135h-232q-22 64 -31 139zM81 -57h210v-176l-91 -156h-112l96 156h-103v176z" />
    <glyph glyph-name="uni013C.ss12" horiz-adv-x="310" 
d="M35 1434h240v-1434h-240v1434zM42 -57h210v-176l-91 -156h-112l96 156h-103v176z" />
    <glyph glyph-name="ldot.ss02" horiz-adv-x="540" 
d="M44 139q-9 75 -9 173v1122h240v-1149q0 -87 7.5 -150t24.5 -135h-232q-22 64 -31 139zM328 765q38 38 95 38q58 0 96 -38t38 -96t-38 -96t-96 -38q-57 0 -95 38t-38 96t38 96z" />
    <glyph glyph-name="ldot.ss02.ss12" horiz-adv-x="531" 
d="M44 139q-9 75 -9 173v1122h240v-1149q0 -87 7.5 -150t24.5 -135h-232q-22 64 -31 139zM300 790h237v-243h-237v243z" />
    <glyph glyph-name="ldot.ss12" horiz-adv-x="535" 
d="M35 1434h240v-1434h-240v1434zM304 790h236v-243h-236v243z" />
    <glyph glyph-name="lslash.ss02" horiz-adv-x="393" 
d="M4 689l75 48v697h240v-543l68 43v-214l-68 -43v-392q0 -87 7.5 -150t24.5 -135h-232q-22 64 -31 139t-9 173v211l-75 -48v214z" />
    <glyph glyph-name="m.rsd" horiz-adv-x="897" 
d="M35 1434h226v-104q22 56 64 88.5t97 32.5q112 0 136 -122q22 58 64.5 90t98.5 32q67 0 104.5 -48t37.5 -134v-941h-235v886q0 17 -8 26t-21 9q-14 0 -23 -9.5t-9 -29.5v-882h-236v886q0 35 -28 35q-14 0 -23 -9.5t-9 -29.5v-882h-236v1106z" />
    <glyph glyph-name="n.rsd" horiz-adv-x="611" 
d="M35 1434h231v-103q23 56 66.5 88t99.5 32q70 0 108 -48.5t38 -138.5v-936h-240v884q0 17 -8.5 25.5t-21.5 8.5q-15 0 -24 -10t-9 -28v-880h-240v1106z" />
    <glyph glyph-name="uni0146.ss12" horiz-adv-x="611" 
d="M35 1106h231v-103q23 56 66.5 88t99.5 32q70 0 108 -48.5t38 -138.5v-936h-240v884q0 17 -8.5 25.5t-21.5 8.5q-15 0 -24 -10t-9 -28v-880h-240v1106zM195 -57h210v-176l-91 -156h-112l96 156h-103v176z" />
    <glyph glyph-name="eng.ss02" horiz-adv-x="611" 
d="M338 26v858q0 17 -8.5 25.5t-21.5 8.5q-15 0 -24 -10t-9 -28v-880h-240v1106h231v-104q22 57 65.5 89t100.5 32q70 0 108 -48.5t38 -138.5v-877q0 -170 -58 -283h-211q29 114 29 250z" />
    <glyph glyph-name="o.rsd" horiz-adv-x="610" 
d="M102 382.5q-75 72.5 -75 200.5v592q0 131 74.5 202.5t203.5 71.5q130 0 203.5 -71.5t73.5 -202.5v-592q0 -128 -74 -200.5t-203 -72.5q-128 0 -203 72.5zM280.5 525q8.5 -12 24.5 -12q17 0 25 11.5t8 30.5v649q0 17 -8 29t-25 12q-16 0 -24.5 -11.5t-8.5 -29.5v-649
q0 -18 8.5 -30z" />
    <glyph glyph-name="odieresis.ss12" horiz-adv-x="610" 
d="M102 56.5q-75 72.5 -75 200.5v592q0 131 74.5 202.5t203.5 71.5q130 0 203.5 -71.5t73.5 -202.5v-592q0 -128 -74 -200.5t-203 -72.5q-128 0 -203 72.5zM280.5 199q8.5 -12 24.5 -12q17 0 25 11.5t8 30.5v649q0 17 -8 29t-25 12q-16 0 -24.5 -11.5t-8.5 -29.5v-649
q0 -18 8.5 -30zM81 1360h198v-191h-198v191zM331 1360h199v-191h-199v191z" />
    <glyph glyph-name="oe.rsd" horiz-adv-x="918" 
d="M97.5 377.5q-69.5 67.5 -69.5 189.5v621q0 125 73 193t200 68q98 0 161 -49q60 49 165 49q122 0 193 -70t71 -198v-353h-308v-278q0 -17 8.5 -28t25.5 -11t25.5 11t8.5 28v217h240v-198q0 -124 -71.5 -191.5t-195.5 -67.5q-49 0 -92 13.5t-74 42.5q-65 -56 -166 -56
q-125 0 -194.5 67.5zM281 525q9 -12 25 -12t24.5 12t8.5 30v649q0 17 -8.5 29t-24.5 12q-17 0 -25.5 -11.5t-8.5 -29.5v-649q0 -18 9 -30zM651 1011v199q0 18 -8.5 28.5t-25.5 10.5t-25.5 -10.5t-8.5 -28.5v-199h68z" />
    <glyph glyph-name="p.rsd" 
d="M333.5 338q-38.5 26 -58.5 76v-414h-240v1434h240v-90q20 48 58.5 77.5t91.5 29.5q77 0 119.5 -52t42.5 -159v-733q0 -99 -44 -147t-117 -48q-54 0 -92.5 26zM283.5 520q8.5 -12 24.5 -12t24.5 12t8.5 30v662q0 18 -8.5 29.5t-24.5 11.5q-17 0 -25 -11.5t-8 -29.5v-662
q0 -18 8.5 -30z" />
    <glyph glyph-name="p.ss17" 
d="M334 12q-40 28 -59 74v-251h-240v1271h240v-87q22 48 63.5 76t93.5 28q70 0 112.5 -49t42.5 -148v-733q0 -107 -42 -158t-117 -51q-54 0 -94 28zM283 191.5q8 -11.5 25 -11.5q16 0 24.5 12t8.5 30v662q0 18 -8.5 29.5t-24.5 11.5t-24.5 -11.5t-8.5 -29.5v-662
q0 -19 8 -30.5z" />
    <glyph glyph-name="thorn.rsd" horiz-adv-x="617" 
d="M275 1434v-249q20 48 58.5 77.5t91.5 29.5q77 0 119.5 -52t42.5 -159v-733q0 -99 -44 -147t-117 -48q-54 0 -92.5 26t-58.5 76v-255h-240v1434h240zM283.5 361q8.5 -12 24.5 -12t24.5 12t8.5 30v662q0 18 -8.5 29.5t-24.5 11.5q-17 0 -25 -11.5t-8 -29.5v-662
q0 -18 8.5 -30z" />
    <glyph glyph-name="thorn.ss17" 
d="M334 12q-40 28 -59 74v-251h-240v1599h240v-415q22 48 63.5 76t93.5 28q70 0 112.5 -49t42.5 -148v-733q0 -107 -42 -158t-117 -51q-54 0 -94 28zM283 191.5q8 -11.5 25 -11.5q16 0 24.5 12t8.5 30v662q0 18 -8.5 29.5t-24.5 11.5t-24.5 -11.5t-8.5 -29.5v-662
q0 -19 8 -30.5z" />
    <glyph glyph-name="q.rsd" 
d="M75 360q-44 48 -44 147v733q0 107 42.5 159t119.5 52q53 0 91.5 -29.5t58.5 -77.5v90h240v-1434h-240v414q-20 -50 -58.5 -76t-92.5 -26q-73 0 -117 48zM285.5 520q8.5 -12 24.5 -12t24.5 12t8.5 30v662q0 18 -8 29.5t-25 11.5q-16 0 -24.5 -11.5t-8.5 -29.5v-662
q0 -18 8.5 -30z" />
    <glyph glyph-name="q.ss17" 
d="M75 32q-44 48 -44 147v733q0 107 42.5 159t119.5 52q53 0 91.5 -29.5t58.5 -77.5v90h240v-1271h-240v251q-20 -50 -58.5 -76t-92.5 -26q-73 0 -117 48zM285.5 192q8.5 -12 24.5 -12t24.5 12t8.5 30v662q0 18 -8 29.5t-25 11.5q-16 0 -24.5 -11.5t-8.5 -29.5v-662
q0 -18 8.5 -30z" />
    <glyph glyph-name="r.rsd" horiz-adv-x="560" 
d="M35 1434h228v-131q23 69 64 106t96 37q63 0 93.5 -44.5t30.5 -136.5v-411h-221v335q0 28 -23 28q-13 0 -20.5 -9.5t-7.5 -27.5v-852h-240v1106z" />
    <glyph glyph-name="r.ss03" horiz-adv-x="436" 
d="M35 1106h227v-155q20 73 63.5 117t93.5 44q8 0 12 -1v-303q-28 7 -58 7q-45 0 -71.5 -23.5t-26.5 -73.5v-718h-240v1106z" />
    <glyph glyph-name="r.ss03.rsd" horiz-adv-x="434" 
d="M35 1434h227v-155q20 73 63.5 117t93.5 44q8 0 12 -1v-303q-28 7 -58 7q-45 0 -71.5 -23.5t-26.5 -73.5v-718h-240v1106z" />
    <glyph glyph-name="racute.ss03" horiz-adv-x="436" 
d="M35 1106h227v-155q20 73 63.5 117t93.5 44q8 0 12 -1v-303q-28 7 -58 7q-45 0 -71.5 -23.5t-26.5 -73.5v-718h-240v1106zM157 1364h234l-63 -202h-205z" />
    <glyph glyph-name="rcaron.ss03" horiz-adv-x="436" 
d="M35 1106h227v-155q20 73 63.5 117t93.5 44q8 0 12 -1v-303q-28 7 -58 7q-45 0 -71.5 -23.5t-26.5 -73.5v-718h-240v1106zM17 1360h174l41 -101l41 101h175l-74 -202q-70 6 -141 6q-70 0 -141 -6z" />
    <glyph glyph-name="uni0157.ss03" horiz-adv-x="436" 
d="M35 1106h227v-155q20 73 63.5 117t93.5 44q8 0 12 -1v-303q-28 7 -58 7q-45 0 -71.5 -23.5t-26.5 -73.5v-718h-240v1106zM47 -59h207l-83 -256h-163z" />
    <glyph glyph-name="uni0157.ss03.ss12" horiz-adv-x="436" 
d="M35 1106h227v-155q20 73 63.5 117t93.5 44q8 0 12 -1v-303q-28 7 -58 7q-45 0 -71.5 -23.5t-26.5 -73.5v-718h-240v1106zM50 -57h210v-176l-91 -156h-112l96 156h-103v176z" />
    <glyph glyph-name="uni0157.ss12" horiz-adv-x="560" 
d="M35 1106h228v-131q23 69 64 106t96 37q63 0 93.5 -44.5t30.5 -136.5v-411h-221v335q0 28 -23 28q-13 0 -20.5 -9.5t-7.5 -27.5v-852h-240v1106zM50 -57h210v-176l-91 -156h-112l96 156h-103v176z" />
    <glyph glyph-name="s.rsd" horiz-adv-x="588" 
d="M92 380.5q-74 68.5 -74 196.5v146h241v-166q0 -25 8 -37.5t26 -12.5q19 0 28 13t9 46v75q0 38 -10 64t-26.5 43.5t-47.5 42.5l-96 79q-45 37 -72 70t-41 77t-14 105v59q0 128 73 198.5t203 70.5q126 0 198 -67t72 -200v-100h-234v127q0 49 -35 49q-37 0 -37 -53v-57
q0 -39 10.5 -59.5t47.5 -51.5l103 -87q50 -43 80 -78t49 -85.5t19 -122.5v-81q0 -134 -74.5 -203t-203.5 -69q-128 0 -202 68.5z" />
    <glyph glyph-name="uni0219.ss12" horiz-adv-x="588" 
d="M92 52.5q-74 68.5 -74 196.5v146h241v-166q0 -25 8 -37.5t26 -12.5q19 0 28 13t9 46v75q0 38 -10 64t-26.5 43.5t-47.5 42.5l-96 79q-45 37 -72 70t-41 77t-14 105v59q0 128 73 198.5t203 70.5q126 0 198 -67t72 -200v-100h-234v127q0 49 -35 49q-37 0 -37 -53v-57
q0 -39 10.5 -59.5t47.5 -51.5l103 -87q50 -43 80 -78t49 -85.5t19 -122.5v-81q0 -134 -74.5 -203t-203.5 -69q-128 0 -202 68.5zM192 -57h210v-176l-91 -156h-112l96 156h-103v176z" />
    <glyph glyph-name="t.ss02" horiz-adv-x="402" 
d="M2 1106h78v195l239 68v-263h78v-195h-78v-626q0 -86 8 -148t24 -137h-232q-21 64 -30 139t-9 173v599h-78v195z" />
    <glyph glyph-name="t.ss04" horiz-adv-x="416" 
d="M135.5 38.5q-55.5 48.5 -55.5 151.5v725h-78v191h80v240h238v-240h89v-191h-89v-678q0 -44 49 -44q17 0 40 7v-186q-55 -24 -129 -24q-89 0 -144.5 48.5z" />
    <glyph glyph-name="tbar.ss02" horiz-adv-x="414" 
d="M9 714h78v197h-78v195h78v195l239 68v-263h78v-195h-78v-197h77v-183h-77v-246q0 -86 8 -148t24 -137h-232q-21 64 -30 139t-9 173v219h-78v183z" />
    <glyph glyph-name="tbar.ss04" horiz-adv-x="429" 
d="M8 714h79v201h-78v191h80v240h238v-240h89v-191h-89v-201h88v-183h-88v-294q0 -44 49 -44q17 0 40 7v-186q-55 -24 -129 -24q-89 0 -144.5 48.5t-55.5 151.5v341h-79v183z" />
    <glyph glyph-name="tcaron.ss02" horiz-adv-x="402" 
d="M2 1106h78v195l239 68v-263h78v-195h-78v-626q0 -86 8 -148t24 -137h-232q-21 64 -30 139t-9 173v599h-78v195zM384 1439h206l-82 -256h-164z" />
    <glyph glyph-name="tcaron.ss02.ss12" horiz-adv-x="402" 
d="M2 1106h78v195l239 68v-263h78v-195h-78v-626q0 -86 8 -148t24 -137h-232q-21 64 -30 139t-9 173v599h-78v195zM348 1506h211v-177l-91 -155h-112l95 155h-103v177z" />
    <glyph glyph-name="tcaron.ss04" horiz-adv-x="416" 
d="M135.5 38.5q-55.5 48.5 -55.5 151.5v725h-78v191h80v240h238v-240h89v-191h-89v-678q0 -44 49 -44q17 0 40 7v-186q-55 -24 -129 -24q-89 0 -144.5 48.5zM389 1439h207l-83 -256h-163z" />
    <glyph glyph-name="tcaron.ss04.ss12" horiz-adv-x="416" 
d="M135.5 38.5q-55.5 48.5 -55.5 151.5v725h-78v191h80v240h238v-240h89v-191h-89v-678q0 -44 49 -44q17 0 40 7v-186q-55 -24 -129 -24q-89 0 -144.5 48.5zM350 1506h211v-177l-91 -155h-112l95 155h-103v177z" />
    <glyph glyph-name="tcaron.ss12" horiz-adv-x="416" 
d="M135.5 38.5q-55.5 48.5 -55.5 151.5v725h-78v191h80v196l238 67v-263h89v-191h-89v-678q0 -44 49 -44q17 0 40 7v-186q-55 -24 -129 -24q-89 0 -144.5 48.5zM350 1506h211v-177l-91 -155h-112l95 155h-103v177z" />
    <glyph glyph-name="uni0163.ss02" horiz-adv-x="402" 
d="M2 1106h78v195l239 68v-263h78v-195h-78v-626q0 -86 8 -148t24 -137h-64l-1 -32q66 -3 106 -40t40 -98q0 -86 -61 -124t-155 -38q-92 0 -152 42t-62 125h161q2 -18 16.5 -28.5t36.5 -10.5q50 0 50 41q0 21 -15.5 32t-39.5 11q-33 0 -55 -14l4 134h-41q-21 64 -30 139
t-9 173v599h-78v195z" />
    <glyph glyph-name="uni0163.ss04" horiz-adv-x="416" 
d="M59 -290q-60 42 -62 125h161q2 -18 16.5 -28.5t36.5 -10.5q50 0 50 41q0 21 -15.5 32t-39.5 11q-33 0 -55 -14l5 157q-76 50 -76 167v725h-78v191h80v240h238v-240h89v-191h-89v-678q0 -44 49 -44q17 0 40 7v-186q-55 -24 -127 -24l-1 -22q66 -3 106 -40t40 -98
q0 -86 -61 -124t-155 -38q-92 0 -152 42z" />
    <glyph glyph-name="uni021B.ss02" horiz-adv-x="402" 
d="M2 1106h78v195l239 68v-263h78v-195h-78v-626q0 -86 8 -148t24 -137h-232q-21 64 -30 139t-9 173v599h-78v195zM120 -59h207l-83 -256h-163z" />
    <glyph glyph-name="uni021B.ss02.ss12" horiz-adv-x="402" 
d="M2 1106h78v195l239 68v-263h78v-195h-78v-626q0 -86 8 -148t24 -137h-232q-21 64 -30 139t-9 173v599h-78v195zM124 -57h210v-176l-91 -156h-112l96 156h-103v176z" />
    <glyph glyph-name="uni021B.ss04" horiz-adv-x="416" 
d="M135.5 38.5q-55.5 48.5 -55.5 151.5v725h-78v191h80v240h238v-240h89v-191h-89v-678q0 -44 49 -44q17 0 40 7v-186q-55 -24 -129 -24q-89 0 -144.5 48.5zM116 -59h207l-83 -256h-163z" />
    <glyph glyph-name="uni021B.ss04.ss12" horiz-adv-x="416" 
d="M135.5 38.5q-55.5 48.5 -55.5 151.5v725h-78v191h80v240h238v-240h89v-191h-89v-678q0 -44 49 -44q17 0 40 7v-186q-55 -24 -129 -24q-89 0 -144.5 48.5zM119 -57h210v-176l-91 -156h-112l96 156h-103v176z" />
    <glyph glyph-name="uni021B.ss12" horiz-adv-x="416" 
d="M135.5 38.5q-55.5 48.5 -55.5 151.5v725h-78v191h80v196l238 67v-263h89v-191h-89v-678q0 -44 49 -44q17 0 40 7v-186q-55 -24 -129 -24q-89 0 -144.5 48.5zM119 -57h210v-176l-91 -156h-112l96 156h-103v176z" />
    <glyph glyph-name="u.rsd" horiz-adv-x="610" 
d="M73 359q-40 47 -40 139v936h239v-880q0 -20 8.5 -29t22.5 -9q13 0 22.5 10.5t9.5 32.5v875h240v-1106h-227v110q-22 -59 -63 -92.5t-96 -33.5q-76 0 -116 47z" />
    <glyph glyph-name="udieresis.ss12" horiz-adv-x="610" 
d="M73 31q-40 47 -40 139v936h239v-880q0 -20 8.5 -29t22.5 -9q13 0 22.5 10.5t9.5 32.5v875h240v-1106h-227v110q-22 -59 -63 -92.5t-96 -33.5q-76 0 -116 47zM81 1360h198v-191h-198v191zM331 1360h199v-191h-199v191z" />
    <glyph glyph-name="v.rsd" horiz-adv-x="586" 
d="M7 1434h243l43 -886h2l46 886h238l-105 -1106h-362z" />
    <glyph glyph-name="w.rsd" horiz-adv-x="892" 
d="M10 1434h227l29 -790h2l53 790h250l53 -790h2l30 790h227l-94 -1106h-295l-46 730h-2l-48 -730h-294z" />
    <glyph glyph-name="wdieresis.ss12" horiz-adv-x="891" 
d="M9 1106h227l29 -790h2l53 790h250l53 -790h2l30 790h227l-94 -1106h-295l-46 730h-2l-48 -730h-294zM222 1360h198v-191h-198v191zM472 1360h199v-191h-199v191z" />
    <glyph glyph-name="x.rsd" horiz-adv-x="585" 
d="M104 909l-102 525h243l50 -365h2l46 365h239l-101 -525l106 -581h-248l-48 412h-2l-48 -412h-243z" />
    <glyph glyph-name="y" horiz-adv-x="589" 
d="M157.5 4.5q-19.5 15.5 -62.5 15.5l-86 1086h242l43 -896h2l43 896h241l-84 -1086q-46 0 -63.5 -15t-17.5 -52v-253h-238v253q0 36 -19.5 51.5z" />
    <glyph glyph-name="y.rsd" horiz-adv-x="587" 
d="M178 28h-2v253q0 36 -19.5 51.5t-62.5 15.5l-86 1086h242l43 -896h2l43 896h241l-84 -1086q-46 0 -63.5 -15t-17.5 -52v-253h-1v-28h-235v28z" />
    <glyph glyph-name="y.ss05.rsd" horiz-adv-x="560" 
d="M112 28h-1l49 282l-165 1124h239l44 -631h2l57 631h232l-190 -1223l-31 -211h-241z" />
    <glyph glyph-name="y.ss05.ss17" horiz-adv-x="564" 
d="M163 20l-166 1086h239l45 -605h2l55 605h232l-201 -1271h-240z" />
    <glyph glyph-name="y.ss17" horiz-adv-x="588" 
d="M157 42q-20 16 -62 16l-87 1048h243l43 -861h2l42 861h241l-83 -1048q-46 0 -63.5 -15.5t-17.5 -52.5v-155h-238v155q0 36 -20 52z" />
    <glyph glyph-name="yacute" horiz-adv-x="589" 
d="M157.5 4.5q-19.5 15.5 -62.5 15.5l-86 1086h242l43 -896h2l43 896h241l-84 -1086q-46 0 -63.5 -15t-17.5 -52v-253h-238v253q0 36 -19.5 51.5zM220 1364h234l-63 -202h-205z" />
    <glyph glyph-name="yacute.ss05.ss17" horiz-adv-x="564" 
d="M163 20l-166 1086h239l45 -605h2l55 605h232l-201 -1271h-240zM214 1364h234l-63 -202h-205z" />
    <glyph glyph-name="yacute.ss17" horiz-adv-x="588" 
d="M157 42q-20 16 -62 16l-87 1048h243l43 -861h2l42 861h241l-83 -1048q-46 0 -63.5 -15.5t-17.5 -52.5v-155h-238v155q0 36 -20 52zM219 1364h234l-63 -202h-205z" />
    <glyph glyph-name="ycircumflex" horiz-adv-x="589" 
d="M157.5 4.5q-19.5 15.5 -62.5 15.5l-86 1086h242l43 -896h2l43 896h241l-84 -1086q-46 0 -63.5 -15t-17.5 -52v-253h-238v253q0 36 -19.5 51.5zM307 1358q71 0 141 6l74 -202h-175l-41 101l-41 -101h-174l75 202q71 -6 141 -6z" />
    <glyph glyph-name="ycircumflex.ss05.ss17" horiz-adv-x="564" 
d="M163 20l-166 1086h239l45 -605h2l55 605h232l-201 -1271h-240zM302 1358q71 0 141 6l74 -202h-175l-41 101l-41 -101h-174l75 202q71 -6 141 -6z" />
    <glyph glyph-name="ycircumflex.ss17" horiz-adv-x="588" 
d="M157 42q-20 16 -62 16l-87 1048h243l43 -861h2l42 861h241l-83 -1048q-46 0 -63.5 -15.5t-17.5 -52.5v-155h-238v155q0 36 -20 52zM307 1358q71 0 141 6l74 -202h-175l-41 101l-41 -101h-174l75 202q71 -6 141 -6z" />
    <glyph glyph-name="ydieresis" horiz-adv-x="589" 
d="M157.5 4.5q-19.5 15.5 -62.5 15.5l-86 1086h242l43 -896h2l43 896h241l-84 -1086q-46 0 -63.5 -15t-17.5 -52v-253h-238v253q0 36 -19.5 51.5zM87.5 1185.5q-31.5 31.5 -31.5 78.5q0 49 31.5 80t78.5 31q48 0 79 -31t31 -80q0 -47 -31.5 -78.5t-78.5 -31.5t-78.5 31.5z
M337.5 1344q31.5 31 78.5 31q48 0 79 -31t31 -80q0 -47 -31.5 -78.5t-78.5 -31.5t-78.5 31.5t-31.5 78.5q0 49 31.5 80z" />
    <glyph glyph-name="ydieresis.ss05.ss12" horiz-adv-x="566" 
d="M163 -18l-165 1124h239l44 -631h2l57 631h232l-218 -1406h-240zM67 1360h198v-191h-198v191zM317 1360h199v-191h-199v191z" />
    <glyph glyph-name="ydieresis.ss05.ss12.ss17" horiz-adv-x="564" 
d="M163 20l-166 1086h239l45 -605h2l55 605h232l-201 -1271h-240zM66 1360h198v-191h-198v191zM316 1360h199v-191h-199v191z" />
    <glyph glyph-name="ydieresis.ss05.ss17" horiz-adv-x="564" 
d="M163 20l-166 1086h239l45 -605h2l55 605h232l-201 -1271h-240zM82.5 1185.5q-31.5 31.5 -31.5 78.5q0 49 31.5 80t78.5 31q48 0 79 -31t31 -80q0 -47 -31.5 -78.5t-78.5 -31.5t-78.5 31.5zM332.5 1344q31.5 31 78.5 31q48 0 79 -31t31 -80q0 -47 -31.5 -78.5t-78.5 -31.5
t-78.5 31.5t-31.5 78.5q0 49 31.5 80z" />
    <glyph glyph-name="ydieresis.ss12" horiz-adv-x="589" 
d="M157.5 4.5q-19.5 15.5 -62.5 15.5l-86 1086h242l43 -896h2l43 896h241l-84 -1086q-46 0 -63.5 -15t-17.5 -52v-253h-238v253q0 36 -19.5 51.5zM71 1360h198v-191h-198v191zM321 1360h199v-191h-199v191z" />
    <glyph glyph-name="ydieresis.ss12.ss17" horiz-adv-x="588" 
d="M157 42q-20 16 -62 16l-87 1048h243l43 -861h2l42 861h241l-83 -1048q-46 0 -63.5 -15.5t-17.5 -52.5v-155h-238v155q0 36 -20 52zM71 1360h198v-191h-198v191zM321 1360h199v-191h-199v191z" />
    <glyph glyph-name="ydieresis.ss17" horiz-adv-x="588" 
d="M157 42q-20 16 -62 16l-87 1048h243l43 -861h2l42 861h241l-83 -1048q-46 0 -63.5 -15.5t-17.5 -52.5v-155h-238v155q0 36 -20 52zM87.5 1185.5q-31.5 31.5 -31.5 78.5q0 49 31.5 80t78.5 31q48 0 79 -31t31 -80q0 -47 -31.5 -78.5t-78.5 -31.5t-78.5 31.5zM337.5 1344
q31.5 31 78.5 31q48 0 79 -31t31 -80q0 -47 -31.5 -78.5t-78.5 -31.5t-78.5 31.5t-31.5 78.5q0 49 31.5 80z" />
    <glyph glyph-name="ygrave" horiz-adv-x="589" 
d="M157.5 4.5q-19.5 15.5 -62.5 15.5l-86 1086h242l43 -896h2l43 896h241l-84 -1086q-46 0 -63.5 -15t-17.5 -52v-253h-238v253q0 36 -19.5 51.5zM198 1162l-63 202h234l34 -202h-205z" />
    <glyph glyph-name="ygrave.ss05.ss17" horiz-adv-x="564" 
d="M163 20l-166 1086h239l45 -605h2l55 605h232l-201 -1271h-240zM193 1162l-63 202h234l34 -202h-205z" />
    <glyph glyph-name="ygrave.ss17" horiz-adv-x="588" 
d="M157 42q-20 16 -62 16l-87 1048h243l43 -861h2l42 861h241l-83 -1048q-46 0 -63.5 -15.5t-17.5 -52.5v-155h-238v155q0 36 -20 52zM198 1162l-63 202h234l34 -202h-205z" />
    <glyph glyph-name="uni0233" horiz-adv-x="589" 
d="M157.5 4.5q-19.5 15.5 -62.5 15.5l-86 1086h242l43 -896h2l43 896h241l-84 -1086q-46 0 -63.5 -15t-17.5 -52v-253h-238v253q0 36 -19.5 51.5zM107 1327h376v-164h-376v164z" />
    <glyph glyph-name="uni0233.ss05.ss17" horiz-adv-x="564" 
d="M163 20l-166 1086h239l45 -605h2l55 605h232l-201 -1271h-240zM101 1327h376v-164h-376v164z" />
    <glyph glyph-name="uni0233.ss17" horiz-adv-x="588" 
d="M157 42q-20 16 -62 16l-87 1048h243l43 -861h2l42 861h241l-83 -1048q-46 0 -63.5 -15.5t-17.5 -52.5v-155h-238v155q0 36 -20 52zM106 1327h376v-164h-376v164z" />
    <glyph glyph-name="z.rsd" horiz-adv-x="515" 
d="M19 552l249 680h-248v202h474v-228l-246 -675h250v-203h-479v224z" />
    <glyph glyph-name="zdotaccent.ss12" horiz-adv-x="514" 
d="M18 224l249 680h-248v202h474v-228l-246 -675h250v-203h-479v224zM140 1389h240v-231h-240v231z" />
    <glyph glyph-name="f_f_i.liga.ss12" horiz-adv-x="1083" 
d="M81 915h-79v191h79v100q0 122 65 183t177 61q54 0 87 -12v-189q-16 6 -35 6q-60 0 -60 -62v-87h131v100q0 122 65 183t177 61q54 0 87 -12v-189q-16 6 -35 6q-60 0 -60 -62v-87h371v-1106h-240v914h-104v1h-21v-915h-240v915h-125v-915h-240v915zM811 1389h240v-231h-240
v231z" />
    <glyph glyph-name="fi.ss12" horiz-adv-x="720" 
d="M342 915h-21v-915h-240v915h-79v191h79v100q0 122 65 183t177 61q54 0 87 -12v-189q-16 6 -35 6q-60 0 -60 -62v-87h371v-1106h-240v914h-104v1zM446 1389h240v-231h-240v231z" />
    <glyph glyph-name="fl.ss02" horiz-adv-x="728" 
d="M81 915h-79v191h79v100q0 122 65 183t177 61q54 0 87 -12v-189q-16 6 -35 6q-60 0 -60 -62v-87h95v-191h-89v-915h-240v915zM455 139q-9 75 -9 173v1122h240v-1149q0 -87 7.5 -150t24.5 -135h-232q-22 64 -31 139z" />
    <glyph glyph-name="m_m.dlig" horiz-adv-x="1193" 
d="M916 914.5q-8 8.5 -21 8.5q-32 0 -32 -38v-885h-235v886q0 17 -8 26t-21 9q-14 0 -23 -9.5t-9 -29.5v-882h-236v886q0 35 -28 35q-14 0 -23 -9.5t-9 -29.5v-882h-236v1106h226v-104q22 56 64 88.5t97 32.5q112 0 136 -122q22 58 64.5 90t98.5 32q53 0 87.5 -30t47.5 -86
q23 55 65 85.5t96 30.5q67 0 104.5 -48t37.5 -134v-941h-235v889q0 17 -8 25.5z" />
    <glyph glyph-name="w_w_w.dlig" horiz-adv-x="1952" 
d="M9 1106h227l29 -793h2l53 793h250l51 -765h2l51 765h250l51 -765h2l51 765h249l52 -765h2l51 765h249l53 -794h2l29 794h228l-94 -1106h-294l-47 729h-2l-48 -729h-257l-47 729h-1l-48 -729h-258l-47 729h-2l-47 -729h-258l-46 729h-2l-48 -729h-294z" />
    <glyph glyph-name="zero.tf" horiz-adv-x="652" 
d="M107.5 58.5q-73.5 74.5 -73.5 208.5v900q0 83 34.5 147.5t100 100.5t156.5 36q92 0 157.5 -35t99.5 -99t34 -150v-900q0 -133 -74 -208t-217 -75q-144 0 -217.5 74.5zM298 206.5q9 -12.5 27 -12.5q20 0 28 12t8 34v954q0 21 -9.5 33.5t-26.5 12.5q-18 0 -27 -12.5
t-9 -33.5v-954q0 -21 9 -33.5z" />
    <glyph glyph-name="zero.zero" horiz-adv-x="652" 
d="M108.5 58.5q-73.5 74.5 -73.5 208.5v900q0 83 34.5 147.5t100 100.5t156.5 36q92 0 157.5 -35t99.5 -99t34 -150v-900q0 -133 -74 -208t-217 -75q-144 0 -217.5 74.5zM299 206.5q9 -12.5 27 -12.5q20 0 28 12t8 34v455l-72 -134v-321q0 -21 9 -33.5zM362 874v320
q0 21 -9.5 33.5t-26.5 12.5q-18 0 -27 -12.5t-9 -33.5v-454z" />
    <glyph glyph-name="one.ss11" horiz-adv-x="440" 
d="M154 1129l-146 -53v239l82 29q39 14 53.5 32.5t14.5 57.5h242v-1434h-246v1129z" />
    <glyph glyph-name="one.tf" horiz-adv-x="652" 
d="M57 215h152v913h-146v220h51q56 0 77.5 20.5t21.5 65.5h242v-1219h155v-215h-553v215z" />
    <glyph glyph-name="two.tf" horiz-adv-x="652" 
d="M35 235l243 543q43 92 63.5 158t20.5 147v97q0 24 -9 39t-29 15q-21 0 -31.5 -14.5t-10.5 -40.5v-230h-250v202q0 143 78.5 221t217.5 78q138 0 213 -77.5t75 -231.5v-79q0 -116 -31.5 -211t-98.5 -216l-208 -415h344v-220h-587v235z" />
    <glyph glyph-name="three.tf" horiz-adv-x="652" 
d="M107 57q-75 73 -75 205v186h249v-206q0 -26 9.5 -40t28.5 -14t29 14t10 40v254q0 56 -9 87.5t-32 46t-65 14.5h-27v209h23q44 0 67 12.5t33.5 46.5t10.5 101v180q0 54 -38 54q-37 0 -37 -54v-184h-249v146q0 138 74 217t212 79q137 0 212.5 -73.5t75.5 -215.5v-150
q0 -106 -38.5 -170.5t-128.5 -89.5q92 -22 130.5 -82t38.5 -181v-219q0 -139 -73.5 -212.5t-216.5 -73.5q-139 0 -214 73z" />
    <glyph glyph-name="four.tf" horiz-adv-x="652" 
d="M319 336h-298v229l134 869h399v-885h80v-213h-80v-336h-235v336zM319 549v645h-2l-75 -645h77z" />
    <glyph glyph-name="five.tf" horiz-adv-x="652" 
d="M114 53.5q-75 69.5 -75 197.5v209h253v-219q0 -49 36 -49t36 49v484q0 24 -10 37.5t-29 13.5q-26 0 -40.5 -25t-14.5 -76v-10h-226v769h554v-215h-311v-350q22 51 65 81t103 30q81 0 122.5 -55.5t41.5 -149.5v-516q0 -132 -75 -203.5t-215 -71.5t-215 69.5z" />
    <glyph glyph-name="six.tf" horiz-adv-x="652" 
d="M112 60q-77 76 -77 219v869q0 144 78.5 223.5t221.5 79.5q136 0 209.5 -78.5t73.5 -213.5v-142h-250v177q0 23 -10 36.5t-30 13.5t-30 -13.5t-10 -36.5v-386q26 43 69.5 69t96.5 26q82 0 126.5 -53.5t44.5 -162.5v-413q0 -140 -75 -215t-217 -75q-144 0 -221 76z
M300 205.5q10 -14.5 30 -14.5q40 0 40 55v390q0 30 -9.5 44t-30.5 14q-40 0 -40 -55v-393q0 -26 10 -40.5z" />
    <glyph glyph-name="seven.tf" horiz-adv-x="652" 
d="M204 687q66 305 211 523h-349v224h514v-247q-94 -195 -134 -460.5t-40 -608.5q0 -78 1 -118h-269q0 382 66 687z" />
    <glyph glyph-name="eight.tf" horiz-adv-x="652" 
d="M104.5 62q-75.5 78 -75.5 231v216q0 106 30.5 165t107.5 93q-75 36 -103 97t-28 169v133q0 133 76 209t214 76t214 -76t76 -209v-133q0 -106 -28.5 -168t-102.5 -98q77 -34 107.5 -93t30.5 -165v-216q0 -153 -76 -231t-221 -78q-146 0 -221.5 78zM296.5 207.5
q9.5 -14.5 29.5 -14.5t29.5 14.5t9.5 43.5v342q0 57 -39 57t-39 -57v-342q0 -29 9.5 -43.5zM326 855q39 0 39 57v273q0 56 -39 56t-39 -56v-273q0 -57 39 -57z" />
    <glyph glyph-name="nine.tf" horiz-adv-x="652" 
d="M115 57.5q-73 73.5 -73 209.5v172h246v-203q0 -45 37 -45q36 0 36 45v396q-26 -41 -60.5 -62t-83.5 -21q-88 0 -137.5 57t-49.5 176v369q0 141 75.5 220t214.5 79q142 0 217.5 -77t75.5 -222v-884q0 -83 -34.5 -147t-99.5 -100t-155 -36q-136 0 -209 73.5zM293.5 765
q9.5 -12 26.5 -12t27 12t10 34v400q0 44 -37 44q-18 0 -27 -11.5t-9 -32.5v-398q0 -24 9.5 -36z" />
    <glyph glyph-name="zero.zero.tf" horiz-adv-x="652" 
d="M107.5 58.5q-73.5 74.5 -73.5 208.5v900q0 83 34.5 147.5t100 100.5t156.5 36q92 0 157.5 -35t99.5 -99t34 -150v-900q0 -133 -74 -208t-217 -75q-144 0 -217.5 74.5zM298 206.5q9 -12.5 27 -12.5q20 0 28 12t8 34v455l-72 -134v-321q0 -21 9 -33.5zM361 874v320
q0 21 -9.5 33.5t-26.5 12.5q-18 0 -27 -12.5t-9 -33.5v-454z" />
    <glyph glyph-name="one.ss11.tf" horiz-adv-x="652" 
d="M57 215h153v914l-146 -53v239l82 29q39 14 53.5 32.5t14.5 57.5h242v-1219h154v-215h-553v215z" />
    <glyph glyph-name="uni2776.ss11" horiz-adv-x="825" 
d="M617 22.5q86 51.5 131 141t45 200.5v706q0 111 -45 200.5t-131 141t-205 51.5t-205 -51.5t-130.5 -140.5t-44.5 -201v-706q0 -111 45 -200.5t130.5 -141t204.5 -51.5t205 51.5zM270 1052l48 17q22 8 29.5 18.5t7.5 32.5h158v-806h-159v616l-84 -29v151z" />
    <glyph glyph-name="uni2460.ss11" horiz-adv-x="825" 
d="M207.5 22.5q-85.5 51.5 -130.5 141t-45 200.5v706q0 112 44.5 201t130.5 140.5t205 51.5t205 -51.5t131 -141t45 -200.5v-706q0 -111 -45 -200.5t-131 -141t-205 -51.5t-204.5 51.5zM142.5 197.5q36.5 -72.5 106 -113.5t163.5 -41q95 0 164.5 40t106 112.5t36.5 167.5
v708q0 96 -36.5 168t-105.5 112t-164 40t-164.5 -41t-106 -113.5t-36.5 -165.5v-708q0 -93 36.5 -165.5zM270 1052l48 17q22 8 29.5 18.5t7.5 32.5h158v-806h-159v616l-84 -29v151z" />
    <glyph glyph-name="zero.dnom" horiz-adv-x="366" 
d="M60 33q-41 41 -41 115v414q0 70 43.5 113t120.5 43q78 0 121 -42t43 -114v-414q0 -74 -41.5 -115t-122.5 -41q-82 0 -123 41zM183 110q11 0 15 7.5t4 24.5v434q0 10 -5 17t-14 7q-19 0 -19 -24v-434q0 -32 19 -32z" />
    <glyph glyph-name="one.dnom" horiz-adv-x="244" 
d="M82 544h-75v124h26q29 0 40 10t11 32h138v-710h-140v544z" />
    <glyph glyph-name="two.dnom" horiz-adv-x="362" 
d="M17 126l137 267q25 44 36 74t11 72v29q0 32 -21 32t-21 -31v-96h-142v91q0 73 44 113.5t120 40.5q77 0 121 -40t44 -118v-32q0 -57 -21 -107.5t-62 -115.5l-100 -185h185v-120h-331v126z" />
    <glyph glyph-name="three.dnom" horiz-adv-x="359" 
d="M57.5 30.5q-42.5 38.5 -42.5 106.5v85h142v-88q0 -28 20 -28q21 0 21 28v109q0 38 -11.5 53t-42.5 15h-25v120h24q32 0 43.5 14.5t11.5 59.5v71q0 29 -19 29q-20 0 -20 -29v-76h-142v65q0 72 41.5 112.5t119.5 40.5t120.5 -38t42.5 -112v-66q0 -52 -20 -84.5t-66 -44.5
q47 -11 67 -41t20 -91v-100q0 -72 -42 -110.5t-122 -38.5q-78 0 -120.5 38.5z" />
    <glyph glyph-name="four.dnom" horiz-adv-x="351" 
d="M176 156h-167v128l72 426h224v-435h37v-119h-37v-156h-129v156zM176 275v318h-2l-41 -318h43z" />
    <glyph glyph-name="five.dnom" horiz-adv-x="362" 
d="M60.5 30.5q-42.5 38.5 -42.5 109.5v88h145v-96q0 -25 19 -25t19 25v212q0 12 -5 19t-15 7q-29 0 -29 -50v-2h-131v392h315v-116h-176v-171q12 29 35.5 46t56.5 17q49 0 71.5 -31t22.5 -84v-227q0 -73 -42.5 -112.5t-121.5 -39.5t-121.5 38.5z" />
    <glyph glyph-name="six.dnom" horiz-adv-x="366" 
d="M62 33q-43 41 -43 119v403q0 77 44 120t124 43q77 0 119 -43t42 -117v-54h-143v73q0 26 -21 26q-10 0 -15.5 -7t-5.5 -19q1 -35 1 -100q0 -58 -1 -79q14 23 37.5 36t53.5 13q47 0 72 -30t25 -91v-176q0 -77 -42 -117.5t-122 -40.5q-82 0 -125 41zM169.5 115
q5.5 -8 16.5 -8q10 0 15 8t5 21v176q0 30 -21 30q-10 0 -15.5 -7.5t-5.5 -20.5v-178q0 -13 5.5 -21z" />
    <glyph glyph-name="seven.dnom" horiz-adv-x="294" 
d="M78 330q32 147 105 258h-176v122h278v-133q-50 -95 -70.5 -222.5t-20.5 -295.5l1 -59h-149q0 183 32 330z" />
    <glyph glyph-name="eight.dnom" horiz-adv-x="367" 
d="M15 165v77q0 59 16.5 90t58.5 48q-40 18 -55 49.5t-15 86.5v47q0 71 43 113t121 42q77 0 120 -42.5t43 -112.5v-47q0 -54 -15 -86t-55 -50q42 -17 58.5 -48t16.5 -90v-77q0 -87 -43 -130t-125 -43q-169 0 -169 173zM184 109q21 0 21 31v145q0 30 -21 30q-22 0 -22 -30
v-145q0 -31 22 -31zM184 430q21 0 21 30v112q0 30 -21 30q-22 0 -22 -30v-112q0 -30 22 -30z" />
    <glyph glyph-name="nine.dnom" horiz-adv-x="363" 
d="M62.5 32q-41.5 40 -41.5 115v70h141v-86q0 -24 20 -24q18 0 18 24v189q-25 -48 -83 -48q-48 0 -75 29.5t-27 90.5v170q0 74 42.5 115t121.5 41q80 0 122 -40t42 -116v-413q0 -71 -43 -114t-119 -43q-77 0 -118.5 40zM179 379q9 0 14 6.5t5 17.5v176q0 23 -19 23t-19 -23
v-175q0 -25 19 -25z" />
    <glyph glyph-name="zero.numr" horiz-adv-x="366" 
d="M60 759q-41 41 -41 115v414q0 70 43.5 113t120.5 43q78 0 121 -42t43 -114v-414q0 -74 -41.5 -115t-122.5 -41q-82 0 -123 41zM183 836q11 0 15 7.5t4 24.5v434q0 10 -5 17t-14 7q-19 0 -19 -24v-434q0 -32 19 -32z" />
    <glyph glyph-name="one.numr" horiz-adv-x="244" 
d="M82 1270h-75v124h26q29 0 40 10t11 32h138v-710h-140v544z" />
    <glyph glyph-name="two.numr" horiz-adv-x="362" 
d="M17 852l137 267q25 44 36 74t11 72v29q0 32 -21 32t-21 -31v-96h-142v91q0 73 44 113.5t120 40.5q77 0 121 -40t44 -118v-32q0 -57 -21 -107.5t-62 -115.5l-100 -185h185v-120h-331v126z" />
    </font>
</defs>
</svg>
